<svg width="89" height="72" viewBox="0 0 89 72" fill="none" xmlns="http://www.w3.org/2000/svg">
<path d="M0.456 14.4V2.016H23.592V72H9.768V14.4H0.456ZM36.8693 36.096C36.8693 25.024 38.8533 16.352 42.8213 10.08C46.8533 3.808 53.5093 0.671997 62.7893 0.671997C72.0693 0.671997 78.6933 3.808 82.6613 10.08C86.6933 16.352 88.7093 25.024 88.7093 36.096C88.7093 47.232 86.6933 55.968 82.6613 62.304C78.6933 68.64 72.0693 71.808 62.7893 71.808C53.5093 71.808 46.8533 68.64 42.8213 62.304C38.8533 55.968 36.8693 47.232 36.8693 36.096ZM75.4613 36.096C75.4613 31.36 75.1413 27.392 74.5013 24.192C73.9253 20.928 72.7093 18.272 70.8533 16.224C69.0613 14.176 66.3733 13.152 62.7893 13.152C59.2053 13.152 56.4853 14.176 54.6293 16.224C52.8373 18.272 51.6213 20.928 50.9813 24.192C50.4053 27.392 50.1173 31.36 50.1173 36.096C50.1173 40.96 50.4053 45.056 50.9813 48.384C51.5573 51.648 52.7733 54.304 54.6293 56.352C56.4853 58.336 59.2053 59.328 62.7893 59.328C66.3733 59.328 69.0933 58.336 70.9493 56.352C72.8053 54.304 74.0213 51.648 74.5973 48.384C75.1733 45.056 75.4613 40.96 75.4613 36.096Z" fill="#1C5DCD"/>
</svg>
