<svg width="60" height="60" viewBox="0 0 60 60" fill="none" xmlns="http://www.w3.org/2000/svg">
<circle cx="30" cy="30" r="30" fill="#1C5DCD"/>
<path d="M36.25 17.5H23.75C20.2982 17.5 17.5 20.2982 17.5 23.75V36.25C17.5 39.7018 20.2982 42.5 23.75 42.5H36.25C39.7018 42.5 42.5 39.7018 42.5 36.25V23.75C42.5 20.2982 39.7018 17.5 36.25 17.5Z" stroke="white" stroke-width="2" stroke-linecap="round" stroke-linejoin="round"/>
<path d="M34.9999 29.2126C35.1541 30.2529 34.9765 31.3154 34.4921 32.2489C34.0077 33.1824 33.2413 33.9394 32.3019 34.4122C31.3625 34.8851 30.2979 35.0496 29.2596 34.8825C28.2213 34.7155 27.2621 34.2252 26.5184 33.4816C25.7748 32.7379 25.2845 31.7787 25.1175 30.7404C24.9504 29.7021 25.115 28.6375 25.5878 27.6981C26.0606 26.7587 26.8176 25.9923 27.7511 25.5079C28.6846 25.0236 29.7471 24.8459 30.7874 25.0001C31.8485 25.1575 32.8309 25.652 33.5895 26.4105C34.348 27.1691 34.8425 28.1515 34.9999 29.2126Z" stroke="white" stroke-width="2" stroke-linecap="round" stroke-linejoin="round"/>
<path d="M36.875 23.125H36.8867" stroke="white" stroke-width="2" stroke-linecap="round" stroke-linejoin="round"/>
</svg>
