<svg width="1405" height="651" viewBox="0 0 1405 651" fill="none" xmlns="http://www.w3.org/2000/svg">
<path d="M270.525 101.216C269.696 101.216 269.025 101.887 269.025 102.716C269.025 103.544 269.696 104.216 270.525 104.216V101.216ZM900.674 104.216C901.503 104.216 902.174 103.544 902.174 102.716C902.174 101.887 901.503 101.216 900.674 101.216V104.216ZM270.525 104.216H280.371V101.216H270.525V104.216ZM300.063 104.216H319.755V101.216H300.063V104.216ZM339.447 104.216H359.139V101.216H339.447V104.216ZM378.832 104.216H398.524V101.216H378.832V104.216ZM418.216 104.216H437.908V101.216H418.216V104.216ZM457.6 104.216H477.292V101.216H457.6V104.216ZM496.985 104.216H516.677V101.216H496.985V104.216ZM536.369 104.216H556.061V101.216H536.369V104.216ZM575.753 104.216H595.445V101.216H575.753V104.216ZM615.138 104.216H634.83V101.216H615.138V104.216ZM654.522 104.216H674.214V101.216H654.522V104.216ZM693.906 104.216H713.598V101.216H693.906V104.216ZM733.291 104.216H752.983V101.216H733.291V104.216ZM772.675 104.216H792.367V101.216H772.675V104.216ZM812.059 104.216H831.751V101.216H812.059V104.216ZM851.444 104.216H871.136V101.216H851.444V104.216ZM890.828 104.216H900.674V101.216H890.828V104.216Z" fill="black" fill-opacity="0.25"/>
<path d="M498.995 546.197C498.167 546.197 497.495 546.868 497.495 547.697C497.495 548.525 498.167 549.197 498.995 549.197V546.197ZM1129.14 549.197C1129.97 549.197 1130.64 548.525 1130.64 547.697C1130.64 546.868 1129.97 546.197 1129.14 546.197V549.197ZM498.995 549.197H508.841V546.197H498.995V549.197ZM528.533 549.197H548.226V546.197H528.533V549.197ZM567.918 549.197H587.61V546.197H567.918V549.197ZM607.302 549.197H626.994V546.197H607.302V549.197ZM646.686 549.197H666.379V546.197H646.686V549.197ZM686.071 549.197H705.763V546.197H686.071V549.197ZM725.455 549.197H745.147V546.197H725.455V549.197ZM764.839 549.197H784.532V546.197H764.839V549.197ZM804.224 549.197H823.916V546.197H804.224V549.197ZM843.608 549.197H863.3V546.197H843.608V549.197ZM882.992 549.197H902.685V546.197H882.992V549.197ZM922.377 549.197H942.069V546.197H922.377V549.197ZM961.761 549.197H981.453V546.197H961.761V549.197ZM1001.15 549.197H1020.84V546.197H1001.15V549.197ZM1040.53 549.197H1060.22V546.197H1040.53V549.197ZM1079.91 549.197H1099.61V546.197H1079.91V549.197ZM1119.3 549.197H1129.14V546.197H1119.3V549.197Z" fill="black" fill-opacity="0.25"/>
<line x1="465.029" y1="324.325" x2="899.174" y2="324.325" stroke="black" stroke-opacity="0.25" stroke-width="3" stroke-linecap="round" stroke-dasharray="20 20"/>
<path d="M900.674 100.803C899.845 100.803 899.174 101.475 899.174 102.303C899.174 103.132 899.845 103.803 900.674 103.803L900.674 100.803ZM900.674 103.803C904.108 103.803 907.465 103.912 910.745 104.125L910.94 101.132C907.593 100.914 904.171 100.803 900.674 100.803L900.674 103.803ZM930.475 106.814C937.224 108.251 943.575 110.175 949.529 112.526L950.631 109.736C944.518 107.322 938.007 105.35 931.1 103.88L930.475 106.814ZM967.283 121.478C973.021 125.076 978.262 129.139 983.006 133.584L985.057 131.395C980.174 126.819 974.78 122.638 968.877 118.936L967.283 121.478ZM996.11 148.492C1000.01 153.902 1003.37 159.643 1006.17 165.622L1008.89 164.348C1006.01 158.204 1002.56 152.302 998.543 146.737L996.11 148.492ZM1012.97 184.309C1014.68 190.728 1015.83 197.292 1016.41 203.905L1019.4 203.641C1018.8 196.859 1017.62 190.124 1015.87 183.536L1012.97 184.309ZM1016.47 223.804C1015.92 230.425 1014.81 236.994 1013.13 243.416L1016.03 244.175C1017.76 237.583 1018.9 230.842 1019.46 224.051L1016.47 223.804ZM1006.39 262.119C1003.6 268.101 1000.25 273.841 996.333 279.244L998.763 281.004C1002.79 275.442 1006.24 269.538 1009.11 263.389L1006.39 262.119ZM983.184 294.104C978.429 298.518 973.166 302.549 967.396 306.116L968.973 308.668C974.91 304.998 980.328 300.849 985.225 296.303L983.184 294.104ZM949.587 314.948C943.624 317.259 937.259 319.149 930.489 320.558L931.1 323.495C938.027 322.053 944.551 320.118 950.672 317.745L949.587 314.948ZM910.753 323.186C907.471 323.394 904.111 323.5 900.674 323.5L900.674 326.5C904.173 326.5 907.596 326.392 910.943 326.18L910.753 323.186Z" fill="black" fill-opacity="0.25"/>
<path d="M479.2 323.5C480.028 323.5 480.7 324.172 480.7 325C480.7 325.828 480.028 326.5 479.2 326.5L479.2 323.5ZM479.2 326.5C475.943 326.5 472.75 326.58 469.62 326.736L469.471 323.74C472.651 323.581 475.894 323.5 479.2 323.5L479.2 326.5ZM450.875 328.682C444.41 329.723 438.265 331.121 432.439 332.839L431.59 329.962C437.542 328.206 443.812 326.781 450.398 325.72L450.875 328.682ZM414.78 339.437C408.893 342.146 403.421 345.225 398.362 348.623L396.69 346.133C401.883 342.644 407.495 339.486 413.526 336.712L414.78 339.437ZM383.726 360.386C379.107 364.811 374.987 369.559 371.366 374.56L368.936 372.8C372.662 367.655 376.9 362.771 381.65 358.22L383.726 360.386ZM361.774 390.71C359.056 396.408 356.881 402.307 355.249 408.326L352.354 407.541C354.032 401.35 356.27 395.282 359.066 389.418L361.774 390.71ZM351.966 426.831C351.422 433.082 351.433 439.376 351.998 445.629L349.01 445.899C348.429 439.47 348.418 432.999 348.977 426.571L351.966 426.831ZM355.336 464.125C356.983 470.139 359.17 476.035 361.895 481.731L359.188 483.026C356.385 477.166 354.137 471.102 352.443 464.917L355.336 464.125ZM371.492 497.883C375.112 502.89 379.227 507.646 383.834 512.08L381.753 514.242C377.017 509.683 372.785 504.792 369.061 499.641L371.492 497.883ZM398.435 523.882C403.488 527.301 408.951 530.401 414.825 533.128L413.561 535.849C407.544 533.055 401.941 529.877 396.753 526.367L398.435 523.882ZM432.455 539.782C438.282 541.52 444.425 542.934 450.886 543.987L450.403 546.948C443.82 545.875 437.551 544.433 431.598 542.657L432.455 539.782ZM469.624 545.958C472.753 546.116 475.945 546.197 479.2 546.197L479.2 549.197C475.896 549.197 472.653 549.115 469.473 548.954L469.624 545.958Z" fill="black" fill-opacity="0.25"/>
<circle cx="270.525" cy="103.327" r="18.327" fill="#1C5DCD" fill-opacity="0.25"/>
<circle cx="270.525" cy="103.327" r="13.7452" fill="#1C5DCD"/>
<path d="M168.968 9.248V19.616C168.968 20.752 169.264 21.624 169.856 22.232C170.448 22.824 171.28 23.12 172.352 23.12C173.44 23.12 174.28 22.824 174.872 22.232C175.464 21.624 175.76 20.752 175.76 19.616V9.248H179.144V19.592C179.144 21.016 178.832 22.224 178.208 23.216C177.6 24.192 176.776 24.928 175.736 25.424C174.712 25.92 173.568 26.168 172.304 26.168C171.056 26.168 169.92 25.92 168.896 25.424C167.888 24.928 167.088 24.192 166.496 23.216C165.904 22.224 165.608 21.016 165.608 19.592V9.248H168.968ZM185.75 9.248V26H182.39V9.248H185.75ZM198.07 3.272L191.59 30.344H188.302L194.782 3.272H198.07ZM204.054 9.248V19.616C204.054 20.752 204.35 21.624 204.942 22.232C205.534 22.824 206.366 23.12 207.438 23.12C208.526 23.12 209.366 22.824 209.958 22.232C210.55 21.624 210.846 20.752 210.846 19.616V9.248H214.23V19.592C214.23 21.016 213.918 22.224 213.294 23.216C212.686 24.192 211.862 24.928 210.822 25.424C209.798 25.92 208.654 26.168 207.39 26.168C206.142 26.168 205.006 25.92 203.982 25.424C202.974 24.928 202.174 24.192 201.582 23.216C200.99 22.224 200.694 21.016 200.694 19.592V9.248H204.054ZM227.508 26L223.884 20.36L220.596 26H216.804L222.084 17.552L216.732 9.248H220.596L224.22 14.864L227.484 9.248H231.276L226.02 17.672L231.372 26H227.508ZM262.04 9.248L257.36 26H253.4L250.256 14.072L246.968 26L243.032 26.024L238.52 9.248H242.12L245.072 22.256L248.48 9.248H252.224L255.44 22.184L258.416 9.248H262.04ZM272.01 26.168C270.442 26.168 269.002 25.8 267.69 25.064C266.378 24.328 265.338 23.312 264.57 22.016C263.802 20.704 263.418 19.224 263.418 17.576C263.418 15.944 263.802 14.48 264.57 13.184C265.338 11.872 266.378 10.848 267.69 10.112C269.002 9.376 270.442 9.008 272.01 9.008C273.594 9.008 275.034 9.376 276.33 10.112C277.642 10.848 278.674 11.872 279.426 13.184C280.194 14.48 280.578 15.944 280.578 17.576C280.578 19.224 280.194 20.704 279.426 22.016C278.674 23.312 277.642 24.328 276.33 25.064C275.018 25.8 273.578 26.168 272.01 26.168ZM272.01 23.168C273.018 23.168 273.906 22.944 274.674 22.496C275.442 22.032 276.042 21.376 276.474 20.528C276.906 19.68 277.122 18.696 277.122 17.576C277.122 16.456 276.906 15.48 276.474 14.648C276.042 13.8 275.442 13.152 274.674 12.704C273.906 12.256 273.018 12.032 272.01 12.032C271.002 12.032 270.106 12.256 269.322 12.704C268.554 13.152 267.954 13.8 267.522 14.648C267.09 15.48 266.874 16.456 266.874 17.576C266.874 18.696 267.09 19.68 267.522 20.528C267.954 21.376 268.554 22.032 269.322 22.496C270.106 22.944 271.002 23.168 272.01 23.168ZM291.718 26L288.022 19.472H286.438V26H283.078V9.248H289.366C290.662 9.248 291.766 9.48 292.678 9.944C293.59 10.392 294.27 11.008 294.718 11.792C295.182 12.56 295.414 13.424 295.414 14.384C295.414 15.488 295.094 16.488 294.454 17.384C293.814 18.264 292.862 18.872 291.598 19.208L295.606 26H291.718ZM286.438 16.952H289.246C290.158 16.952 290.838 16.736 291.286 16.304C291.734 15.856 291.958 15.24 291.958 14.456C291.958 13.688 291.734 13.096 291.286 12.68C290.838 12.248 290.158 12.032 289.246 12.032H286.438V16.952ZM307.909 26L301.813 18.536V26H298.453V9.248H301.813V16.76L307.909 9.248H311.965L305.053 17.552L312.157 26H307.909ZM320.151 26.168C318.983 26.168 317.927 25.968 316.983 25.568C316.055 25.168 315.319 24.592 314.775 23.84C314.231 23.088 313.951 22.2 313.935 21.176H317.535C317.583 21.864 317.823 22.408 318.255 22.808C318.703 23.208 319.311 23.408 320.079 23.408C320.863 23.408 321.479 23.224 321.927 22.856C322.375 22.472 322.599 21.976 322.599 21.368C322.599 20.872 322.447 20.464 322.143 20.144C321.839 19.824 321.455 19.576 320.991 19.4C320.543 19.208 319.919 19 319.119 18.776C318.031 18.456 317.143 18.144 316.455 17.84C315.783 17.52 315.199 17.048 314.703 16.424C314.223 15.784 313.983 14.936 313.983 13.88C313.983 12.888 314.231 12.024 314.727 11.288C315.223 10.552 315.919 9.992 316.815 9.608C317.711 9.208 318.735 9.008 319.887 9.008C321.615 9.008 323.015 9.432 324.087 10.28C325.175 11.112 325.775 12.28 325.887 13.784H322.191C322.159 13.208 321.911 12.736 321.447 12.368C320.999 11.984 320.399 11.792 319.647 11.792C318.991 11.792 318.463 11.96 318.063 12.296C317.679 12.632 317.487 13.12 317.487 13.76C317.487 14.208 317.631 14.584 317.919 14.888C318.223 15.176 318.591 15.416 319.023 15.608C319.471 15.784 320.095 15.992 320.895 16.232C321.983 16.552 322.871 16.872 323.559 17.192C324.247 17.512 324.839 17.992 325.335 18.632C325.831 19.272 326.079 20.112 326.079 21.152C326.079 22.048 325.847 22.88 325.383 23.648C324.919 24.416 324.239 25.032 323.343 25.496C322.447 25.944 321.383 26.168 320.151 26.168ZM342.888 9.248V26H339.528V18.872H332.352V26H328.992V9.248H332.352V16.136H339.528V9.248H342.888ZM353.971 26.168C352.403 26.168 350.963 25.8 349.651 25.064C348.339 24.328 347.299 23.312 346.531 22.016C345.763 20.704 345.379 19.224 345.379 17.576C345.379 15.944 345.763 14.48 346.531 13.184C347.299 11.872 348.339 10.848 349.651 10.112C350.963 9.376 352.403 9.008 353.971 9.008C355.555 9.008 356.995 9.376 358.291 10.112C359.603 10.848 360.635 11.872 361.387 13.184C362.155 14.48 362.539 15.944 362.539 17.576C362.539 19.224 362.155 20.704 361.387 22.016C360.635 23.312 359.603 24.328 358.291 25.064C356.979 25.8 355.539 26.168 353.971 26.168ZM353.971 23.168C354.979 23.168 355.867 22.944 356.635 22.496C357.403 22.032 358.003 21.376 358.435 20.528C358.867 19.68 359.083 18.696 359.083 17.576C359.083 16.456 358.867 15.48 358.435 14.648C358.003 13.8 357.403 13.152 356.635 12.704C355.867 12.256 354.979 12.032 353.971 12.032C352.963 12.032 352.067 12.256 351.283 12.704C350.515 13.152 349.915 13.8 349.483 14.648C349.051 15.48 348.835 16.456 348.835 17.576C348.835 18.696 349.051 19.68 349.483 20.528C349.915 21.376 350.515 22.032 351.283 22.496C352.067 22.944 352.963 23.168 353.971 23.168ZM377.255 14.432C377.255 15.328 377.039 16.168 376.607 16.952C376.191 17.736 375.527 18.368 374.615 18.848C373.719 19.328 372.583 19.568 371.207 19.568H368.399V26H365.039V9.248H371.207C372.503 9.248 373.607 9.472 374.519 9.92C375.431 10.368 376.111 10.984 376.559 11.768C377.023 12.552 377.255 13.44 377.255 14.432ZM371.063 16.856C371.991 16.856 372.679 16.648 373.127 16.232C373.575 15.8 373.799 15.2 373.799 14.432C373.799 12.8 372.887 11.984 371.063 11.984H368.399V16.856H371.063Z" fill="#1C5DCD"/>
<path d="M223.824 51.52H218.96L218.064 54H216.528L220.56 42.912H222.24L226.256 54H224.72L223.824 51.52ZM223.408 50.336L221.392 44.704L219.376 50.336H223.408ZM229.469 46.848C229.757 46.3467 230.184 45.9307 230.749 45.6C231.325 45.2587 231.992 45.088 232.749 45.088C233.528 45.088 234.232 45.2747 234.861 45.648C235.501 46.0213 236.003 46.5493 236.365 47.232C236.728 47.904 236.909 48.688 236.909 49.584C236.909 50.4693 236.728 51.2587 236.365 51.952C236.003 52.6453 235.501 53.184 234.861 53.568C234.232 53.952 233.528 54.144 232.749 54.144C232.003 54.144 231.341 53.9787 230.765 53.648C230.2 53.3067 229.768 52.8853 229.469 52.384V58.16H228.013V45.232H229.469V46.848ZM235.421 49.584C235.421 48.9227 235.288 48.3467 235.021 47.856C234.755 47.3653 234.392 46.992 233.933 46.736C233.485 46.48 232.989 46.352 232.445 46.352C231.912 46.352 231.416 46.4853 230.957 46.752C230.509 47.008 230.147 47.3867 229.869 47.888C229.603 48.3787 229.469 48.9493 229.469 49.6C229.469 50.2613 229.603 50.8427 229.869 51.344C230.147 51.8347 230.509 52.2133 230.957 52.48C231.416 52.736 231.912 52.864 232.445 52.864C232.989 52.864 233.485 52.736 233.933 52.48C234.392 52.2133 234.755 51.8347 235.021 51.344C235.288 50.8427 235.421 50.256 235.421 49.584ZM240.282 46.656C240.538 46.1547 240.9 45.7653 241.37 45.488C241.85 45.2107 242.431 45.072 243.114 45.072V46.576H242.73C241.098 46.576 240.282 47.4613 240.282 49.232V54H238.826V45.232H240.282V46.656ZM245.547 43.808C245.269 43.808 245.035 43.712 244.843 43.52C244.651 43.328 244.555 43.0933 244.555 42.816C244.555 42.5387 244.651 42.304 244.843 42.112C245.035 41.92 245.269 41.824 245.547 41.824C245.813 41.824 246.037 41.92 246.219 42.112C246.411 42.304 246.507 42.5387 246.507 42.816C246.507 43.0933 246.411 43.328 246.219 43.52C246.037 43.712 245.813 43.808 245.547 43.808ZM246.251 45.232V54H244.795V45.232H246.251ZM250.188 42.16V54H248.732V42.16H250.188ZM256.519 52.832C257.874 51.744 258.935 50.8533 259.703 50.16C260.471 49.456 261.116 48.7253 261.639 47.968C262.172 47.2 262.439 46.448 262.439 45.712C262.439 45.0187 262.268 44.4747 261.927 44.08C261.596 43.6747 261.058 43.472 260.311 43.472C259.586 43.472 259.02 43.7013 258.615 44.16C258.22 44.608 258.007 45.2107 257.975 45.968H256.567C256.61 44.7733 256.972 43.8507 257.655 43.2C258.338 42.5493 259.218 42.224 260.295 42.224C261.394 42.224 262.263 42.528 262.903 43.136C263.554 43.744 263.879 44.5813 263.879 45.648C263.879 46.5333 263.612 47.3973 263.079 48.24C262.556 49.072 261.959 49.808 261.287 50.448C260.615 51.0773 259.756 51.8133 258.711 52.656H264.215V53.872H256.519V52.832ZM265.546 51.424V50.32L271.162 42.544H272.906V50.16H274.506V51.424H272.906V54H271.466V51.424H265.546ZM271.53 44.064L267.226 50.16H271.53V44.064ZM281.97 51.984L280.178 56.288H279.202L280.37 51.984H281.97ZM287.488 52.832C288.843 51.744 289.904 50.8533 290.672 50.16C291.44 49.456 292.085 48.7253 292.608 47.968C293.141 47.2 293.408 46.448 293.408 45.712C293.408 45.0187 293.237 44.4747 292.896 44.08C292.565 43.6747 292.027 43.472 291.28 43.472C290.555 43.472 289.989 43.7013 289.584 44.16C289.189 44.608 288.976 45.2107 288.944 45.968H287.536C287.579 44.7733 287.941 43.8507 288.624 43.2C289.307 42.5493 290.187 42.224 291.264 42.224C292.363 42.224 293.232 42.528 293.872 43.136C294.523 43.744 294.848 44.5813 294.848 45.648C294.848 46.5333 294.581 47.3973 294.048 48.24C293.525 49.072 292.928 49.808 292.256 50.448C291.584 51.0773 290.725 51.8133 289.68 52.656H295.184V53.872H287.488V52.832ZM296.867 48.096C296.867 46.2613 297.166 44.832 297.763 43.808C298.36 42.7733 299.406 42.256 300.899 42.256C302.382 42.256 303.422 42.7733 304.019 43.808C304.616 44.832 304.915 46.2613 304.915 48.096C304.915 49.9627 304.616 51.4133 304.019 52.448C303.422 53.4827 302.382 54 300.899 54C299.406 54 298.36 53.4827 297.763 52.448C297.166 51.4133 296.867 49.9627 296.867 48.096ZM303.475 48.096C303.475 47.168 303.411 46.384 303.283 45.744C303.166 45.0933 302.915 44.5707 302.531 44.176C302.158 43.7813 301.614 43.584 300.899 43.584C300.174 43.584 299.619 43.7813 299.235 44.176C298.862 44.5707 298.611 45.0933 298.483 45.744C298.366 46.384 298.307 47.168 298.307 48.096C298.307 49.056 298.366 49.8613 298.483 50.512C298.611 51.1627 298.862 51.6853 299.235 52.08C299.619 52.4747 300.174 52.672 300.899 52.672C301.614 52.672 302.158 52.4747 302.531 52.08C302.915 51.6853 303.166 51.1627 303.283 50.512C303.411 49.8613 303.475 49.056 303.475 48.096ZM306.738 52.832C308.093 51.744 309.154 50.8533 309.922 50.16C310.69 49.456 311.335 48.7253 311.858 47.968C312.391 47.2 312.658 46.448 312.658 45.712C312.658 45.0187 312.487 44.4747 312.146 44.08C311.815 43.6747 311.277 43.472 310.53 43.472C309.805 43.472 309.239 43.7013 308.834 44.16C308.439 44.608 308.226 45.2107 308.194 45.968H306.786C306.829 44.7733 307.191 43.8507 307.874 43.2C308.557 42.5493 309.437 42.224 310.514 42.224C311.613 42.224 312.482 42.528 313.122 43.136C313.773 43.744 314.098 44.5813 314.098 45.648C314.098 46.5333 313.831 47.3973 313.298 48.24C312.775 49.072 312.178 49.808 311.506 50.448C310.834 51.0773 309.975 51.8133 308.93 52.656H314.434V53.872H306.738V52.832ZM315.941 52.832C317.296 51.744 318.357 50.8533 319.125 50.16C319.893 49.456 320.538 48.7253 321.061 47.968C321.594 47.2 321.861 46.448 321.861 45.712C321.861 45.0187 321.69 44.4747 321.349 44.08C321.018 43.6747 320.48 43.472 319.733 43.472C319.008 43.472 318.442 43.7013 318.037 44.16C317.642 44.608 317.429 45.2107 317.397 45.968H315.989C316.032 44.7733 316.394 43.8507 317.077 43.2C317.76 42.5493 318.64 42.224 319.717 42.224C320.816 42.224 321.685 42.528 322.325 43.136C322.976 43.744 323.301 44.5813 323.301 45.648C323.301 46.5333 323.034 47.3973 322.501 48.24C321.978 49.072 321.381 49.808 320.709 50.448C320.037 51.0773 319.178 51.8133 318.133 52.656H323.637V53.872H315.941V52.832Z" fill="#363A42"/>
<circle cx="1127.48" cy="547.327" r="18.327" fill="#1C5DCD" fill-opacity="0.25"/>
<circle cx="1127.48" cy="547.327" r="13.7452" fill="#1C5DCD"/>
<path d="M1050.04 605.288C1049.65 604.584 1049.13 604.048 1048.45 603.68C1047.78 603.312 1047 603.128 1046.1 603.128C1045.11 603.128 1044.23 603.352 1043.46 603.8C1042.69 604.248 1042.09 604.888 1041.66 605.72C1041.23 606.552 1041.01 607.512 1041.01 608.6C1041.01 609.72 1041.23 610.696 1041.66 611.528C1042.11 612.36 1042.73 613 1043.51 613.448C1044.29 613.896 1045.21 614.12 1046.25 614.12C1047.53 614.12 1048.57 613.784 1049.39 613.112C1050.21 612.424 1050.74 611.472 1051 610.256H1045.24V607.688H1054.31V610.616C1054.09 611.784 1053.61 612.864 1052.87 613.856C1052.13 614.848 1051.18 615.648 1050.01 616.256C1048.86 616.848 1047.57 617.144 1046.13 617.144C1044.51 617.144 1043.05 616.784 1041.73 616.064C1040.44 615.328 1039.41 614.312 1038.66 613.016C1037.93 611.72 1037.56 610.248 1037.56 608.6C1037.56 606.952 1037.93 605.48 1038.66 604.184C1039.41 602.872 1040.44 601.856 1041.73 601.136C1043.05 600.4 1044.5 600.032 1046.1 600.032C1047.99 600.032 1049.63 600.496 1051.02 601.424C1052.41 602.336 1053.37 603.624 1053.9 605.288H1050.04ZM1060.16 600.248V617H1056.8V600.248H1060.16ZM1074.88 600.248V602.96H1070.41V617H1067.05V602.96H1062.59V600.248H1074.88ZM1105.44 600.248L1100.76 617H1096.8L1093.65 605.072L1090.37 617L1086.43 617.024L1081.92 600.248H1085.52L1088.47 613.256L1091.88 600.248H1095.62L1098.84 613.184L1101.81 600.248H1105.44ZM1115.41 617.168C1113.84 617.168 1112.4 616.8 1111.09 616.064C1109.78 615.328 1108.74 614.312 1107.97 613.016C1107.2 611.704 1106.82 610.224 1106.82 608.576C1106.82 606.944 1107.2 605.48 1107.97 604.184C1108.74 602.872 1109.78 601.848 1111.09 601.112C1112.4 600.376 1113.84 600.008 1115.41 600.008C1116.99 600.008 1118.43 600.376 1119.73 601.112C1121.04 601.848 1122.07 602.872 1122.82 604.184C1123.59 605.48 1123.98 606.944 1123.98 608.576C1123.98 610.224 1123.59 611.704 1122.82 613.016C1122.07 614.312 1121.04 615.328 1119.73 616.064C1118.42 616.8 1116.98 617.168 1115.41 617.168ZM1115.41 614.168C1116.42 614.168 1117.3 613.944 1118.07 613.496C1118.84 613.032 1119.44 612.376 1119.87 611.528C1120.3 610.68 1120.52 609.696 1120.52 608.576C1120.52 607.456 1120.3 606.48 1119.87 605.648C1119.44 604.8 1118.84 604.152 1118.07 603.704C1117.3 603.256 1116.42 603.032 1115.41 603.032C1114.4 603.032 1113.5 603.256 1112.72 603.704C1111.95 604.152 1111.35 604.8 1110.92 605.648C1110.49 606.48 1110.27 607.456 1110.27 608.576C1110.27 609.696 1110.49 610.68 1110.92 611.528C1111.35 612.376 1111.95 613.032 1112.72 613.496C1113.5 613.944 1114.4 614.168 1115.41 614.168ZM1135.12 617L1131.42 610.472H1129.84V617H1126.48V600.248H1132.76C1134.06 600.248 1135.16 600.48 1136.08 600.944C1136.99 601.392 1137.67 602.008 1138.12 602.792C1138.58 603.56 1138.81 604.424 1138.81 605.384C1138.81 606.488 1138.49 607.488 1137.85 608.384C1137.21 609.264 1136.26 609.872 1135 610.208L1139 617H1135.12ZM1129.84 607.952H1132.64C1133.56 607.952 1134.24 607.736 1134.68 607.304C1135.13 606.856 1135.36 606.24 1135.36 605.456C1135.36 604.688 1135.13 604.096 1134.68 603.68C1134.24 603.248 1133.56 603.032 1132.64 603.032H1129.84V607.952ZM1151.31 617L1145.21 609.536V617H1141.85V600.248H1145.21V607.76L1151.31 600.248H1155.36L1148.45 608.552L1155.56 617H1151.31ZM1163.55 617.168C1162.38 617.168 1161.33 616.968 1160.38 616.568C1159.45 616.168 1158.72 615.592 1158.17 614.84C1157.63 614.088 1157.35 613.2 1157.33 612.176H1160.93C1160.98 612.864 1161.22 613.408 1161.65 613.808C1162.1 614.208 1162.71 614.408 1163.48 614.408C1164.26 614.408 1164.88 614.224 1165.33 613.856C1165.77 613.472 1166 612.976 1166 612.368C1166 611.872 1165.85 611.464 1165.54 611.144C1165.24 610.824 1164.85 610.576 1164.39 610.4C1163.94 610.208 1163.32 610 1162.52 609.776C1161.43 609.456 1160.54 609.144 1159.85 608.84C1159.18 608.52 1158.6 608.048 1158.1 607.424C1157.62 606.784 1157.38 605.936 1157.38 604.88C1157.38 603.888 1157.63 603.024 1158.13 602.288C1158.62 601.552 1159.32 600.992 1160.21 600.608C1161.11 600.208 1162.13 600.008 1163.29 600.008C1165.01 600.008 1166.41 600.432 1167.49 601.28C1168.57 602.112 1169.17 603.28 1169.29 604.784H1165.59C1165.56 604.208 1165.31 603.736 1164.85 603.368C1164.4 602.984 1163.8 602.792 1163.05 602.792C1162.39 602.792 1161.86 602.96 1161.46 603.296C1161.08 603.632 1160.89 604.12 1160.89 604.76C1160.89 605.208 1161.03 605.584 1161.32 605.888C1161.62 606.176 1161.99 606.416 1162.42 606.608C1162.87 606.784 1163.49 606.992 1164.29 607.232C1165.38 607.552 1166.27 607.872 1166.96 608.192C1167.65 608.512 1168.24 608.992 1168.73 609.632C1169.23 610.272 1169.48 611.112 1169.48 612.152C1169.48 613.048 1169.25 613.88 1168.78 614.648C1168.32 615.416 1167.64 616.032 1166.74 616.496C1165.85 616.944 1164.78 617.168 1163.55 617.168ZM1186.29 600.248V617H1182.93V609.872H1175.75V617H1172.39V600.248H1175.75V607.136H1182.93V600.248H1186.29ZM1197.37 617.168C1195.8 617.168 1194.36 616.8 1193.05 616.064C1191.74 615.328 1190.7 614.312 1189.93 613.016C1189.16 611.704 1188.78 610.224 1188.78 608.576C1188.78 606.944 1189.16 605.48 1189.93 604.184C1190.7 602.872 1191.74 601.848 1193.05 601.112C1194.36 600.376 1195.8 600.008 1197.37 600.008C1198.95 600.008 1200.39 600.376 1201.69 601.112C1203 601.848 1204.03 602.872 1204.79 604.184C1205.55 605.48 1205.94 606.944 1205.94 608.576C1205.94 610.224 1205.55 611.704 1204.79 613.016C1204.03 614.312 1203 615.328 1201.69 616.064C1200.38 616.8 1198.94 617.168 1197.37 617.168ZM1197.37 614.168C1198.38 614.168 1199.27 613.944 1200.03 613.496C1200.8 613.032 1201.4 612.376 1201.83 611.528C1202.27 610.68 1202.48 609.696 1202.48 608.576C1202.48 607.456 1202.27 606.48 1201.83 605.648C1201.4 604.8 1200.8 604.152 1200.03 603.704C1199.27 603.256 1198.38 603.032 1197.37 603.032C1196.36 603.032 1195.47 603.256 1194.68 603.704C1193.91 604.152 1193.31 604.8 1192.88 605.648C1192.45 606.48 1192.23 607.456 1192.23 608.576C1192.23 609.696 1192.45 610.68 1192.88 611.528C1193.31 612.376 1193.91 613.032 1194.68 613.496C1195.47 613.944 1196.36 614.168 1197.37 614.168ZM1220.65 605.432C1220.65 606.328 1220.44 607.168 1220.01 607.952C1219.59 608.736 1218.93 609.368 1218.01 609.848C1217.12 610.328 1215.98 610.568 1214.61 610.568H1211.8V617H1208.44V600.248H1214.61C1215.9 600.248 1217.01 600.472 1217.92 600.92C1218.83 601.368 1219.51 601.984 1219.96 602.768C1220.42 603.552 1220.65 604.44 1220.65 605.432ZM1214.46 607.856C1215.39 607.856 1216.08 607.648 1216.53 607.232C1216.97 606.8 1217.2 606.2 1217.2 605.432C1217.2 603.8 1216.29 602.984 1214.46 602.984H1211.8V607.856H1214.46Z" fill="#1C5DCD"/>
<path d="M1088.54 633.582V644.654H1087.09V636.398L1083.41 644.654H1082.38L1078.69 636.382V644.654H1077.23V633.582H1078.8L1082.9 642.734L1086.99 633.582H1088.54ZM1090.47 640.238C1090.47 639.342 1090.65 638.558 1091.01 637.886C1091.38 637.203 1091.87 636.675 1092.5 636.302C1093.14 635.929 1093.85 635.742 1094.63 635.742C1095.4 635.742 1096.06 635.907 1096.63 636.238C1097.19 636.569 1097.62 636.985 1097.89 637.486V635.886H1099.37V644.654H1097.89V643.022C1097.61 643.534 1097.17 643.961 1096.6 644.302C1096.03 644.633 1095.37 644.798 1094.61 644.798C1093.83 644.798 1093.13 644.606 1092.5 644.222C1091.87 643.838 1091.38 643.299 1091.01 642.606C1090.65 641.913 1090.47 641.123 1090.47 640.238ZM1097.89 640.254C1097.89 639.593 1097.76 639.017 1097.49 638.526C1097.23 638.035 1096.86 637.662 1096.41 637.406C1095.96 637.139 1095.46 637.006 1094.92 637.006C1094.37 637.006 1093.88 637.134 1093.43 637.39C1092.98 637.646 1092.62 638.019 1092.36 638.51C1092.09 639.001 1091.96 639.577 1091.96 640.238C1091.96 640.91 1092.09 641.497 1092.36 641.998C1092.62 642.489 1092.98 642.867 1093.43 643.134C1093.88 643.39 1094.37 643.518 1094.92 643.518C1095.46 643.518 1095.96 643.39 1096.41 643.134C1096.86 642.867 1097.23 642.489 1097.49 641.998C1097.76 641.497 1097.89 640.915 1097.89 640.254ZM1109.38 635.886L1104.1 648.782H1102.59L1104.32 644.558L1100.79 635.886H1102.4L1105.15 642.99L1107.87 635.886H1109.38ZM1114.69 643.486C1116.05 642.398 1117.11 641.507 1117.88 640.814C1118.64 640.11 1119.29 639.379 1119.81 638.622C1120.34 637.854 1120.61 637.102 1120.61 636.366C1120.61 635.673 1120.44 635.129 1120.1 634.734C1119.77 634.329 1119.23 634.126 1118.48 634.126C1117.76 634.126 1117.19 634.355 1116.79 634.814C1116.39 635.262 1116.18 635.865 1116.15 636.622H1114.74C1114.78 635.427 1115.14 634.505 1115.83 633.854C1116.51 633.203 1117.39 632.878 1118.47 632.878C1119.57 632.878 1120.44 633.182 1121.08 633.79C1121.73 634.398 1122.05 635.235 1122.05 636.302C1122.05 637.187 1121.78 638.051 1121.25 638.894C1120.73 639.726 1120.13 640.462 1119.46 641.102C1118.79 641.731 1117.93 642.467 1116.88 643.31H1122.39V644.526H1114.69V643.486ZM1126.18 638.638C1125.58 638.403 1125.13 638.062 1124.81 637.614C1124.49 637.166 1124.33 636.622 1124.33 635.982C1124.33 635.406 1124.47 634.889 1124.76 634.43C1125.05 633.961 1125.47 633.593 1126.04 633.326C1126.61 633.049 1127.31 632.91 1128.12 632.91C1128.93 632.91 1129.62 633.049 1130.18 633.326C1130.76 633.593 1131.19 633.961 1131.48 634.43C1131.78 634.889 1131.93 635.406 1131.93 635.982C1131.93 636.601 1131.76 637.145 1131.43 637.614C1131.1 638.073 1130.65 638.414 1130.07 638.638C1130.73 638.841 1131.25 639.198 1131.64 639.71C1132.03 640.211 1132.23 640.819 1132.23 641.534C1132.23 642.227 1132.06 642.835 1131.72 643.358C1131.38 643.87 1130.89 644.27 1130.26 644.558C1129.64 644.835 1128.93 644.974 1128.12 644.974C1127.31 644.974 1126.59 644.835 1125.97 644.558C1125.37 644.27 1124.89 643.87 1124.55 643.358C1124.21 642.835 1124.04 642.227 1124.04 641.534C1124.04 640.819 1124.23 640.206 1124.61 639.694C1125 639.182 1125.52 638.83 1126.18 638.638ZM1130.52 636.158C1130.52 635.507 1130.3 635.006 1129.88 634.654C1129.45 634.302 1128.86 634.126 1128.12 634.126C1127.38 634.126 1126.8 634.302 1126.37 634.654C1125.95 635.006 1125.73 635.513 1125.73 636.174C1125.73 636.771 1125.95 637.251 1126.39 637.614C1126.84 637.977 1127.41 638.158 1128.12 638.158C1128.83 638.158 1129.41 637.977 1129.85 637.614C1130.29 637.241 1130.52 636.755 1130.52 636.158ZM1128.12 639.278C1127.33 639.278 1126.68 639.465 1126.18 639.838C1125.68 640.201 1125.43 640.75 1125.43 641.486C1125.43 642.169 1125.67 642.718 1126.15 643.134C1126.64 643.55 1127.3 643.758 1128.12 643.758C1128.94 643.758 1129.59 643.55 1130.07 643.134C1130.55 642.718 1130.79 642.169 1130.79 641.486C1130.79 640.771 1130.54 640.227 1130.05 639.854C1129.56 639.47 1128.92 639.278 1128.12 639.278ZM1135.91 642.638L1134.12 646.942H1133.14L1134.31 642.638H1135.91ZM1141.43 643.486C1142.78 642.398 1143.84 641.507 1144.61 640.814C1145.38 640.11 1146.02 639.379 1146.55 638.622C1147.08 637.854 1147.35 637.102 1147.35 636.366C1147.35 635.673 1147.17 635.129 1146.83 634.734C1146.5 634.329 1145.96 634.126 1145.22 634.126C1144.49 634.126 1143.93 634.355 1143.52 634.814C1143.13 635.262 1142.91 635.865 1142.88 636.622H1141.47C1141.52 635.427 1141.88 634.505 1142.56 633.854C1143.24 633.203 1144.12 632.878 1145.2 632.878C1146.3 632.878 1147.17 633.182 1147.81 633.79C1148.46 634.398 1148.79 635.235 1148.79 636.302C1148.79 637.187 1148.52 638.051 1147.99 638.894C1147.46 639.726 1146.87 640.462 1146.19 641.102C1145.52 641.731 1144.66 642.467 1143.62 643.31H1149.12V644.526H1141.43V643.486ZM1150.8 638.75C1150.8 636.915 1151.1 635.486 1151.7 634.462C1152.3 633.427 1153.34 632.91 1154.84 632.91C1156.32 632.91 1157.36 633.427 1157.96 634.462C1158.55 635.486 1158.85 636.915 1158.85 638.75C1158.85 640.617 1158.55 642.067 1157.96 643.102C1157.36 644.137 1156.32 644.654 1154.84 644.654C1153.34 644.654 1152.3 644.137 1151.7 643.102C1151.1 642.067 1150.8 640.617 1150.8 638.75ZM1157.41 638.75C1157.41 637.822 1157.35 637.038 1157.22 636.398C1157.1 635.747 1156.85 635.225 1156.47 634.83C1156.1 634.435 1155.55 634.238 1154.84 634.238C1154.11 634.238 1153.56 634.435 1153.17 634.83C1152.8 635.225 1152.55 635.747 1152.42 636.398C1152.3 637.038 1152.24 637.822 1152.24 638.75C1152.24 639.71 1152.3 640.515 1152.42 641.166C1152.55 641.817 1152.8 642.339 1153.17 642.734C1153.56 643.129 1154.11 643.326 1154.84 643.326C1155.55 643.326 1156.1 643.129 1156.47 642.734C1156.85 642.339 1157.1 641.817 1157.22 641.166C1157.35 640.515 1157.41 639.71 1157.41 638.75ZM1160.68 643.486C1162.03 642.398 1163.09 641.507 1163.86 640.814C1164.63 640.11 1165.27 639.379 1165.8 638.622C1166.33 637.854 1166.6 637.102 1166.6 636.366C1166.6 635.673 1166.42 635.129 1166.08 634.734C1165.75 634.329 1165.21 634.126 1164.47 634.126C1163.74 634.126 1163.18 634.355 1162.77 634.814C1162.38 635.262 1162.16 635.865 1162.13 636.622H1160.72C1160.77 635.427 1161.13 634.505 1161.81 633.854C1162.49 633.203 1163.37 632.878 1164.45 632.878C1165.55 632.878 1166.42 633.182 1167.06 633.79C1167.71 634.398 1168.04 635.235 1168.04 636.302C1168.04 637.187 1167.77 638.051 1167.24 638.894C1166.71 639.726 1166.12 640.462 1165.44 641.102C1164.77 641.731 1163.91 642.467 1162.87 643.31H1168.37V644.526H1160.68V643.486ZM1169.88 643.486C1171.23 642.398 1172.29 641.507 1173.06 640.814C1173.83 640.11 1174.48 639.379 1175 638.622C1175.53 637.854 1175.8 637.102 1175.8 636.366C1175.8 635.673 1175.63 635.129 1175.29 634.734C1174.96 634.329 1174.42 634.126 1173.67 634.126C1172.95 634.126 1172.38 634.355 1171.97 634.814C1171.58 635.262 1171.37 635.865 1171.33 636.622H1169.93C1169.97 635.427 1170.33 634.505 1171.01 633.854C1171.7 633.203 1172.58 632.878 1173.65 632.878C1174.75 632.878 1175.62 633.182 1176.26 633.79C1176.91 634.398 1177.24 635.235 1177.24 636.302C1177.24 637.187 1176.97 638.051 1176.44 638.894C1175.92 639.726 1175.32 640.462 1174.65 641.102C1173.97 641.731 1173.12 642.467 1172.07 643.31H1177.57V644.526H1169.88V643.486Z" fill="#363A42"/>
<circle cx="1015.33" cy="213.327" r="18.327" fill="#1C5DCD" fill-opacity="0.25"/>
<circle cx="1015.33" cy="213.327" r="13.7452" fill="#1C5DCD"/>
<path d="M1092.7 187.808H1086.03L1084.93 191H1081.4L1087.42 174.224H1091.34L1097.36 191H1093.81L1092.7 187.808ZM1091.79 185.12L1089.37 178.112L1086.94 185.12H1091.79ZM1113.94 191H1110.58L1102.97 179.504V191H1099.61V174.224H1102.97L1110.58 185.744V174.224H1113.94V191ZM1123.12 174.248C1124.88 174.248 1126.42 174.592 1127.75 175.28C1129.09 175.968 1130.12 176.952 1130.84 178.232C1131.58 179.496 1131.95 180.968 1131.95 182.648C1131.95 184.328 1131.58 185.8 1130.84 187.064C1130.12 188.312 1129.09 189.28 1127.75 189.968C1126.42 190.656 1124.88 191 1123.12 191H1117.26V174.248H1123.12ZM1123 188.144C1124.76 188.144 1126.12 187.664 1127.08 186.704C1128.04 185.744 1128.52 184.392 1128.52 182.648C1128.52 180.904 1128.04 179.544 1127.08 178.568C1126.12 177.576 1124.76 177.08 1123 177.08H1120.62V188.144H1123ZM1143.1 191L1139.41 184.472H1137.82V191H1134.46V174.248H1140.75C1142.05 174.248 1143.15 174.48 1144.06 174.944C1144.97 175.392 1145.65 176.008 1146.1 176.792C1146.57 177.56 1146.8 178.424 1146.8 179.384C1146.8 180.488 1146.48 181.488 1145.84 182.384C1145.2 183.264 1144.25 183.872 1142.98 184.208L1146.99 191H1143.1ZM1137.82 181.952H1140.63C1141.54 181.952 1142.22 181.736 1142.67 181.304C1143.12 180.856 1143.34 180.24 1143.34 179.456C1143.34 178.688 1143.12 178.096 1142.67 177.68C1142.22 177.248 1141.54 177.032 1140.63 177.032H1137.82V181.952ZM1157.61 191.168C1156.05 191.168 1154.61 190.8 1153.29 190.064C1151.98 189.328 1150.94 188.312 1150.17 187.016C1149.41 185.704 1149.02 184.224 1149.02 182.576C1149.02 180.944 1149.41 179.48 1150.17 178.184C1150.94 176.872 1151.98 175.848 1153.29 175.112C1154.61 174.376 1156.05 174.008 1157.61 174.008C1159.2 174.008 1160.64 174.376 1161.93 175.112C1163.25 175.848 1164.28 176.872 1165.03 178.184C1165.8 179.48 1166.18 180.944 1166.18 182.576C1166.18 184.224 1165.8 185.704 1165.03 187.016C1164.28 188.312 1163.25 189.328 1161.93 190.064C1160.62 190.8 1159.18 191.168 1157.61 191.168ZM1157.61 188.168C1158.62 188.168 1159.51 187.944 1160.28 187.496C1161.05 187.032 1161.65 186.376 1162.08 185.528C1162.51 184.68 1162.73 183.696 1162.73 182.576C1162.73 181.456 1162.51 180.48 1162.08 179.648C1161.65 178.8 1161.05 178.152 1160.28 177.704C1159.51 177.256 1158.62 177.032 1157.61 177.032C1156.61 177.032 1155.71 177.256 1154.93 177.704C1154.16 178.152 1153.56 178.8 1153.13 179.648C1152.69 180.48 1152.48 181.456 1152.48 182.576C1152.48 183.696 1152.69 184.68 1153.13 185.528C1153.56 186.376 1154.16 187.032 1154.93 187.496C1155.71 187.944 1156.61 188.168 1157.61 188.168ZM1172.04 174.248V191H1168.68V174.248H1172.04ZM1181.22 174.248C1182.98 174.248 1184.52 174.592 1185.85 175.28C1187.19 175.968 1188.23 176.952 1188.95 178.232C1189.68 179.496 1190.05 180.968 1190.05 182.648C1190.05 184.328 1189.68 185.8 1188.95 187.064C1188.23 188.312 1187.19 189.28 1185.85 189.968C1184.52 190.656 1182.98 191 1181.22 191H1175.36V174.248H1181.22ZM1181.1 188.144C1182.86 188.144 1184.22 187.664 1185.18 186.704C1186.14 185.744 1186.62 184.392 1186.62 182.648C1186.62 180.904 1186.14 179.544 1185.18 178.568C1184.22 177.576 1182.86 177.08 1181.1 177.08H1178.72V188.144H1181.1ZM1196.24 187.472L1193.43 194.216H1191.27L1192.83 187.472H1196.24ZM1210.23 174.248C1211.99 174.248 1213.54 174.592 1214.86 175.28C1216.21 175.968 1217.24 176.952 1217.96 178.232C1218.7 179.496 1219.06 180.968 1219.06 182.648C1219.06 184.328 1218.7 185.8 1217.96 187.064C1217.24 188.312 1216.21 189.28 1214.86 189.968C1213.54 190.656 1211.99 191 1210.23 191H1204.38V174.248H1210.23ZM1210.11 188.144C1211.87 188.144 1213.23 187.664 1214.19 186.704C1215.15 185.744 1215.63 184.392 1215.63 182.648C1215.63 180.904 1215.15 179.544 1214.19 178.568C1213.23 177.576 1211.87 177.08 1210.11 177.08H1207.74V188.144H1210.11ZM1224.94 176.96V181.16H1230.58V183.824H1224.94V188.264H1231.3V191H1221.58V174.224H1231.3V176.96H1224.94ZM1237.71 176.96V181.16H1243.35V183.824H1237.71V188.264H1244.07V191H1234.35V174.224H1244.07V176.96H1237.71ZM1259.34 179.432C1259.34 180.328 1259.13 181.168 1258.69 181.952C1258.28 182.736 1257.61 183.368 1256.7 183.848C1255.81 184.328 1254.67 184.568 1253.29 184.568H1250.49V191H1247.13V174.248H1253.29C1254.59 174.248 1255.69 174.472 1256.61 174.92C1257.52 175.368 1258.2 175.984 1258.65 176.768C1259.11 177.552 1259.34 178.44 1259.34 179.432ZM1253.15 181.856C1254.08 181.856 1254.77 181.648 1255.21 181.232C1255.66 180.8 1255.89 180.2 1255.89 179.432C1255.89 177.8 1254.97 176.984 1253.15 176.984H1250.49V181.856H1253.15ZM1270.81 188.336H1276.33V191H1267.45V174.248H1270.81V188.336ZM1281.82 176.96V181.16H1287.46V183.824H1281.82V188.264H1288.18V191H1278.46V174.224H1288.18V176.96H1281.82ZM1301.51 187.808H1294.84L1293.73 191H1290.2L1296.23 174.224H1300.14L1306.16 191H1302.61L1301.51 187.808ZM1300.6 185.12L1298.17 178.112L1295.75 185.12H1300.6ZM1317.06 191L1313.36 184.472H1311.78V191H1308.42V174.248H1314.7C1316 174.248 1317.1 174.48 1318.02 174.944C1318.93 175.392 1319.61 176.008 1320.06 176.792C1320.52 177.56 1320.75 178.424 1320.75 179.384C1320.75 180.488 1320.43 181.488 1319.79 182.384C1319.15 183.264 1318.2 183.872 1316.94 184.208L1320.94 191H1317.06ZM1311.78 181.952H1314.58C1315.5 181.952 1316.18 181.736 1316.62 181.304C1317.07 180.856 1317.3 180.24 1317.3 179.456C1317.3 178.688 1317.07 178.096 1316.62 177.68C1316.18 177.248 1315.5 177.032 1314.58 177.032H1311.78V181.952ZM1338.12 191H1334.76L1327.15 179.504V191H1323.79V174.224H1327.15L1334.76 185.744V174.224H1338.12V191ZM1344.8 174.248V191H1341.44V174.248H1344.8ZM1362.45 191H1359.09L1351.48 179.504V191H1348.12V174.224H1351.48L1359.09 185.744V174.224H1362.45V191ZM1377.43 179.288C1377.05 178.584 1376.52 178.048 1375.85 177.68C1375.18 177.312 1374.39 177.128 1373.5 177.128C1372.5 177.128 1371.62 177.352 1370.86 177.8C1370.09 178.248 1369.49 178.888 1369.06 179.72C1368.62 180.552 1368.41 181.512 1368.41 182.6C1368.41 183.72 1368.62 184.696 1369.06 185.528C1369.5 186.36 1370.12 187 1370.9 187.448C1371.69 187.896 1372.6 188.12 1373.64 188.12C1374.92 188.12 1375.97 187.784 1376.78 187.112C1377.6 186.424 1378.14 185.472 1378.39 184.256H1372.63V181.688H1381.7V184.616C1381.48 185.784 1381 186.864 1380.26 187.856C1379.53 188.848 1378.58 189.648 1377.41 190.256C1376.26 190.848 1374.96 191.144 1373.52 191.144C1371.9 191.144 1370.44 190.784 1369.13 190.064C1367.83 189.328 1366.81 188.312 1366.06 187.016C1365.32 185.72 1364.95 184.248 1364.95 182.6C1364.95 180.952 1365.32 179.48 1366.06 178.184C1366.81 176.872 1367.83 175.856 1369.13 175.136C1370.44 174.4 1371.9 174.032 1373.5 174.032C1375.38 174.032 1377.02 174.496 1378.42 175.424C1379.81 176.336 1380.77 177.624 1381.3 179.288H1377.43ZM1185.71 210.248L1181.03 227H1177.07L1173.92 215.072L1170.63 227L1166.7 227.024L1162.19 210.248H1165.79L1168.74 223.256L1172.15 210.248H1175.89L1179.11 223.184L1182.08 210.248H1185.71ZM1195.68 227.168C1194.11 227.168 1192.67 226.8 1191.36 226.064C1190.04 225.328 1189 224.312 1188.24 223.016C1187.47 221.704 1187.08 220.224 1187.08 218.576C1187.08 216.944 1187.47 215.48 1188.24 214.184C1189 212.872 1190.04 211.848 1191.36 211.112C1192.67 210.376 1194.11 210.008 1195.68 210.008C1197.26 210.008 1198.7 210.376 1200 211.112C1201.31 211.848 1202.34 212.872 1203.09 214.184C1203.86 215.48 1204.24 216.944 1204.24 218.576C1204.24 220.224 1203.86 221.704 1203.09 223.016C1202.34 224.312 1201.31 225.328 1200 226.064C1198.68 226.8 1197.24 227.168 1195.68 227.168ZM1195.68 224.168C1196.68 224.168 1197.57 223.944 1198.34 223.496C1199.11 223.032 1199.71 222.376 1200.14 221.528C1200.57 220.68 1200.79 219.696 1200.79 218.576C1200.79 217.456 1200.57 216.48 1200.14 215.648C1199.71 214.8 1199.11 214.152 1198.34 213.704C1197.57 213.256 1196.68 213.032 1195.68 213.032C1194.67 213.032 1193.77 213.256 1192.99 213.704C1192.22 214.152 1191.62 214.8 1191.19 215.648C1190.76 216.48 1190.54 217.456 1190.54 218.576C1190.54 219.696 1190.76 220.68 1191.19 221.528C1191.62 222.376 1192.22 223.032 1192.99 223.496C1193.77 223.944 1194.67 224.168 1195.68 224.168ZM1215.38 227L1211.69 220.472H1210.1V227H1206.74V210.248H1213.03C1214.33 210.248 1215.43 210.48 1216.34 210.944C1217.26 211.392 1217.94 212.008 1218.38 212.792C1218.85 213.56 1219.08 214.424 1219.08 215.384C1219.08 216.488 1218.76 217.488 1218.12 218.384C1217.48 219.264 1216.53 219.872 1215.26 220.208L1219.27 227H1215.38ZM1210.1 217.952H1212.91C1213.82 217.952 1214.5 217.736 1214.95 217.304C1215.4 216.856 1215.62 216.24 1215.62 215.456C1215.62 214.688 1215.4 214.096 1214.95 213.68C1214.5 213.248 1213.82 213.032 1212.91 213.032H1210.1V217.952ZM1231.57 227L1225.48 219.536V227H1222.12V210.248H1225.48V217.76L1231.57 210.248H1235.63L1228.72 218.552L1235.82 227H1231.57ZM1243.82 227.168C1242.65 227.168 1241.59 226.968 1240.65 226.568C1239.72 226.168 1238.98 225.592 1238.44 224.84C1237.9 224.088 1237.62 223.2 1237.6 222.176H1241.2C1241.25 222.864 1241.49 223.408 1241.92 223.808C1242.37 224.208 1242.98 224.408 1243.74 224.408C1244.53 224.408 1245.14 224.224 1245.59 223.856C1246.04 223.472 1246.26 222.976 1246.26 222.368C1246.26 221.872 1246.11 221.464 1245.81 221.144C1245.5 220.824 1245.12 220.576 1244.66 220.4C1244.21 220.208 1243.58 220 1242.78 219.776C1241.7 219.456 1240.81 219.144 1240.12 218.84C1239.45 218.52 1238.86 218.048 1238.37 217.424C1237.89 216.784 1237.65 215.936 1237.65 214.88C1237.65 213.888 1237.9 213.024 1238.39 212.288C1238.89 211.552 1239.58 210.992 1240.48 210.608C1241.38 210.208 1242.4 210.008 1243.55 210.008C1245.28 210.008 1246.68 210.432 1247.75 211.28C1248.84 212.112 1249.44 213.28 1249.55 214.784H1245.86C1245.82 214.208 1245.58 213.736 1245.11 213.368C1244.66 212.984 1244.06 212.792 1243.31 212.792C1242.66 212.792 1242.13 212.96 1241.73 213.296C1241.34 213.632 1241.15 214.12 1241.15 214.76C1241.15 215.208 1241.3 215.584 1241.58 215.888C1241.89 216.176 1242.26 216.416 1242.69 216.608C1243.14 216.784 1243.76 216.992 1244.56 217.232C1245.65 217.552 1246.54 217.872 1247.22 218.192C1247.91 218.512 1248.5 218.992 1249 219.632C1249.5 220.272 1249.74 221.112 1249.74 222.152C1249.74 223.048 1249.51 223.88 1249.05 224.648C1248.58 225.416 1247.9 226.032 1247.01 226.496C1246.11 226.944 1245.05 227.168 1243.82 227.168ZM1266.55 210.248V227H1263.19V219.872H1256.02V227H1252.66V210.248H1256.02V217.136H1263.19V210.248H1266.55ZM1277.64 227.168C1276.07 227.168 1274.63 226.8 1273.32 226.064C1272.01 225.328 1270.97 224.312 1270.2 223.016C1269.43 221.704 1269.05 220.224 1269.05 218.576C1269.05 216.944 1269.43 215.48 1270.2 214.184C1270.97 212.872 1272.01 211.848 1273.32 211.112C1274.63 210.376 1276.07 210.008 1277.64 210.008C1279.22 210.008 1280.66 210.376 1281.96 211.112C1283.27 211.848 1284.3 212.872 1285.05 214.184C1285.82 215.48 1286.21 216.944 1286.21 218.576C1286.21 220.224 1285.82 221.704 1285.05 223.016C1284.3 224.312 1283.27 225.328 1281.96 226.064C1280.65 226.8 1279.21 227.168 1277.64 227.168ZM1277.64 224.168C1278.65 224.168 1279.53 223.944 1280.3 223.496C1281.07 223.032 1281.67 222.376 1282.1 221.528C1282.53 220.68 1282.75 219.696 1282.75 218.576C1282.75 217.456 1282.53 216.48 1282.1 215.648C1281.67 214.8 1281.07 214.152 1280.3 213.704C1279.53 213.256 1278.65 213.032 1277.64 213.032C1276.63 213.032 1275.73 213.256 1274.95 213.704C1274.18 214.152 1273.58 214.8 1273.15 215.648C1272.72 216.48 1272.5 217.456 1272.5 218.576C1272.5 219.696 1272.72 220.68 1273.15 221.528C1273.58 222.376 1274.18 223.032 1274.95 223.496C1275.73 223.944 1276.63 224.168 1277.64 224.168ZM1300.92 215.432C1300.92 216.328 1300.7 217.168 1300.27 217.952C1299.86 218.736 1299.19 219.368 1298.28 219.848C1297.38 220.328 1296.25 220.568 1294.87 220.568H1292.06V227H1288.7V210.248H1294.87C1296.17 210.248 1297.27 210.472 1298.18 210.92C1299.1 211.368 1299.78 211.984 1300.22 212.768C1300.69 213.552 1300.92 214.44 1300.92 215.432ZM1294.73 217.856C1295.66 217.856 1296.34 217.648 1296.79 217.232C1297.24 216.8 1297.46 216.2 1297.46 215.432C1297.46 213.8 1296.55 212.984 1294.73 212.984H1292.06V217.856H1294.73Z" fill="#1C5DCD"/>
<path d="M1192.54 243.928V255H1191.09V246.744L1187.41 255H1186.38L1182.69 246.728V255H1181.23V243.928H1182.8L1186.9 253.08L1190.99 243.928H1192.54ZM1194.47 250.584C1194.47 249.688 1194.65 248.904 1195.01 248.232C1195.38 247.549 1195.87 247.021 1196.5 246.648C1197.14 246.275 1197.85 246.088 1198.63 246.088C1199.4 246.088 1200.06 246.253 1200.63 246.584C1201.19 246.915 1201.62 247.331 1201.89 247.832V246.232H1203.37V255H1201.89V253.368C1201.61 253.88 1201.17 254.307 1200.6 254.648C1200.03 254.979 1199.37 255.144 1198.61 255.144C1197.83 255.144 1197.13 254.952 1196.5 254.568C1195.87 254.184 1195.38 253.645 1195.01 252.952C1194.65 252.259 1194.47 251.469 1194.47 250.584ZM1201.89 250.6C1201.89 249.939 1201.76 249.363 1201.49 248.872C1201.23 248.381 1200.86 248.008 1200.41 247.752C1199.96 247.485 1199.46 247.352 1198.92 247.352C1198.37 247.352 1197.88 247.48 1197.43 247.736C1196.98 247.992 1196.62 248.365 1196.36 248.856C1196.09 249.347 1195.96 249.923 1195.96 250.584C1195.96 251.256 1196.09 251.843 1196.36 252.344C1196.62 252.835 1196.98 253.213 1197.43 253.48C1197.88 253.736 1198.37 253.864 1198.92 253.864C1199.46 253.864 1199.96 253.736 1200.41 253.48C1200.86 253.213 1201.23 252.835 1201.49 252.344C1201.76 251.843 1201.89 251.261 1201.89 250.6ZM1213.38 246.232L1208.1 259.128H1206.59L1208.32 254.904L1204.79 246.232H1206.4L1209.15 253.336L1211.87 246.232H1213.38ZM1218.87 249.096C1218.87 247.261 1219.17 245.832 1219.76 244.808C1220.36 243.773 1221.41 243.256 1222.9 243.256C1224.38 243.256 1225.42 243.773 1226.02 244.808C1226.62 245.832 1226.91 247.261 1226.91 249.096C1226.91 250.963 1226.62 252.413 1226.02 253.448C1225.42 254.483 1224.38 255 1222.9 255C1221.41 255 1220.36 254.483 1219.76 253.448C1219.17 252.413 1218.87 250.963 1218.87 249.096ZM1225.48 249.096C1225.48 248.168 1225.41 247.384 1225.28 246.744C1225.17 246.093 1224.92 245.571 1224.53 245.176C1224.16 244.781 1223.61 244.584 1222.9 244.584C1222.17 244.584 1221.62 244.781 1221.24 245.176C1220.86 245.571 1220.61 246.093 1220.48 246.744C1220.37 247.384 1220.31 248.168 1220.31 249.096C1220.31 250.056 1220.37 250.861 1220.48 251.512C1220.61 252.163 1220.86 252.685 1221.24 253.08C1221.62 253.475 1222.17 253.672 1222.9 253.672C1223.61 253.672 1224.16 253.475 1224.53 253.08C1224.92 252.685 1225.17 252.163 1225.28 251.512C1225.41 250.861 1225.48 250.056 1225.48 249.096ZM1231.03 248.984C1230.43 248.749 1229.97 248.408 1229.65 247.96C1229.33 247.512 1229.17 246.968 1229.17 246.328C1229.17 245.752 1229.31 245.235 1229.6 244.776C1229.89 244.307 1230.32 243.939 1230.88 243.672C1231.46 243.395 1232.15 243.256 1232.96 243.256C1233.77 243.256 1234.46 243.395 1235.03 243.672C1235.6 243.939 1236.03 244.307 1236.32 244.776C1236.62 245.235 1236.77 245.752 1236.77 246.328C1236.77 246.947 1236.6 247.491 1236.27 247.96C1235.94 248.419 1235.49 248.76 1234.91 248.984C1235.58 249.187 1236.1 249.544 1236.48 250.056C1236.88 250.557 1237.07 251.165 1237.07 251.88C1237.07 252.573 1236.9 253.181 1236.56 253.704C1236.22 254.216 1235.74 254.616 1235.11 254.904C1234.49 255.181 1233.77 255.32 1232.96 255.32C1232.15 255.32 1231.44 255.181 1230.82 254.904C1230.21 254.616 1229.74 254.216 1229.39 253.704C1229.05 253.181 1228.88 252.573 1228.88 251.88C1228.88 251.165 1229.07 250.552 1229.46 250.04C1229.84 249.528 1230.36 249.176 1231.03 248.984ZM1235.36 246.504C1235.36 245.853 1235.15 245.352 1234.72 245C1234.3 244.648 1233.71 244.472 1232.96 244.472C1232.23 244.472 1231.64 244.648 1231.22 245C1230.79 245.352 1230.58 245.859 1230.58 246.52C1230.58 247.117 1230.8 247.597 1231.23 247.96C1231.68 248.323 1232.26 248.504 1232.96 248.504C1233.68 248.504 1234.25 248.323 1234.69 247.96C1235.14 247.587 1235.36 247.101 1235.36 246.504ZM1232.96 249.624C1232.17 249.624 1231.53 249.811 1231.03 250.184C1230.52 250.547 1230.27 251.096 1230.27 251.832C1230.27 252.515 1230.51 253.064 1230.99 253.48C1231.48 253.896 1232.14 254.104 1232.96 254.104C1233.78 254.104 1234.43 253.896 1234.91 253.48C1235.39 253.064 1235.63 252.515 1235.63 251.832C1235.63 251.117 1235.39 250.573 1234.9 250.2C1234.41 249.816 1233.76 249.624 1232.96 249.624ZM1240.75 252.984L1238.96 257.288H1237.98L1239.15 252.984H1240.75ZM1246.27 253.832C1247.62 252.744 1248.69 251.853 1249.45 251.16C1250.22 250.456 1250.87 249.725 1251.39 248.968C1251.92 248.2 1252.19 247.448 1252.19 246.712C1252.19 246.019 1252.02 245.475 1251.68 245.08C1251.35 244.675 1250.81 244.472 1250.06 244.472C1249.34 244.472 1248.77 244.701 1248.37 245.16C1247.97 245.608 1247.76 246.211 1247.73 246.968H1246.32C1246.36 245.773 1246.72 244.851 1247.41 244.2C1248.09 243.549 1248.97 243.224 1250.05 243.224C1251.14 243.224 1252.01 243.528 1252.65 244.136C1253.3 244.744 1253.63 245.581 1253.63 246.648C1253.63 247.533 1253.36 248.397 1252.83 249.24C1252.31 250.072 1251.71 250.808 1251.04 251.448C1250.37 252.077 1249.51 252.813 1248.46 253.656H1253.97V254.872H1246.27V253.832ZM1255.65 249.096C1255.65 247.261 1255.95 245.832 1256.54 244.808C1257.14 243.773 1258.19 243.256 1259.68 243.256C1261.16 243.256 1262.2 243.773 1262.8 244.808C1263.4 245.832 1263.7 247.261 1263.7 249.096C1263.7 250.963 1263.4 252.413 1262.8 253.448C1262.2 254.483 1261.16 255 1259.68 255C1258.19 255 1257.14 254.483 1256.54 253.448C1255.95 252.413 1255.65 250.963 1255.65 249.096ZM1262.26 249.096C1262.26 248.168 1262.19 247.384 1262.06 246.744C1261.95 246.093 1261.7 245.571 1261.31 245.176C1260.94 244.781 1260.39 244.584 1259.68 244.584C1258.95 244.584 1258.4 244.781 1258.02 245.176C1257.64 245.571 1257.39 246.093 1257.26 246.744C1257.15 247.384 1257.09 248.168 1257.09 249.096C1257.09 250.056 1257.15 250.861 1257.26 251.512C1257.39 252.163 1257.64 252.685 1258.02 253.08C1258.4 253.475 1258.95 253.672 1259.68 253.672C1260.39 253.672 1260.94 253.475 1261.31 253.08C1261.7 252.685 1261.95 252.163 1262.06 251.512C1262.19 250.861 1262.26 250.056 1262.26 249.096ZM1265.52 253.832C1266.87 252.744 1267.94 251.853 1268.7 251.16C1269.47 250.456 1270.12 249.725 1270.64 248.968C1271.17 248.2 1271.44 247.448 1271.44 246.712C1271.44 246.019 1271.27 245.475 1270.93 245.08C1270.6 244.675 1270.06 244.472 1269.31 244.472C1268.59 244.472 1268.02 244.701 1267.62 245.16C1267.22 245.608 1267.01 246.211 1266.98 246.968H1265.57C1265.61 245.773 1265.97 244.851 1266.66 244.2C1267.34 243.549 1268.22 243.224 1269.3 243.224C1270.39 243.224 1271.26 243.528 1271.9 244.136C1272.55 244.744 1272.88 245.581 1272.88 246.648C1272.88 247.533 1272.61 248.397 1272.08 249.24C1271.56 250.072 1270.96 250.808 1270.29 251.448C1269.62 252.077 1268.76 252.813 1267.71 253.656H1273.22V254.872H1265.52V253.832ZM1274.72 253.832C1276.08 252.744 1277.14 251.853 1277.91 251.16C1278.67 250.456 1279.32 249.725 1279.84 248.968C1280.38 248.2 1280.64 247.448 1280.64 246.712C1280.64 246.019 1280.47 245.475 1280.13 245.08C1279.8 244.675 1279.26 244.472 1278.51 244.472C1277.79 244.472 1277.22 244.701 1276.82 245.16C1276.42 245.608 1276.21 246.211 1276.18 246.968H1274.77C1274.81 245.773 1275.18 244.851 1275.86 244.2C1276.54 243.549 1277.42 243.224 1278.5 243.224C1279.6 243.224 1280.47 243.528 1281.11 244.136C1281.76 244.744 1282.08 245.581 1282.08 246.648C1282.08 247.533 1281.82 248.397 1281.28 249.24C1280.76 250.072 1280.16 250.808 1279.49 251.448C1278.82 252.077 1277.96 252.813 1276.91 253.656H1282.42V254.872H1274.72V253.832Z" fill="#363A42"/>
<circle cx="348.327" cy="432.327" r="18.327" fill="#1C5DCD" fill-opacity="0.25"/>
<circle cx="348.327" cy="432.327" r="13.7452" fill="#1C5DCD"/>
<path d="M11.16 419.408C12.104 419.584 12.88 420.056 13.488 420.824C14.096 421.592 14.4 422.472 14.4 423.464C14.4 424.36 14.176 425.152 13.728 425.84C13.296 426.512 12.664 427.04 11.832 427.424C11 427.808 10.016 428 8.88 428H1.656V411.248H8.568C9.704 411.248 10.68 411.432 11.496 411.8C12.328 412.168 12.952 412.68 13.368 413.336C13.8 413.992 14.016 414.736 14.016 415.568C14.016 416.544 13.752 417.36 13.224 418.016C12.712 418.672 12.024 419.136 11.16 419.408ZM5.016 418.16H8.088C8.888 418.16 9.504 417.984 9.936 417.632C10.368 417.264 10.584 416.744 10.584 416.072C10.584 415.4 10.368 414.88 9.936 414.512C9.504 414.144 8.888 413.96 8.088 413.96H5.016V418.16ZM8.4 425.264C9.216 425.264 9.848 425.072 10.296 424.688C10.76 424.304 10.992 423.76 10.992 423.056C10.992 422.336 10.752 421.776 10.272 421.376C9.792 420.96 9.144 420.752 8.328 420.752H5.016V425.264H8.4ZM27.3499 424.808H20.6779L19.5739 428H16.0459L22.0699 411.224H25.9819L32.0059 428H28.4539L27.3499 424.808ZM26.4379 422.12L24.0139 415.112L21.5899 422.12H26.4379ZM33.4416 419.6C33.4416 417.952 33.8096 416.48 34.5456 415.184C35.2976 413.872 36.3136 412.856 37.5936 412.136C38.8896 411.4 40.3376 411.032 41.9376 411.032C43.8096 411.032 45.4496 411.512 46.8576 412.472C48.2656 413.432 49.2496 414.76 49.8096 416.456H45.9456C45.5616 415.656 45.0176 415.056 44.3136 414.656C43.6256 414.256 42.8256 414.056 41.9136 414.056C40.9376 414.056 40.0656 414.288 39.2976 414.752C38.5456 415.2 37.9536 415.84 37.5216 416.672C37.1056 417.504 36.8976 418.48 36.8976 419.6C36.8976 420.704 37.1056 421.68 37.5216 422.528C37.9536 423.36 38.5456 424.008 39.2976 424.472C40.0656 424.92 40.9376 425.144 41.9136 425.144C42.8256 425.144 43.6256 424.944 44.3136 424.544C45.0176 424.128 45.5616 423.52 45.9456 422.72H49.8096C49.2496 424.432 48.2656 425.768 46.8576 426.728C45.4656 427.672 43.8256 428.144 41.9376 428.144C40.3376 428.144 38.8896 427.784 37.5936 427.064C36.3136 426.328 35.2976 425.312 34.5456 424.016C33.8096 422.72 33.4416 421.248 33.4416 419.6ZM62.1354 428L56.0394 420.536V428H52.6794V411.248H56.0394V418.76L62.1354 411.248H66.1914L59.2794 419.552L66.3834 428H62.1354ZM71.9535 413.96V418.16H77.5935V420.824H71.9535V425.264H78.3135V428H68.5935V411.224H78.3135V413.96H71.9535ZM95.6949 428H92.3349L84.7269 416.504V428H81.3669V411.224H84.7269L92.3349 422.744V411.224H95.6949V428ZM104.871 411.248C106.631 411.248 108.175 411.592 109.503 412.28C110.847 412.968 111.879 413.952 112.599 415.232C113.335 416.496 113.703 417.968 113.703 419.648C113.703 421.328 113.335 422.8 112.599 424.064C111.879 425.312 110.847 426.28 109.503 426.968C108.175 427.656 106.631 428 104.871 428H99.0154V411.248H104.871ZM104.751 425.144C106.511 425.144 107.871 424.664 108.831 423.704C109.791 422.744 110.271 421.392 110.271 419.648C110.271 417.904 109.791 416.544 108.831 415.568C107.871 414.576 106.511 414.08 104.751 414.08H102.375V425.144H104.751ZM119.891 424.472L117.083 431.216H114.923L116.483 424.472H119.891ZM138.303 424.808H131.631L130.527 428H126.999L133.023 411.224H136.935L142.959 428H139.407L138.303 424.808ZM137.391 422.12L134.967 415.112L132.543 422.12H137.391ZM153.851 428L150.155 421.472H148.571V428H145.211V411.248H151.499C152.795 411.248 153.899 411.48 154.811 411.944C155.723 412.392 156.403 413.008 156.851 413.792C157.315 414.56 157.547 415.424 157.547 416.384C157.547 417.488 157.227 418.488 156.587 419.384C155.947 420.264 154.995 420.872 153.731 421.208L157.739 428H153.851ZM148.571 418.952H151.379C152.291 418.952 152.971 418.736 153.419 418.304C153.867 417.856 154.091 417.24 154.091 416.456C154.091 415.688 153.867 415.096 153.419 414.68C152.971 414.248 152.291 414.032 151.379 414.032H148.571V418.952ZM188.696 411.248L184.016 428H180.056L176.912 416.072L173.624 428L169.688 428.024L165.176 411.248H168.776L171.728 424.256L175.136 411.248H178.88L182.096 424.184L185.072 411.248H188.696ZM198.666 428.168C197.098 428.168 195.658 427.8 194.346 427.064C193.034 426.328 191.994 425.312 191.226 424.016C190.458 422.704 190.074 421.224 190.074 419.576C190.074 417.944 190.458 416.48 191.226 415.184C191.994 413.872 193.034 412.848 194.346 412.112C195.658 411.376 197.098 411.008 198.666 411.008C200.25 411.008 201.69 411.376 202.986 412.112C204.298 412.848 205.33 413.872 206.082 415.184C206.85 416.48 207.234 417.944 207.234 419.576C207.234 421.224 206.85 422.704 206.082 424.016C205.33 425.312 204.298 426.328 202.986 427.064C201.674 427.8 200.234 428.168 198.666 428.168ZM198.666 425.168C199.674 425.168 200.562 424.944 201.33 424.496C202.098 424.032 202.698 423.376 203.13 422.528C203.562 421.68 203.778 420.696 203.778 419.576C203.778 418.456 203.562 417.48 203.13 416.648C202.698 415.8 202.098 415.152 201.33 414.704C200.562 414.256 199.674 414.032 198.666 414.032C197.658 414.032 196.762 414.256 195.978 414.704C195.21 415.152 194.61 415.8 194.178 416.648C193.746 417.48 193.53 418.456 193.53 419.576C193.53 420.696 193.746 421.68 194.178 422.528C194.61 423.376 195.21 424.032 195.978 424.496C196.762 424.944 197.658 425.168 198.666 425.168ZM218.374 428L214.678 421.472H213.094V428H209.734V411.248H216.022C217.318 411.248 218.422 411.48 219.334 411.944C220.246 412.392 220.926 413.008 221.374 413.792C221.838 414.56 222.07 415.424 222.07 416.384C222.07 417.488 221.75 418.488 221.11 419.384C220.47 420.264 219.518 420.872 218.254 421.208L222.262 428H218.374ZM213.094 418.952H215.902C216.814 418.952 217.494 418.736 217.942 418.304C218.39 417.856 218.614 417.24 218.614 416.456C218.614 415.688 218.39 415.096 217.942 414.68C217.494 414.248 216.814 414.032 215.902 414.032H213.094V418.952ZM234.565 428L228.469 420.536V428H225.109V411.248H228.469V418.76L234.565 411.248H238.621L231.709 419.552L238.813 428H234.565ZM246.807 428.168C245.639 428.168 244.583 427.968 243.639 427.568C242.711 427.168 241.975 426.592 241.431 425.84C240.887 425.088 240.607 424.2 240.591 423.176H244.191C244.239 423.864 244.479 424.408 244.911 424.808C245.359 425.208 245.967 425.408 246.735 425.408C247.519 425.408 248.135 425.224 248.583 424.856C249.031 424.472 249.255 423.976 249.255 423.368C249.255 422.872 249.103 422.464 248.799 422.144C248.495 421.824 248.111 421.576 247.647 421.4C247.199 421.208 246.575 421 245.775 420.776C244.687 420.456 243.799 420.144 243.111 419.84C242.439 419.52 241.855 419.048 241.359 418.424C240.879 417.784 240.639 416.936 240.639 415.88C240.639 414.888 240.887 414.024 241.383 413.288C241.879 412.552 242.575 411.992 243.471 411.608C244.367 411.208 245.391 411.008 246.543 411.008C248.271 411.008 249.671 411.432 250.743 412.28C251.831 413.112 252.431 414.28 252.543 415.784H248.847C248.815 415.208 248.567 414.736 248.103 414.368C247.655 413.984 247.055 413.792 246.303 413.792C245.647 413.792 245.119 413.96 244.719 414.296C244.335 414.632 244.143 415.12 244.143 415.76C244.143 416.208 244.287 416.584 244.575 416.888C244.879 417.176 245.247 417.416 245.679 417.608C246.127 417.784 246.751 417.992 247.551 418.232C248.639 418.552 249.527 418.872 250.215 419.192C250.903 419.512 251.495 419.992 251.991 420.632C252.487 421.272 252.735 422.112 252.735 423.152C252.735 424.048 252.503 424.88 252.039 425.648C251.575 426.416 250.895 427.032 249.999 427.496C249.103 427.944 248.039 428.168 246.807 428.168ZM269.544 411.248V428H266.184V420.872H259.008V428H255.648V411.248H259.008V418.136H266.184V411.248H269.544ZM280.627 428.168C279.059 428.168 277.619 427.8 276.307 427.064C274.995 426.328 273.955 425.312 273.187 424.016C272.419 422.704 272.035 421.224 272.035 419.576C272.035 417.944 272.419 416.48 273.187 415.184C273.955 413.872 274.995 412.848 276.307 412.112C277.619 411.376 279.059 411.008 280.627 411.008C282.211 411.008 283.651 411.376 284.947 412.112C286.259 412.848 287.291 413.872 288.043 415.184C288.811 416.48 289.195 417.944 289.195 419.576C289.195 421.224 288.811 422.704 288.043 424.016C287.291 425.312 286.259 426.328 284.947 427.064C283.635 427.8 282.195 428.168 280.627 428.168ZM280.627 425.168C281.635 425.168 282.523 424.944 283.291 424.496C284.059 424.032 284.659 423.376 285.091 422.528C285.523 421.68 285.739 420.696 285.739 419.576C285.739 418.456 285.523 417.48 285.091 416.648C284.659 415.8 284.059 415.152 283.291 414.704C282.523 414.256 281.635 414.032 280.627 414.032C279.619 414.032 278.723 414.256 277.939 414.704C277.171 415.152 276.571 415.8 276.139 416.648C275.707 417.48 275.491 418.456 275.491 419.576C275.491 420.696 275.707 421.68 276.139 422.528C276.571 423.376 277.171 424.032 277.939 424.496C278.723 424.944 279.619 425.168 280.627 425.168ZM303.911 416.432C303.911 417.328 303.695 418.168 303.263 418.952C302.847 419.736 302.183 420.368 301.271 420.848C300.375 421.328 299.239 421.568 297.863 421.568H295.055V428H291.695V411.248H297.863C299.159 411.248 300.263 411.472 301.175 411.92C302.087 412.368 302.767 412.984 303.215 413.768C303.679 414.552 303.911 415.44 303.911 416.432ZM297.719 418.856C298.647 418.856 299.335 418.648 299.783 418.232C300.231 417.8 300.455 417.2 300.455 416.432C300.455 414.8 299.543 413.984 297.719 413.984H295.055V418.856H297.719Z" fill="#1C5DCD"/>
<path d="M115.544 444.582V455.654H114.088V447.398L110.408 455.654H109.384L105.688 447.382V455.654H104.232V444.582H105.8L109.896 453.734L113.992 444.582H115.544ZM117.469 451.238C117.469 450.342 117.651 449.558 118.013 448.886C118.376 448.203 118.872 447.675 119.501 447.302C120.141 446.929 120.851 446.742 121.629 446.742C122.397 446.742 123.064 446.907 123.629 447.238C124.195 447.569 124.616 447.985 124.893 448.486V446.886H126.365V455.654H124.893V454.022C124.605 454.534 124.173 454.961 123.597 455.302C123.032 455.633 122.371 455.798 121.613 455.798C120.835 455.798 120.131 455.606 119.501 455.222C118.872 454.838 118.376 454.299 118.013 453.606C117.651 452.913 117.469 452.123 117.469 451.238ZM124.893 451.254C124.893 450.593 124.76 450.017 124.493 449.526C124.227 449.035 123.864 448.662 123.405 448.406C122.957 448.139 122.461 448.006 121.917 448.006C121.373 448.006 120.877 448.134 120.429 448.39C119.981 448.646 119.624 449.019 119.357 449.51C119.091 450.001 118.957 450.577 118.957 451.238C118.957 451.91 119.091 452.497 119.357 452.998C119.624 453.489 119.981 453.867 120.429 454.134C120.877 454.39 121.373 454.518 121.917 454.518C122.461 454.518 122.957 454.39 123.405 454.134C123.864 453.867 124.227 453.489 124.493 452.998C124.76 452.497 124.893 451.915 124.893 451.254ZM136.378 446.886L131.098 459.782H129.594L131.322 455.558L127.786 446.886H129.402L132.154 453.99L134.874 446.886H136.378ZM141.483 445.414V444.086H144.491V455.654H143.019V445.414H141.483ZM154.368 445.35H148.752V448.998C148.997 448.657 149.36 448.379 149.84 448.166C150.32 447.942 150.837 447.83 151.392 447.83C152.277 447.83 152.997 448.017 153.552 448.39C154.107 448.753 154.501 449.227 154.736 449.814C154.981 450.39 155.104 451.003 155.104 451.654C155.104 452.422 154.96 453.11 154.672 453.718C154.384 454.326 153.941 454.806 153.344 455.158C152.757 455.51 152.027 455.686 151.152 455.686C150.032 455.686 149.125 455.398 148.432 454.822C147.739 454.246 147.317 453.478 147.168 452.518H148.592C148.731 453.126 149.024 453.601 149.472 453.942C149.92 454.283 150.485 454.454 151.168 454.454C152.011 454.454 152.645 454.203 153.072 453.702C153.499 453.19 153.712 452.518 153.712 451.686C153.712 450.854 153.499 450.214 153.072 449.766C152.645 449.307 152.016 449.078 151.184 449.078C150.619 449.078 150.123 449.217 149.696 449.494C149.28 449.761 148.976 450.129 148.784 450.598H147.408V444.07H154.368V445.35ZM158.783 453.638L156.991 457.942H156.015L157.183 453.638H158.783ZM164.3 454.486C165.655 453.398 166.716 452.507 167.484 451.814C168.252 451.11 168.898 450.379 169.42 449.622C169.954 448.854 170.22 448.102 170.22 447.366C170.22 446.673 170.05 446.129 169.708 445.734C169.378 445.329 168.839 445.126 168.092 445.126C167.367 445.126 166.802 445.355 166.396 445.814C166.002 446.262 165.788 446.865 165.756 447.622H164.348C164.391 446.427 164.754 445.505 165.436 444.854C166.119 444.203 166.999 443.878 168.076 443.878C169.175 443.878 170.044 444.182 170.684 444.79C171.335 445.398 171.66 446.235 171.66 447.302C171.66 448.187 171.394 449.051 170.86 449.894C170.338 450.726 169.74 451.462 169.068 452.102C168.396 452.731 167.538 453.467 166.492 454.31H171.996V455.526H164.3V454.486ZM173.68 449.75C173.68 447.915 173.978 446.486 174.576 445.462C175.173 444.427 176.218 443.91 177.712 443.91C179.194 443.91 180.234 444.427 180.832 445.462C181.429 446.486 181.727 447.915 181.727 449.75C181.727 451.617 181.429 453.067 180.832 454.102C180.234 455.137 179.194 455.654 177.712 455.654C176.218 455.654 175.173 455.137 174.576 454.102C173.978 453.067 173.68 451.617 173.68 449.75ZM180.288 449.75C180.288 448.822 180.224 448.038 180.096 447.398C179.978 446.747 179.728 446.225 179.344 445.83C178.97 445.435 178.426 445.238 177.712 445.238C176.986 445.238 176.432 445.435 176.048 445.83C175.674 446.225 175.424 446.747 175.296 447.398C175.178 448.038 175.12 448.822 175.12 449.75C175.12 450.71 175.178 451.515 175.296 452.166C175.424 452.817 175.674 453.339 176.048 453.734C176.432 454.129 176.986 454.326 177.712 454.326C178.426 454.326 178.97 454.129 179.344 453.734C179.728 453.339 179.978 452.817 180.096 452.166C180.224 451.515 180.288 450.71 180.288 449.75ZM183.55 454.486C184.905 453.398 185.966 452.507 186.734 451.814C187.502 451.11 188.148 450.379 188.67 449.622C189.204 448.854 189.47 448.102 189.47 447.366C189.47 446.673 189.3 446.129 188.958 445.734C188.628 445.329 188.089 445.126 187.342 445.126C186.617 445.126 186.052 445.355 185.646 445.814C185.252 446.262 185.038 446.865 185.006 447.622H183.598C183.641 446.427 184.004 445.505 184.686 444.854C185.369 444.203 186.249 443.878 187.326 443.878C188.425 443.878 189.294 444.182 189.934 444.79C190.585 445.398 190.91 446.235 190.91 447.302C190.91 448.187 190.644 449.051 190.11 449.894C189.588 450.726 188.99 451.462 188.318 452.102C187.646 452.731 186.788 453.467 185.742 454.31H191.246V455.526H183.55V454.486ZM192.754 454.486C194.108 453.398 195.17 452.507 195.938 451.814C196.706 451.11 197.351 450.379 197.874 449.622C198.407 448.854 198.674 448.102 198.674 447.366C198.674 446.673 198.503 446.129 198.162 445.734C197.831 445.329 197.292 445.126 196.546 445.126C195.82 445.126 195.255 445.355 194.85 445.814C194.455 446.262 194.242 446.865 194.21 447.622H192.802C192.844 446.427 193.207 445.505 193.89 444.854C194.572 444.203 195.452 443.878 196.53 443.878C197.628 443.878 198.498 444.182 199.138 444.79C199.788 445.398 200.114 446.235 200.114 447.302C200.114 448.187 199.847 449.051 199.314 449.894C198.791 450.726 198.194 451.462 197.522 452.102C196.85 452.731 195.991 453.467 194.946 454.31H200.45V455.526H192.754V454.486Z" fill="#363A42"/>
<circle cx="725.475" cy="102.327" r="18.327" fill="#1C5DCD" fill-opacity="0.25"/>
<circle cx="725.475" cy="102.327" r="13.7452" fill="#1C5DCD"/>
<path d="M569.048 154.902L564.368 171.654H560.408L557.264 159.726L553.976 171.654L550.04 171.678L545.528 154.902H549.128L552.08 167.91L555.488 154.902H559.232L562.448 167.838L565.424 154.902H569.048ZM574.602 157.614V161.814H580.242V164.478H574.602V168.918H580.962V171.654H571.242V154.878H580.962V157.614H574.602ZM593.519 163.062C594.463 163.238 595.239 163.71 595.847 164.478C596.455 165.246 596.759 166.126 596.759 167.118C596.759 168.014 596.535 168.806 596.087 169.494C595.655 170.166 595.023 170.694 594.191 171.078C593.359 171.462 592.375 171.654 591.239 171.654H584.015V154.902H590.927C592.063 154.902 593.039 155.086 593.855 155.454C594.687 155.822 595.311 156.334 595.727 156.99C596.159 157.646 596.375 158.39 596.375 159.222C596.375 160.198 596.111 161.014 595.583 161.67C595.071 162.326 594.383 162.79 593.519 163.062ZM587.375 161.814H590.447C591.247 161.814 591.863 161.638 592.295 161.286C592.727 160.918 592.943 160.398 592.943 159.726C592.943 159.054 592.727 158.534 592.295 158.166C591.863 157.798 591.247 157.614 590.447 157.614H587.375V161.814ZM590.759 168.918C591.575 168.918 592.207 168.726 592.655 168.342C593.119 167.958 593.351 167.414 593.351 166.71C593.351 165.99 593.111 165.43 592.631 165.03C592.151 164.614 591.503 164.406 590.687 164.406H587.375V168.918H590.759ZM611.012 154.902C612.772 154.902 614.316 155.246 615.644 155.934C616.988 156.622 618.02 157.606 618.74 158.886C619.476 160.15 619.844 161.622 619.844 163.302C619.844 164.982 619.476 166.454 618.74 167.718C618.02 168.966 616.988 169.934 615.644 170.622C614.316 171.31 612.772 171.654 611.012 171.654H605.156V154.902H611.012ZM610.892 168.798C612.652 168.798 614.012 168.318 614.972 167.358C615.932 166.398 616.412 165.046 616.412 163.302C616.412 161.558 615.932 160.198 614.972 159.222C614.012 158.23 612.652 157.734 610.892 157.734H608.516V168.798H610.892ZM625.719 157.614V161.814H631.359V164.478H625.719V168.918H632.079V171.654H622.359V154.878H632.079V157.614H625.719ZM650.181 154.902L644.037 171.654H639.957L633.813 154.902H637.413L642.021 168.222L646.605 154.902H650.181ZM655.867 168.126L653.059 174.87H650.899L652.459 168.126H655.867ZM674.352 154.902V157.614H667.368V161.91H672.72V164.574H667.368V171.654H664.008V154.902H674.352ZM680.094 168.99H685.614V171.654H676.734V154.902H680.094V168.99ZM691.062 154.902V165.27C691.062 166.406 691.358 167.278 691.95 167.886C692.542 168.478 693.374 168.774 694.446 168.774C695.534 168.774 696.374 168.478 696.966 167.886C697.558 167.278 697.854 166.406 697.854 165.27V154.902H701.238V165.246C701.238 166.67 700.926 167.878 700.302 168.87C699.694 169.846 698.87 170.582 697.83 171.078C696.806 171.574 695.662 171.822 694.398 171.822C693.15 171.822 692.014 171.574 690.99 171.078C689.982 170.582 689.182 169.846 688.59 168.87C687.998 167.878 687.702 166.67 687.702 165.246V154.902H691.062ZM715.884 154.902V157.614H711.42V171.654H708.06V157.614H703.596V154.902H715.884ZM729.736 154.902V157.614H725.272V171.654H721.912V157.614H717.448V154.902H729.736ZM735.547 157.614V161.814H741.187V164.478H735.547V168.918H741.907V171.654H732.187V154.878H741.907V157.614H735.547ZM753.601 171.654L749.905 165.126H748.321V171.654H744.961V154.902H751.249C752.545 154.902 753.649 155.134 754.561 155.598C755.473 156.046 756.153 156.662 756.601 157.446C757.065 158.214 757.297 159.078 757.297 160.038C757.297 161.142 756.977 162.142 756.337 163.038C755.697 163.918 754.745 164.526 753.481 164.862L757.489 171.654H753.601ZM748.321 162.606H751.129C752.041 162.606 752.721 162.39 753.169 161.958C753.617 161.51 753.841 160.894 753.841 160.11C753.841 159.342 753.617 158.75 753.169 158.334C752.721 157.902 752.041 157.686 751.129 157.686H748.321V162.606ZM788.446 154.902L783.766 171.654H779.806L776.662 159.726L773.374 171.654L769.438 171.678L764.926 154.902H768.526L771.478 167.91L774.886 154.902H778.63L781.846 167.838L784.822 154.902H788.446ZM798.416 171.822C796.848 171.822 795.408 171.454 794.096 170.718C792.784 169.982 791.744 168.966 790.976 167.67C790.208 166.358 789.824 164.878 789.824 163.23C789.824 161.598 790.208 160.134 790.976 158.838C791.744 157.526 792.784 156.502 794.096 155.766C795.408 155.03 796.848 154.662 798.416 154.662C800 154.662 801.44 155.03 802.736 155.766C804.048 156.502 805.08 157.526 805.832 158.838C806.6 160.134 806.984 161.598 806.984 163.23C806.984 164.878 806.6 166.358 805.832 167.67C805.08 168.966 804.048 169.982 802.736 170.718C801.424 171.454 799.984 171.822 798.416 171.822ZM798.416 168.822C799.424 168.822 800.312 168.598 801.08 168.15C801.848 167.686 802.448 167.03 802.88 166.182C803.312 165.334 803.528 164.35 803.528 163.23C803.528 162.11 803.312 161.134 802.88 160.302C802.448 159.454 801.848 158.806 801.08 158.358C800.312 157.91 799.424 157.686 798.416 157.686C797.408 157.686 796.512 157.91 795.728 158.358C794.96 158.806 794.36 159.454 793.928 160.302C793.496 161.134 793.28 162.11 793.28 163.23C793.28 164.35 793.496 165.334 793.928 166.182C794.36 167.03 794.96 167.686 795.728 168.15C796.512 168.598 797.408 168.822 798.416 168.822ZM818.124 171.654L814.428 165.126H812.844V171.654H809.484V154.902H815.772C817.068 154.902 818.172 155.134 819.084 155.598C819.996 156.046 820.676 156.662 821.124 157.446C821.588 158.214 821.82 159.078 821.82 160.038C821.82 161.142 821.5 162.142 820.86 163.038C820.22 163.918 819.268 164.526 818.004 164.862L822.012 171.654H818.124ZM812.844 162.606H815.652C816.564 162.606 817.244 162.39 817.692 161.958C818.14 161.51 818.364 160.894 818.364 160.11C818.364 159.342 818.14 158.75 817.692 158.334C817.244 157.902 816.564 157.686 815.652 157.686H812.844V162.606ZM834.315 171.654L828.219 164.19V171.654H824.859V154.902H828.219V162.414L834.315 154.902H838.371L831.459 163.206L838.563 171.654H834.315ZM846.557 171.822C845.389 171.822 844.333 171.622 843.389 171.222C842.461 170.822 841.725 170.246 841.181 169.494C840.637 168.742 840.357 167.854 840.341 166.83H843.941C843.989 167.518 844.229 168.062 844.661 168.462C845.109 168.862 845.717 169.062 846.485 169.062C847.269 169.062 847.885 168.878 848.333 168.51C848.781 168.126 849.005 167.63 849.005 167.022C849.005 166.526 848.853 166.118 848.549 165.798C848.245 165.478 847.861 165.23 847.397 165.054C846.949 164.862 846.325 164.654 845.525 164.43C844.437 164.11 843.549 163.798 842.861 163.494C842.189 163.174 841.605 162.702 841.109 162.078C840.629 161.438 840.389 160.59 840.389 159.534C840.389 158.542 840.637 157.678 841.133 156.942C841.629 156.206 842.325 155.646 843.221 155.262C844.117 154.862 845.141 154.662 846.293 154.662C848.021 154.662 849.421 155.086 850.493 155.934C851.581 156.766 852.181 157.934 852.293 159.438H848.597C848.565 158.862 848.317 158.39 847.853 158.022C847.405 157.638 846.805 157.446 846.053 157.446C845.397 157.446 844.869 157.614 844.469 157.95C844.085 158.286 843.893 158.774 843.893 159.414C843.893 159.862 844.037 160.238 844.325 160.542C844.629 160.83 844.997 161.07 845.429 161.262C845.877 161.438 846.501 161.646 847.301 161.886C848.389 162.206 849.277 162.526 849.965 162.846C850.653 163.166 851.245 163.646 851.741 164.286C852.237 164.926 852.485 165.766 852.485 166.806C852.485 167.702 852.253 168.534 851.789 169.302C851.325 170.07 850.645 170.686 849.749 171.15C848.853 171.598 847.789 171.822 846.557 171.822ZM869.294 154.902V171.654H865.934V164.526H858.758V171.654H855.398V154.902H858.758V161.79H865.934V154.902H869.294ZM880.377 171.822C878.809 171.822 877.369 171.454 876.057 170.718C874.745 169.982 873.705 168.966 872.937 167.67C872.169 166.358 871.785 164.878 871.785 163.23C871.785 161.598 872.169 160.134 872.937 158.838C873.705 157.526 874.745 156.502 876.057 155.766C877.369 155.03 878.809 154.662 880.377 154.662C881.961 154.662 883.401 155.03 884.697 155.766C886.009 156.502 887.041 157.526 887.793 158.838C888.561 160.134 888.945 161.598 888.945 163.23C888.945 164.878 888.561 166.358 887.793 167.67C887.041 168.966 886.009 169.982 884.697 170.718C883.385 171.454 881.945 171.822 880.377 171.822ZM880.377 168.822C881.385 168.822 882.273 168.598 883.041 168.15C883.809 167.686 884.409 167.03 884.841 166.182C885.273 165.334 885.489 164.35 885.489 163.23C885.489 162.11 885.273 161.134 884.841 160.302C884.409 159.454 883.809 158.806 883.041 158.358C882.273 157.91 881.385 157.686 880.377 157.686C879.369 157.686 878.473 157.91 877.689 158.358C876.921 158.806 876.321 159.454 875.889 160.302C875.457 161.134 875.241 162.11 875.241 163.23C875.241 164.35 875.457 165.334 875.889 166.182C876.321 167.03 876.921 167.686 877.689 168.15C878.473 168.598 879.369 168.822 880.377 168.822ZM903.661 160.086C903.661 160.982 903.445 161.822 903.013 162.606C902.597 163.39 901.933 164.022 901.021 164.502C900.125 164.982 898.989 165.222 897.613 165.222H894.805V171.654H891.445V154.902H897.613C898.909 154.902 900.013 155.126 900.925 155.574C901.837 156.022 902.517 156.638 902.965 157.422C903.429 158.206 903.661 159.094 903.661 160.086ZM897.469 162.51C898.397 162.51 899.085 162.302 899.533 161.886C899.981 161.454 900.205 160.854 900.205 160.086C900.205 158.454 899.293 157.638 897.469 157.638H894.805V162.51H897.469Z" fill="#1C5DCD"/>
<path d="M685.544 188.582V199.654H684.088V191.398L680.408 199.654H679.384L675.688 191.382V199.654H674.232V188.582H675.8L679.896 197.734L683.992 188.582H685.544ZM687.469 195.238C687.469 194.342 687.651 193.558 688.013 192.886C688.376 192.203 688.872 191.675 689.501 191.302C690.141 190.929 690.851 190.742 691.629 190.742C692.397 190.742 693.064 190.907 693.629 191.238C694.195 191.569 694.616 191.985 694.893 192.486V190.886H696.365V199.654H694.893V198.022C694.605 198.534 694.173 198.961 693.597 199.302C693.032 199.633 692.371 199.798 691.613 199.798C690.835 199.798 690.131 199.606 689.501 199.222C688.872 198.838 688.376 198.299 688.013 197.606C687.651 196.913 687.469 196.123 687.469 195.238ZM694.893 195.254C694.893 194.593 694.76 194.017 694.493 193.526C694.227 193.035 693.864 192.662 693.405 192.406C692.957 192.139 692.461 192.006 691.917 192.006C691.373 192.006 690.877 192.134 690.429 192.39C689.981 192.646 689.624 193.019 689.357 193.51C689.091 194.001 688.957 194.577 688.957 195.238C688.957 195.91 689.091 196.497 689.357 196.998C689.624 197.489 689.981 197.867 690.429 198.134C690.877 198.39 691.373 198.518 691.917 198.518C692.461 198.518 692.957 198.39 693.405 198.134C693.864 197.867 694.227 197.489 694.493 196.998C694.76 196.497 694.893 195.915 694.893 195.254ZM706.378 190.886L701.098 203.782H699.594L701.322 199.558L697.786 190.886H699.402L702.154 197.99L704.874 190.886H706.378ZM711.867 193.75C711.867 191.915 712.166 190.486 712.763 189.462C713.36 188.427 714.406 187.91 715.899 187.91C717.382 187.91 718.422 188.427 719.019 189.462C719.616 190.486 719.915 191.915 719.915 193.75C719.915 195.617 719.616 197.067 719.019 198.102C718.422 199.137 717.382 199.654 715.899 199.654C714.406 199.654 713.36 199.137 712.763 198.102C712.166 197.067 711.867 195.617 711.867 193.75ZM718.475 193.75C718.475 192.822 718.411 192.038 718.283 191.398C718.166 190.747 717.915 190.225 717.531 189.83C717.158 189.435 716.614 189.238 715.899 189.238C715.174 189.238 714.619 189.435 714.235 189.83C713.862 190.225 713.611 190.747 713.483 191.398C713.366 192.038 713.307 192.822 713.307 193.75C713.307 194.71 713.366 195.515 713.483 196.166C713.611 196.817 713.862 197.339 714.235 197.734C714.619 198.129 715.174 198.326 715.899 198.326C716.614 198.326 717.158 198.129 717.531 197.734C717.915 197.339 718.166 196.817 718.283 196.166C718.411 195.515 718.475 194.71 718.475 193.75ZM721.53 189.414V188.086H724.538V199.654H723.066V189.414H721.53ZM728.783 197.638L726.991 201.942H726.015L727.183 197.638H728.783ZM734.3 198.486C735.655 197.398 736.716 196.507 737.484 195.814C738.252 195.11 738.898 194.379 739.42 193.622C739.954 192.854 740.22 192.102 740.22 191.366C740.22 190.673 740.05 190.129 739.708 189.734C739.378 189.329 738.839 189.126 738.092 189.126C737.367 189.126 736.802 189.355 736.396 189.814C736.002 190.262 735.788 190.865 735.756 191.622H734.348C734.391 190.427 734.754 189.505 735.436 188.854C736.119 188.203 736.999 187.878 738.076 187.878C739.175 187.878 740.044 188.182 740.684 188.79C741.335 189.398 741.66 190.235 741.66 191.302C741.66 192.187 741.394 193.051 740.86 193.894C740.338 194.726 739.74 195.462 739.068 196.102C738.396 196.731 737.538 197.467 736.492 198.31H741.996V199.526H734.3V198.486ZM743.68 193.75C743.68 191.915 743.978 190.486 744.576 189.462C745.173 188.427 746.218 187.91 747.712 187.91C749.194 187.91 750.234 188.427 750.832 189.462C751.429 190.486 751.727 191.915 751.727 193.75C751.727 195.617 751.429 197.067 750.832 198.102C750.234 199.137 749.194 199.654 747.712 199.654C746.218 199.654 745.173 199.137 744.576 198.102C743.978 197.067 743.68 195.617 743.68 193.75ZM750.288 193.75C750.288 192.822 750.224 192.038 750.096 191.398C749.978 190.747 749.728 190.225 749.344 189.83C748.97 189.435 748.426 189.238 747.712 189.238C746.986 189.238 746.432 189.435 746.048 189.83C745.674 190.225 745.424 190.747 745.296 191.398C745.178 192.038 745.12 192.822 745.12 193.75C745.12 194.71 745.178 195.515 745.296 196.166C745.424 196.817 745.674 197.339 746.048 197.734C746.432 198.129 746.986 198.326 747.712 198.326C748.426 198.326 748.97 198.129 749.344 197.734C749.728 197.339 749.978 196.817 750.096 196.166C750.224 195.515 750.288 194.71 750.288 193.75ZM753.55 198.486C754.905 197.398 755.966 196.507 756.734 195.814C757.502 195.11 758.148 194.379 758.67 193.622C759.204 192.854 759.47 192.102 759.47 191.366C759.47 190.673 759.3 190.129 758.958 189.734C758.628 189.329 758.089 189.126 757.342 189.126C756.617 189.126 756.052 189.355 755.646 189.814C755.252 190.262 755.038 190.865 755.006 191.622H753.598C753.641 190.427 754.004 189.505 754.686 188.854C755.369 188.203 756.249 187.878 757.326 187.878C758.425 187.878 759.294 188.182 759.934 188.79C760.585 189.398 760.91 190.235 760.91 191.302C760.91 192.187 760.644 193.051 760.11 193.894C759.588 194.726 758.99 195.462 758.318 196.102C757.646 196.731 756.788 197.467 755.742 198.31H761.246V199.526H753.55V198.486ZM762.754 198.486C764.108 197.398 765.17 196.507 765.938 195.814C766.706 195.11 767.351 194.379 767.874 193.622C768.407 192.854 768.674 192.102 768.674 191.366C768.674 190.673 768.503 190.129 768.162 189.734C767.831 189.329 767.292 189.126 766.546 189.126C765.82 189.126 765.255 189.355 764.85 189.814C764.455 190.262 764.242 190.865 764.21 191.622H762.802C762.844 190.427 763.207 189.505 763.89 188.854C764.572 188.203 765.452 187.878 766.53 187.878C767.628 187.878 768.498 188.182 769.138 188.79C769.788 189.398 770.114 190.235 770.114 191.302C770.114 192.187 769.847 193.051 769.314 193.894C768.791 194.726 768.194 195.462 767.522 196.102C766.85 196.731 765.991 197.467 764.946 198.31H770.45V199.526H762.754V198.486Z" fill="#363A42"/>
<circle cx="633.327" cy="547.327" r="18.327" fill="#1C5DCD" fill-opacity="0.25"/>
<circle cx="633.327" cy="547.327" r="13.7452" fill="#1C5DCD"/>
<path d="M483.92 455.248V472H480.56V461.104L476.072 472H473.528L469.016 461.104V472H465.656V455.248H469.472L474.8 467.704L480.128 455.248H483.92ZM497.514 468.808H490.842L489.738 472H486.21L492.234 455.224H496.146L502.17 472H498.618L497.514 468.808ZM496.602 466.12L494.178 459.112L491.754 466.12H496.602ZM503.606 463.6C503.606 461.952 503.974 460.48 504.71 459.184C505.462 457.872 506.478 456.856 507.758 456.136C509.054 455.4 510.502 455.032 512.102 455.032C513.974 455.032 515.614 455.512 517.022 456.472C518.43 457.432 519.414 458.76 519.974 460.456H516.11C515.726 459.656 515.182 459.056 514.478 458.656C513.79 458.256 512.99 458.056 512.078 458.056C511.102 458.056 510.23 458.288 509.462 458.752C508.71 459.2 508.118 459.84 507.686 460.672C507.27 461.504 507.062 462.48 507.062 463.6C507.062 464.704 507.27 465.68 507.686 466.528C508.118 467.36 508.71 468.008 509.462 468.472C510.23 468.92 511.102 469.144 512.078 469.144C512.99 469.144 513.79 468.944 514.478 468.544C515.182 468.128 515.726 467.52 516.11 466.72H519.974C519.414 468.432 518.43 469.768 517.022 470.728C515.63 471.672 513.99 472.144 512.102 472.144C510.502 472.144 509.054 471.784 507.758 471.064C506.478 470.328 505.462 469.312 504.71 468.016C503.974 466.72 503.606 465.248 503.606 463.6ZM536.74 455.248V472H533.38V464.872H526.204V472H522.844V455.248H526.204V462.136H533.38V455.248H536.74ZM543.407 455.248V472H540.047V455.248H543.407ZM561.054 472H557.694L550.086 460.504V472H546.726V455.224H550.086L557.694 466.744V455.224H561.054V472ZM567.735 457.96V462.16H573.375V464.824H567.735V469.264H574.095V472H564.375V455.224H574.095V457.96H567.735ZM586.227 469.336H591.747V472H582.867V455.248H586.227V469.336ZM597.243 457.96V462.16H602.883V464.824H597.243V469.264H603.603V472H593.883V455.224H603.603V457.96H597.243ZM616.928 468.808H610.256L609.152 472H605.624L611.648 455.224H615.56L621.584 472H618.032L616.928 468.808ZM616.016 466.12L613.592 459.112L611.168 466.12H616.016ZM632.476 472L628.78 465.472H627.196V472H623.836V455.248H630.124C631.42 455.248 632.524 455.48 633.436 455.944C634.348 456.392 635.028 457.008 635.476 457.792C635.94 458.56 636.172 459.424 636.172 460.384C636.172 461.488 635.852 462.488 635.212 463.384C634.572 464.264 633.62 464.872 632.356 465.208L636.364 472H632.476ZM627.196 462.952H630.004C630.916 462.952 631.596 462.736 632.044 462.304C632.492 461.856 632.716 461.24 632.716 460.456C632.716 459.688 632.492 459.096 632.044 458.68C631.596 458.248 630.916 458.032 630.004 458.032H627.196V462.952ZM653.539 472H650.179L642.571 460.504V472H639.211V455.224H642.571L650.179 466.744V455.224H653.539V472ZM660.219 455.248V472H656.859V455.248H660.219ZM677.867 472H674.507L666.899 460.504V472H663.539V455.224H666.899L674.507 466.744V455.224H677.867V472ZM692.851 460.288C692.467 459.584 691.939 459.048 691.267 458.68C690.595 458.312 689.811 458.128 688.915 458.128C687.923 458.128 687.043 458.352 686.275 458.8C685.507 459.248 684.907 459.888 684.475 460.72C684.043 461.552 683.827 462.512 683.827 463.6C683.827 464.72 684.043 465.696 684.475 466.528C684.923 467.36 685.539 468 686.323 468.448C687.107 468.896 688.019 469.12 689.059 469.12C690.339 469.12 691.387 468.784 692.203 468.112C693.019 467.424 693.555 466.472 693.811 465.256H688.051V462.688H697.123V465.616C696.899 466.784 696.419 467.864 695.683 468.856C694.947 469.848 693.995 470.648 692.827 471.256C691.675 471.848 690.379 472.144 688.939 472.144C687.323 472.144 685.859 471.784 684.547 471.064C683.251 470.328 682.227 469.312 681.475 468.016C680.739 466.72 680.371 465.248 680.371 463.6C680.371 461.952 680.739 460.48 681.475 459.184C682.227 457.872 683.251 456.856 684.547 456.136C685.859 455.4 687.315 455.032 688.915 455.032C690.803 455.032 692.443 455.496 693.835 456.424C695.227 457.336 696.187 458.624 696.715 460.288H692.851ZM703.281 468.472L700.473 475.216H698.313L699.873 468.472H703.281ZM717.278 455.248C719.038 455.248 720.582 455.592 721.91 456.28C723.254 456.968 724.286 457.952 725.006 459.232C725.742 460.496 726.11 461.968 726.11 463.648C726.11 465.328 725.742 466.8 725.006 468.064C724.286 469.312 723.254 470.28 721.91 470.968C720.582 471.656 719.038 472 717.278 472H711.422V455.248H717.278ZM717.158 469.144C718.918 469.144 720.278 468.664 721.238 467.704C722.198 466.744 722.678 465.392 722.678 463.648C722.678 461.904 722.198 460.544 721.238 459.568C720.278 458.576 718.918 458.08 717.158 458.08H714.782V469.144H717.158ZM731.985 457.96V462.16H737.625V464.824H731.985V469.264H738.345V472H728.625V455.224H738.345V457.96H731.985ZM756.446 455.248L750.302 472H746.222L740.078 455.248H743.678L748.286 468.568L752.87 455.248H756.446ZM766.237 472.168C764.669 472.168 763.229 471.8 761.917 471.064C760.605 470.328 759.565 469.312 758.797 468.016C758.029 466.704 757.645 465.224 757.645 463.576C757.645 461.944 758.029 460.48 758.797 459.184C759.565 457.872 760.605 456.848 761.917 456.112C763.229 455.376 764.669 455.008 766.237 455.008C767.821 455.008 769.261 455.376 770.557 456.112C771.869 456.848 772.901 457.872 773.653 459.184C774.421 460.48 774.805 461.944 774.805 463.576C774.805 465.224 774.421 466.704 773.653 468.016C772.901 469.312 771.869 470.328 770.557 471.064C769.245 471.8 767.805 472.168 766.237 472.168ZM766.237 469.168C767.245 469.168 768.133 468.944 768.901 468.496C769.669 468.032 770.269 467.376 770.701 466.528C771.133 465.68 771.349 464.696 771.349 463.576C771.349 462.456 771.133 461.48 770.701 460.648C770.269 459.8 769.669 459.152 768.901 458.704C768.133 458.256 767.245 458.032 766.237 458.032C765.229 458.032 764.333 458.256 763.549 458.704C762.781 459.152 762.181 459.8 761.749 460.648C761.317 461.48 761.101 462.456 761.101 463.576C761.101 464.696 761.317 465.68 761.749 466.528C762.181 467.376 762.781 468.032 763.549 468.496C764.333 468.944 765.229 469.168 766.237 469.168ZM789.52 460.432C789.52 461.328 789.304 462.168 788.872 462.952C788.456 463.736 787.792 464.368 786.88 464.848C785.984 465.328 784.848 465.568 783.472 465.568H780.664V472H777.304V455.248H783.472C784.768 455.248 785.872 455.472 786.784 455.92C787.696 456.368 788.376 456.984 788.824 457.768C789.288 458.552 789.52 459.44 789.52 460.432ZM783.328 462.856C784.256 462.856 784.944 462.648 785.392 462.232C785.84 461.8 786.064 461.2 786.064 460.432C786.064 458.8 785.152 457.984 783.328 457.984H780.664V462.856H783.328ZM797.69 472.168C796.522 472.168 795.466 471.968 794.522 471.568C793.594 471.168 792.858 470.592 792.314 469.84C791.77 469.088 791.49 468.2 791.474 467.176H795.074C795.122 467.864 795.362 468.408 795.794 468.808C796.242 469.208 796.85 469.408 797.618 469.408C798.402 469.408 799.018 469.224 799.466 468.856C799.914 468.472 800.138 467.976 800.138 467.368C800.138 466.872 799.986 466.464 799.682 466.144C799.378 465.824 798.994 465.576 798.53 465.4C798.082 465.208 797.458 465 796.658 464.776C795.57 464.456 794.682 464.144 793.994 463.84C793.322 463.52 792.738 463.048 792.242 462.424C791.762 461.784 791.522 460.936 791.522 459.88C791.522 458.888 791.77 458.024 792.266 457.288C792.762 456.552 793.458 455.992 794.354 455.608C795.25 455.208 796.274 455.008 797.426 455.008C799.154 455.008 800.554 455.432 801.626 456.28C802.714 457.112 803.314 458.28 803.426 459.784H799.73C799.698 459.208 799.45 458.736 798.986 458.368C798.538 457.984 797.938 457.792 797.186 457.792C796.53 457.792 796.002 457.96 795.602 458.296C795.218 458.632 795.026 459.12 795.026 459.76C795.026 460.208 795.17 460.584 795.458 460.888C795.762 461.176 796.13 461.416 796.562 461.608C797.01 461.784 797.634 461.992 798.434 462.232C799.522 462.552 800.41 462.872 801.098 463.192C801.786 463.512 802.378 463.992 802.874 464.632C803.37 465.272 803.618 466.112 803.618 467.152C803.618 468.048 803.386 468.88 802.922 469.648C802.458 470.416 801.778 471.032 800.882 471.496C799.986 471.944 798.922 472.168 797.69 472.168Z" fill="#1C5DCD"/>
<path d="M597.544 488.928V500H596.088V491.744L592.408 500H591.384L587.688 491.728V500H586.232V488.928H587.8L591.896 498.08L595.992 488.928H597.544ZM599.469 495.584C599.469 494.688 599.651 493.904 600.013 493.232C600.376 492.549 600.872 492.021 601.501 491.648C602.141 491.275 602.851 491.088 603.629 491.088C604.397 491.088 605.064 491.253 605.629 491.584C606.195 491.915 606.616 492.331 606.893 492.832V491.232H608.365V500H606.893V498.368C606.605 498.88 606.173 499.307 605.597 499.648C605.032 499.979 604.371 500.144 603.613 500.144C602.835 500.144 602.131 499.952 601.501 499.568C600.872 499.184 600.376 498.645 600.013 497.952C599.651 497.259 599.469 496.469 599.469 495.584ZM606.893 495.6C606.893 494.939 606.76 494.363 606.493 493.872C606.227 493.381 605.864 493.008 605.405 492.752C604.957 492.485 604.461 492.352 603.917 492.352C603.373 492.352 602.877 492.48 602.429 492.736C601.981 492.992 601.624 493.365 601.357 493.856C601.091 494.347 600.957 494.923 600.957 495.584C600.957 496.256 601.091 496.843 601.357 497.344C601.624 497.835 601.981 498.213 602.429 498.48C602.877 498.736 603.373 498.864 603.917 498.864C604.461 498.864 604.957 498.736 605.405 498.48C605.864 498.213 606.227 497.835 606.493 497.344C606.76 496.843 606.893 496.261 606.893 495.6ZM618.378 491.232L613.098 504.128H611.594L613.322 499.904L609.786 491.232H611.402L614.154 498.336L616.874 491.232H618.378ZM623.691 498.832C625.046 497.744 626.107 496.853 626.875 496.16C627.643 495.456 628.288 494.725 628.811 493.968C629.344 493.2 629.611 492.448 629.611 491.712C629.611 491.019 629.44 490.475 629.099 490.08C628.768 489.675 628.23 489.472 627.483 489.472C626.758 489.472 626.192 489.701 625.787 490.16C625.392 490.608 625.179 491.211 625.147 491.968H623.739C623.782 490.773 624.144 489.851 624.827 489.2C625.51 488.549 626.39 488.224 627.467 488.224C628.566 488.224 629.435 488.528 630.075 489.136C630.726 489.744 631.051 490.581 631.051 491.648C631.051 492.533 630.784 493.397 630.251 494.24C629.728 495.072 629.131 495.808 628.459 496.448C627.787 497.077 626.928 497.813 625.883 498.656H631.387V499.872H623.691V498.832ZM632.894 498.832C634.249 497.744 635.31 496.853 636.078 496.16C636.846 495.456 637.491 494.725 638.014 493.968C638.547 493.2 638.814 492.448 638.814 491.712C638.814 491.019 638.643 490.475 638.302 490.08C637.971 489.675 637.433 489.472 636.686 489.472C635.961 489.472 635.395 489.701 634.99 490.16C634.595 490.608 634.382 491.211 634.35 491.968H632.942C632.985 490.773 633.347 489.851 634.03 489.2C634.713 488.549 635.593 488.224 636.67 488.224C637.769 488.224 638.638 488.528 639.278 489.136C639.929 489.744 640.254 490.581 640.254 491.648C640.254 492.533 639.987 493.397 639.454 494.24C638.931 495.072 638.334 495.808 637.662 496.448C636.99 497.077 636.131 497.813 635.086 498.656H640.59V499.872H632.894V498.832ZM646.363 498.832C647.718 497.744 648.779 496.853 649.547 496.16C650.315 495.456 650.96 494.725 651.483 493.968C652.016 493.2 652.283 492.448 652.283 491.712C652.283 491.019 652.112 490.475 651.771 490.08C651.44 489.675 650.902 489.472 650.155 489.472C649.43 489.472 648.864 489.701 648.459 490.16C648.064 490.608 647.851 491.211 647.819 491.968H646.411C646.454 490.773 646.816 489.851 647.499 489.2C648.182 488.549 649.062 488.224 650.139 488.224C651.238 488.224 652.107 488.528 652.747 489.136C653.398 489.744 653.723 490.581 653.723 491.648C653.723 492.533 653.456 493.397 652.923 494.24C652.4 495.072 651.803 495.808 651.131 496.448C650.459 497.077 649.6 497.813 648.555 498.656H654.059V499.872H646.363V498.832ZM655.742 494.096C655.742 492.261 656.041 490.832 656.638 489.808C657.235 488.773 658.281 488.256 659.774 488.256C661.257 488.256 662.297 488.773 662.894 489.808C663.491 490.832 663.79 492.261 663.79 494.096C663.79 495.963 663.491 497.413 662.894 498.448C662.297 499.483 661.257 500 659.774 500C658.281 500 657.235 499.483 656.638 498.448C656.041 497.413 655.742 495.963 655.742 494.096ZM662.35 494.096C662.35 493.168 662.286 492.384 662.158 491.744C662.041 491.093 661.79 490.571 661.406 490.176C661.033 489.781 660.489 489.584 659.774 489.584C659.049 489.584 658.494 489.781 658.11 490.176C657.737 490.571 657.486 491.093 657.358 491.744C657.241 492.384 657.182 493.168 657.182 494.096C657.182 495.056 657.241 495.861 657.358 496.512C657.486 497.163 657.737 497.685 658.11 498.08C658.494 498.475 659.049 498.672 659.774 498.672C660.489 498.672 661.033 498.475 661.406 498.08C661.79 497.685 662.041 497.163 662.158 496.512C662.286 495.861 662.35 495.056 662.35 494.096ZM665.613 498.832C666.968 497.744 668.029 496.853 668.797 496.16C669.565 495.456 670.21 494.725 670.733 493.968C671.266 493.2 671.533 492.448 671.533 491.712C671.533 491.019 671.362 490.475 671.021 490.08C670.69 489.675 670.152 489.472 669.405 489.472C668.68 489.472 668.114 489.701 667.709 490.16C667.314 490.608 667.101 491.211 667.069 491.968H665.661C665.704 490.773 666.066 489.851 666.749 489.2C667.432 488.549 668.312 488.224 669.389 488.224C670.488 488.224 671.357 488.528 671.997 489.136C672.648 489.744 672.973 490.581 672.973 491.648C672.973 492.533 672.706 493.397 672.173 494.24C671.65 495.072 671.053 495.808 670.381 496.448C669.709 497.077 668.85 497.813 667.805 498.656H673.309V499.872H665.613V498.832ZM674.816 498.832C676.171 497.744 677.232 496.853 678 496.16C678.768 495.456 679.413 494.725 679.936 493.968C680.469 493.2 680.736 492.448 680.736 491.712C680.736 491.019 680.565 490.475 680.224 490.08C679.893 489.675 679.355 489.472 678.608 489.472C677.883 489.472 677.317 489.701 676.912 490.16C676.517 490.608 676.304 491.211 676.272 491.968H674.864C674.907 490.773 675.269 489.851 675.952 489.2C676.635 488.549 677.515 488.224 678.592 488.224C679.691 488.224 680.56 488.528 681.2 489.136C681.851 489.744 682.176 490.581 682.176 491.648C682.176 492.533 681.909 493.397 681.376 494.24C680.853 495.072 680.256 495.808 679.584 496.448C678.912 497.077 678.053 497.813 677.008 498.656H682.512V499.872H674.816V498.832Z" fill="#363A42"/>
</svg>
