<svg width="1102" height="652" viewBox="0 0 1102 652" fill="none" xmlns="http://www.w3.org/2000/svg">
<path d="M138.525 101.216C137.696 101.216 137.025 101.887 137.025 102.716C137.025 103.544 137.696 104.216 138.525 104.216V101.216ZM768.674 104.216C769.503 104.216 770.174 103.544 770.174 102.716C770.174 101.887 769.503 101.216 768.674 101.216V104.216ZM138.525 104.216H148.371V101.216H138.525V104.216ZM168.063 104.216H187.755V101.216H168.063V104.216ZM207.447 104.216H227.139V101.216H207.447V104.216ZM246.832 104.216H266.524V101.216H246.832V104.216ZM286.216 104.216H305.908V101.216H286.216V104.216ZM325.6 104.216H345.292V101.216H325.6V104.216ZM364.985 104.216H384.677V101.216H364.985V104.216ZM404.369 104.216H424.061V101.216H404.369V104.216ZM443.753 104.216H463.445V101.216H443.753V104.216ZM483.138 104.216H502.83V101.216H483.138V104.216ZM522.522 104.216H542.214V101.216H522.522V104.216ZM561.906 104.216H581.598V101.216H561.906V104.216ZM601.291 104.216H620.983V101.216H601.291V104.216ZM640.675 104.216H660.367V101.216H640.675V104.216ZM680.059 104.216H699.751V101.216H680.059V104.216ZM719.444 104.216H739.136V101.216H719.444V104.216ZM758.828 104.216H768.674V101.216H758.828V104.216Z" fill="black" fill-opacity="0.25"/>
<path d="M366.995 546.197C366.167 546.197 365.495 546.868 365.495 547.697C365.495 548.525 366.167 549.197 366.995 549.197V546.197ZM997.145 549.197C997.973 549.197 998.645 548.525 998.645 547.697C998.645 546.868 997.973 546.197 997.145 546.197V549.197ZM366.995 549.197H376.841V546.197H366.995V549.197ZM396.533 549.197H416.226V546.197H396.533V549.197ZM435.918 549.197H455.61V546.197H435.918V549.197ZM475.302 549.197H494.994V546.197H475.302V549.197ZM514.686 549.197H534.379V546.197H514.686V549.197ZM554.071 549.197H573.763V546.197H554.071V549.197ZM593.455 549.197H613.147V546.197H593.455V549.197ZM632.839 549.197H652.532V546.197H632.839V549.197ZM672.224 549.197H691.916V546.197H672.224V549.197ZM711.608 549.197H731.3V546.197H711.608V549.197ZM750.992 549.197H770.685V546.197H750.992V549.197ZM790.377 549.197H810.069V546.197H790.377V549.197ZM829.761 549.197H849.453V546.197H829.761V549.197ZM869.145 549.197H888.838V546.197H869.145V549.197ZM908.53 549.197H928.222V546.197H908.53V549.197ZM947.914 549.197H967.606V546.197H947.914V549.197ZM987.298 549.197H997.145V546.197H987.298V549.197Z" fill="black" fill-opacity="0.25"/>
<line x1="333.029" y1="324.325" x2="767.174" y2="324.325" stroke="black" stroke-opacity="0.25" stroke-width="3" stroke-linecap="round" stroke-dasharray="20 20"/>
<path d="M768.674 100.803C767.845 100.803 767.174 101.475 767.174 102.303C767.174 103.132 767.845 103.803 768.674 103.803L768.674 100.803ZM768.674 103.803C772.107 103.803 775.465 103.912 778.745 104.125L778.939 101.132C775.593 100.914 772.171 100.803 768.674 100.803L768.674 103.803ZM798.475 106.814C805.224 108.251 811.574 110.175 817.528 112.526L818.63 109.736C812.518 107.322 806.007 105.35 799.1 103.88L798.475 106.814ZM835.282 121.478C841.021 125.076 846.262 129.139 851.006 133.584L853.057 131.395C848.174 126.819 842.78 122.638 836.876 118.936L835.282 121.478ZM864.11 148.492C868.013 153.902 871.367 159.643 874.172 165.622L876.888 164.348C874.006 158.204 870.557 152.302 866.542 146.737L864.11 148.492ZM880.968 184.309C882.678 190.728 883.826 197.292 884.41 203.905L887.399 203.641C886.799 196.859 885.622 190.124 883.867 183.536L880.968 184.309ZM884.469 223.804C883.922 230.425 882.809 236.994 881.128 243.416L884.03 244.175C885.756 237.583 886.898 230.842 887.458 224.051L884.469 223.804ZM874.391 262.119C871.598 268.101 868.245 273.841 864.333 279.244L866.762 281.004C870.79 275.442 874.238 269.538 877.109 263.389L874.391 262.119ZM851.184 294.104C846.428 298.518 841.166 302.549 835.395 306.116L836.973 308.668C842.91 304.998 848.327 300.849 853.225 296.303L851.184 294.104ZM817.587 314.948C811.624 317.259 805.259 319.149 798.488 320.558L799.1 323.495C806.027 322.053 812.551 320.118 818.671 317.745L817.587 314.948ZM778.753 323.186C775.471 323.394 772.111 323.5 768.674 323.5L768.674 326.5C772.173 326.5 775.596 326.392 778.943 326.18L778.753 323.186Z" fill="black" fill-opacity="0.25"/>
<path d="M347.2 323.5C348.028 323.5 348.7 324.172 348.7 325C348.7 325.828 348.028 326.5 347.2 326.5L347.2 323.5ZM347.2 326.5C343.943 326.5 340.75 326.58 337.62 326.736L337.471 323.74C340.651 323.581 343.894 323.5 347.2 323.5L347.2 326.5ZM318.875 328.682C312.41 329.723 306.265 331.121 300.439 332.839L299.59 329.962C305.542 328.206 311.812 326.781 318.398 325.72L318.875 328.682ZM282.78 339.437C276.893 342.146 271.421 345.225 266.362 348.623L264.69 346.133C269.883 342.644 275.495 339.486 281.526 336.712L282.78 339.437ZM251.726 360.386C247.107 364.811 242.987 369.559 239.366 374.56L236.936 372.8C240.662 367.655 244.9 362.771 249.65 358.22L251.726 360.386ZM229.774 390.71C227.056 396.408 224.881 402.307 223.249 408.326L220.354 407.541C222.032 401.35 224.27 395.282 227.066 389.418L229.774 390.71ZM219.966 426.831C219.422 433.082 219.433 439.376 219.998 445.629L217.01 445.899C216.429 439.47 216.418 432.999 216.977 426.571L219.966 426.831ZM223.336 464.125C224.983 470.139 227.17 476.035 229.895 481.731L227.188 483.026C224.385 477.166 222.137 471.102 220.443 464.917L223.336 464.125ZM239.492 497.883C243.112 502.89 247.227 507.646 251.834 512.08L249.753 514.242C245.017 509.683 240.785 504.792 237.061 499.641L239.492 497.883ZM266.435 523.882C271.488 527.301 276.951 530.401 282.825 533.128L281.561 535.849C275.544 533.055 269.941 529.877 264.753 526.367L266.435 523.882ZM300.455 539.782C306.282 541.52 312.425 542.934 318.886 543.987L318.403 546.948C311.82 545.875 305.551 544.433 299.598 542.657L300.455 539.782ZM337.624 545.958C340.753 546.116 343.945 546.197 347.2 546.197L347.2 549.197C343.896 549.197 340.653 549.115 337.473 548.954L337.624 545.958Z" fill="black" fill-opacity="0.25"/>
<circle cx="138.525" cy="103.327" r="18.327" fill="#1C5DCD" fill-opacity="0.25"/>
<circle cx="138.525" cy="103.327" r="13.7452" fill="#1C5DCD"/>
<circle cx="1005.48" cy="547.327" r="18.327" fill="#1C5DCD" fill-opacity="0.25"/>
<circle cx="1005.48" cy="547.327" r="13.7452" fill="#1C5DCD"/>
<path d="M94.048 9.248L89.368 26H85.408L82.264 14.072L78.976 26L75.04 26.024L70.528 9.248H74.128L77.08 22.256L80.488 9.248H84.232L87.448 22.184L90.424 9.248H94.048ZM102.146 26.216C100.866 26.216 99.7139 25.936 98.6899 25.376C97.6659 24.8 96.8579 23.992 96.2659 22.952C95.6899 21.912 95.4019 20.712 95.4019 19.352C95.4019 17.992 95.6979 16.792 96.2899 15.752C96.8979 14.712 97.7219 13.912 98.7619 13.352C99.8019 12.776 100.962 12.488 102.242 12.488C103.522 12.488 104.682 12.776 105.722 13.352C106.762 13.912 107.578 14.712 108.17 15.752C108.778 16.792 109.082 17.992 109.082 19.352C109.082 20.712 108.77 21.912 108.146 22.952C107.538 23.992 106.706 24.8 105.65 25.376C104.61 25.936 103.442 26.216 102.146 26.216ZM102.146 23.288C102.754 23.288 103.322 23.144 103.85 22.856C104.394 22.552 104.826 22.104 105.146 21.512C105.466 20.92 105.626 20.2 105.626 19.352C105.626 18.088 105.29 17.12 104.618 16.448C103.962 15.76 103.154 15.416 102.194 15.416C101.234 15.416 100.426 15.76 99.7699 16.448C99.1299 17.12 98.8099 18.088 98.8099 19.352C98.8099 20.616 99.1219 21.592 99.7459 22.28C100.386 22.952 101.186 23.288 102.146 23.288ZM114.907 14.768C115.339 14.064 115.899 13.512 116.587 13.112C117.291 12.712 118.091 12.512 118.987 12.512V16.04H118.099C117.043 16.04 116.243 16.288 115.699 16.784C115.171 17.28 114.907 18.144 114.907 19.376V26H111.547V12.704H114.907V14.768ZM129.122 26L124.61 20.336V26H121.25V8.24H124.61V18.344L129.074 12.704H133.442L127.586 19.376L133.49 26H129.122ZM140.353 26.216C139.265 26.216 138.289 26.024 137.425 25.64C136.561 25.24 135.873 24.704 135.361 24.032C134.865 23.36 134.593 22.616 134.545 21.8H137.929C137.993 22.312 138.241 22.736 138.673 23.072C139.121 23.408 139.673 23.576 140.329 23.576C140.969 23.576 141.465 23.448 141.817 23.192C142.185 22.936 142.369 22.608 142.369 22.208C142.369 21.776 142.145 21.456 141.697 21.248C141.265 21.024 140.569 20.784 139.609 20.528C138.617 20.288 137.801 20.04 137.161 19.784C136.537 19.528 135.993 19.136 135.529 18.608C135.081 18.08 134.857 17.368 134.857 16.472C134.857 15.736 135.065 15.064 135.481 14.456C135.913 13.848 136.521 13.368 137.305 13.016C138.105 12.664 139.041 12.488 140.113 12.488C141.697 12.488 142.961 12.888 143.905 13.688C144.849 14.472 145.369 15.536 145.465 16.88H142.249C142.201 16.352 141.977 15.936 141.577 15.632C141.193 15.312 140.673 15.152 140.017 15.152C139.409 15.152 138.937 15.264 138.601 15.488C138.281 15.712 138.121 16.024 138.121 16.424C138.121 16.872 138.345 17.216 138.793 17.456C139.241 17.68 139.937 17.912 140.881 18.152C141.841 18.392 142.633 18.64 143.257 18.896C143.881 19.152 144.417 19.552 144.865 20.096C145.329 20.624 145.569 21.328 145.585 22.208C145.585 22.976 145.369 23.664 144.937 24.272C144.521 24.88 143.913 25.36 143.113 25.712C142.329 26.048 141.409 26.216 140.353 26.216ZM155.832 12.512C156.84 12.512 157.736 12.736 158.52 13.184C159.304 13.616 159.912 14.264 160.344 15.128C160.792 15.976 161.016 17 161.016 18.2V26H157.656V18.656C157.656 17.6 157.392 16.792 156.864 16.232C156.336 15.656 155.616 15.368 154.704 15.368C153.776 15.368 153.04 15.656 152.496 16.232C151.968 16.792 151.704 17.6 151.704 18.656V26H148.344V8.24H151.704V14.36C152.136 13.784 152.712 13.336 153.432 13.016C154.152 12.68 154.952 12.512 155.832 12.512ZM170.115 26.216C168.835 26.216 167.683 25.936 166.659 25.376C165.635 24.8 164.827 23.992 164.235 22.952C163.659 21.912 163.371 20.712 163.371 19.352C163.371 17.992 163.667 16.792 164.259 15.752C164.867 14.712 165.691 13.912 166.731 13.352C167.771 12.776 168.931 12.488 170.211 12.488C171.491 12.488 172.651 12.776 173.691 13.352C174.731 13.912 175.547 14.712 176.139 15.752C176.747 16.792 177.051 17.992 177.051 19.352C177.051 20.712 176.739 21.912 176.115 22.952C175.507 23.992 174.675 24.8 173.619 25.376C172.579 25.936 171.411 26.216 170.115 26.216ZM170.115 23.288C170.723 23.288 171.291 23.144 171.819 22.856C172.363 22.552 172.795 22.104 173.115 21.512C173.435 20.92 173.595 20.2 173.595 19.352C173.595 18.088 173.259 17.12 172.587 16.448C171.931 15.76 171.123 15.416 170.163 15.416C169.203 15.416 168.395 15.76 167.739 16.448C167.099 17.12 166.779 18.088 166.779 19.352C166.779 20.616 167.091 21.592 167.715 22.28C168.355 22.952 169.155 23.288 170.115 23.288ZM182.875 14.624C183.307 14.016 183.899 13.512 184.651 13.112C185.419 12.696 186.291 12.488 187.267 12.488C188.403 12.488 189.427 12.768 190.339 13.328C191.267 13.888 191.995 14.688 192.523 15.728C193.067 16.752 193.339 17.944 193.339 19.304C193.339 20.664 193.067 21.872 192.523 22.928C191.995 23.968 191.267 24.776 190.339 25.352C189.427 25.928 188.403 26.216 187.267 26.216C186.291 26.216 185.427 26.016 184.675 25.616C183.939 25.216 183.339 24.712 182.875 24.104V32.336H179.515V12.704H182.875V14.624ZM189.907 19.304C189.907 18.504 189.739 17.816 189.403 17.24C189.083 16.648 188.651 16.2 188.107 15.896C187.579 15.592 187.003 15.44 186.379 15.44C185.771 15.44 185.195 15.6 184.651 15.92C184.123 16.224 183.691 16.672 183.355 17.264C183.035 17.856 182.875 18.552 182.875 19.352C182.875 20.152 183.035 20.848 183.355 21.44C183.691 22.032 184.123 22.488 184.651 22.808C185.195 23.112 185.771 23.264 186.379 23.264C187.003 23.264 187.579 23.104 188.107 22.784C188.651 22.464 189.083 22.008 189.403 21.416C189.739 20.824 189.907 20.12 189.907 19.304ZM200.869 26.216C199.781 26.216 198.805 26.024 197.941 25.64C197.077 25.24 196.389 24.704 195.877 24.032C195.381 23.36 195.109 22.616 195.061 21.8H198.445C198.509 22.312 198.757 22.736 199.189 23.072C199.637 23.408 200.189 23.576 200.845 23.576C201.485 23.576 201.981 23.448 202.333 23.192C202.701 22.936 202.885 22.608 202.885 22.208C202.885 21.776 202.661 21.456 202.213 21.248C201.781 21.024 201.085 20.784 200.125 20.528C199.133 20.288 198.317 20.04 197.677 19.784C197.053 19.528 196.509 19.136 196.045 18.608C195.597 18.08 195.373 17.368 195.373 16.472C195.373 15.736 195.581 15.064 195.997 14.456C196.429 13.848 197.037 13.368 197.821 13.016C198.621 12.664 199.557 12.488 200.629 12.488C202.213 12.488 203.477 12.888 204.421 13.688C205.365 14.472 205.885 15.536 205.981 16.88H202.765C202.717 16.352 202.493 15.936 202.093 15.632C201.709 15.312 201.189 15.152 200.533 15.152C199.925 15.152 199.453 15.264 199.117 15.488C198.797 15.712 198.637 16.024 198.637 16.424C198.637 16.872 198.861 17.216 199.309 17.456C199.757 17.68 200.453 17.912 201.397 18.152C202.357 18.392 203.149 18.64 203.773 18.896C204.397 19.152 204.933 19.552 205.381 20.096C205.845 20.624 206.085 21.328 206.101 22.208C206.101 22.976 205.885 23.664 205.453 24.272C205.037 24.88 204.429 25.36 203.629 25.712C202.845 26.048 201.925 26.216 200.869 26.216Z" fill="#1C5DCD"/>
<path d="M57.824 51.52H52.96L52.064 54H50.528L54.56 42.912H56.24L60.256 54H58.72L57.824 51.52ZM57.408 50.336L55.392 44.704L53.376 50.336H57.408ZM63.4693 46.848C63.7573 46.3467 64.1839 45.9307 64.7493 45.6C65.3253 45.2587 65.9919 45.088 66.7493 45.088C67.5279 45.088 68.2319 45.2747 68.8612 45.648C69.5012 46.0213 70.0026 46.5493 70.3653 47.232C70.7279 47.904 70.9093 48.688 70.9093 49.584C70.9093 50.4693 70.7279 51.2587 70.3653 51.952C70.0026 52.6453 69.5012 53.184 68.8612 53.568C68.2319 53.952 67.5279 54.144 66.7493 54.144C66.0026 54.144 65.3413 53.9787 64.7653 53.648C64.1999 53.3067 63.7679 52.8853 63.4693 52.384V58.16H62.0133V45.232H63.4693V46.848ZM69.4213 49.584C69.4213 48.9227 69.2879 48.3467 69.0213 47.856C68.7546 47.3653 68.3919 46.992 67.9333 46.736C67.4853 46.48 66.9893 46.352 66.4453 46.352C65.9119 46.352 65.4159 46.4853 64.9573 46.752C64.5093 47.008 64.1466 47.3867 63.8693 47.888C63.6026 48.3787 63.4693 48.9493 63.4693 49.6C63.4693 50.2613 63.6026 50.8427 63.8693 51.344C64.1466 51.8347 64.5093 52.2133 64.9573 52.48C65.4159 52.736 65.9119 52.864 66.4453 52.864C66.9893 52.864 67.4853 52.736 67.9333 52.48C68.3919 52.2133 68.7546 51.8347 69.0213 51.344C69.2879 50.8427 69.4213 50.256 69.4213 49.584ZM74.2818 46.656C74.5378 46.1547 74.9004 45.7653 75.3698 45.488C75.8498 45.2107 76.4311 45.072 77.1138 45.072V46.576H76.7298C75.0978 46.576 74.2818 47.4613 74.2818 49.232V54H72.8258V45.232H74.2818V46.656ZM79.5465 43.808C79.2692 43.808 79.0345 43.712 78.8425 43.52C78.6505 43.328 78.5545 43.0933 78.5545 42.816C78.5545 42.5387 78.6505 42.304 78.8425 42.112C79.0345 41.92 79.2692 41.824 79.5465 41.824C79.8132 41.824 80.0372 41.92 80.2185 42.112C80.4105 42.304 80.5065 42.5387 80.5065 42.816C80.5065 43.0933 80.4105 43.328 80.2185 43.52C80.0372 43.712 79.8132 43.808 79.5465 43.808ZM80.2505 45.232V54H78.7945V45.232H80.2505ZM84.188 42.16V54H82.732V42.16H84.188ZM90.5191 52.832C91.8738 51.744 92.9351 50.8533 93.7031 50.16C94.4711 49.456 95.1165 48.7253 95.6391 47.968C96.1725 47.2 96.4391 46.448 96.4391 45.712C96.4391 45.0187 96.2685 44.4747 95.9271 44.08C95.5965 43.6747 95.0578 43.472 94.3111 43.472C93.5858 43.472 93.0205 43.7013 92.6151 44.16C92.2205 44.608 92.0071 45.2107 91.9751 45.968H90.5671C90.6098 44.7733 90.9725 43.8507 91.6551 43.2C92.3378 42.5493 93.2178 42.224 94.2951 42.224C95.3938 42.224 96.2631 42.528 96.9031 43.136C97.5538 43.744 97.8791 44.5813 97.8791 45.648C97.8791 46.5333 97.6125 47.3973 97.0791 48.24C96.5565 49.072 95.9591 49.808 95.2871 50.448C94.6151 51.0773 93.7565 51.8133 92.7111 52.656H98.2151V53.872H90.5191V52.832ZM99.5463 51.424V50.32L105.162 42.544H106.906V50.16H108.506V51.424H106.906V54H105.466V51.424H99.5463ZM105.53 44.064L101.226 50.16H105.53V44.064ZM120.546 47.52V48.752H114.162V47.52H120.546ZM138.857 42.928V54H137.401V45.744L133.721 54H132.697L129.001 45.728V54H127.545V42.928H129.113L133.209 52.08L137.305 42.928H138.857ZM140.782 49.584C140.782 48.688 140.963 47.904 141.326 47.232C141.688 46.5493 142.184 46.0213 142.814 45.648C143.454 45.2747 144.163 45.088 144.942 45.088C145.71 45.088 146.376 45.2533 146.942 45.584C147.507 45.9147 147.928 46.3307 148.206 46.832V45.232H149.678V54H148.206V52.368C147.918 52.88 147.486 53.3067 146.91 53.648C146.344 53.9787 145.683 54.144 144.926 54.144C144.147 54.144 143.443 53.952 142.814 53.568C142.184 53.184 141.688 52.6453 141.326 51.952C140.963 51.2587 140.782 50.4693 140.782 49.584ZM148.206 49.6C148.206 48.9387 148.072 48.3627 147.806 47.872C147.539 47.3813 147.176 47.008 146.718 46.752C146.27 46.4853 145.774 46.352 145.23 46.352C144.686 46.352 144.19 46.48 143.742 46.736C143.294 46.992 142.936 47.3653 142.67 47.856C142.403 48.3467 142.27 48.9227 142.27 49.584C142.27 50.256 142.403 50.8427 142.67 51.344C142.936 51.8347 143.294 52.2133 143.742 52.48C144.19 52.736 144.686 52.864 145.23 52.864C145.774 52.864 146.27 52.736 146.718 52.48C147.176 52.2133 147.539 51.8347 147.806 51.344C148.072 50.8427 148.206 50.2613 148.206 49.6ZM159.69 45.232L154.41 58.128H152.906L154.634 53.904L151.098 45.232H152.714L155.466 52.336L158.186 45.232H159.69ZM165.004 52.832C166.358 51.744 167.42 50.8533 168.188 50.16C168.956 49.456 169.601 48.7253 170.124 47.968C170.657 47.2 170.924 46.448 170.924 45.712C170.924 45.0187 170.753 44.4747 170.412 44.08C170.081 43.6747 169.542 43.472 168.796 43.472C168.07 43.472 167.505 43.7013 167.1 44.16C166.705 44.608 166.492 45.2107 166.46 45.968H165.052C165.094 44.7733 165.457 43.8507 166.14 43.2C166.822 42.5493 167.702 42.224 168.78 42.224C169.878 42.224 170.748 42.528 171.388 43.136C172.038 43.744 172.364 44.5813 172.364 45.648C172.364 46.5333 172.097 47.3973 171.564 48.24C171.041 49.072 170.444 49.808 169.772 50.448C169.1 51.0773 168.241 51.8133 167.196 52.656H172.7V53.872H165.004V52.832ZM174.207 52.832C175.561 51.744 176.623 50.8533 177.391 50.16C178.159 49.456 178.804 48.7253 179.327 47.968C179.86 47.2 180.127 46.448 180.127 45.712C180.127 45.0187 179.956 44.4747 179.615 44.08C179.284 43.6747 178.745 43.472 177.999 43.472C177.273 43.472 176.708 43.7013 176.303 44.16C175.908 44.608 175.695 45.2107 175.663 45.968H174.255C174.297 44.7733 174.66 43.8507 175.343 43.2C176.025 42.5493 176.905 42.224 177.983 42.224C179.081 42.224 179.951 42.528 180.591 43.136C181.241 43.744 181.567 44.5813 181.567 45.648C181.567 46.5333 181.3 47.3973 180.767 48.24C180.244 49.072 179.647 49.808 178.975 50.448C178.303 51.0773 177.444 51.8133 176.399 52.656H181.903V53.872H174.207V52.832ZM185.33 51.984L183.538 56.288H182.562L183.73 51.984H185.33ZM190.847 52.832C192.202 51.744 193.263 50.8533 194.031 50.16C194.799 49.456 195.445 48.7253 195.967 47.968C196.501 47.2 196.767 46.448 196.767 45.712C196.767 45.0187 196.597 44.4747 196.255 44.08C195.925 43.6747 195.386 43.472 194.639 43.472C193.914 43.472 193.349 43.7013 192.943 44.16C192.549 44.608 192.335 45.2107 192.303 45.968H190.895C190.938 44.7733 191.301 43.8507 191.983 43.2C192.666 42.5493 193.546 42.224 194.623 42.224C195.722 42.224 196.591 42.528 197.231 43.136C197.882 43.744 198.207 44.5813 198.207 45.648C198.207 46.5333 197.941 47.3973 197.407 48.24C196.885 49.072 196.287 49.808 195.615 50.448C194.943 51.0773 194.085 51.8133 193.039 52.656H198.543V53.872H190.847V52.832ZM200.226 48.096C200.226 46.2613 200.525 44.832 201.122 43.808C201.72 42.7733 202.765 42.256 204.258 42.256C205.741 42.256 206.781 42.7733 207.378 43.808C207.976 44.832 208.274 46.2613 208.274 48.096C208.274 49.9627 207.976 51.4133 207.378 52.448C206.781 53.4827 205.741 54 204.258 54C202.765 54 201.72 53.4827 201.122 52.448C200.525 51.4133 200.226 49.9627 200.226 48.096ZM206.834 48.096C206.834 47.168 206.77 46.384 206.642 45.744C206.525 45.0933 206.274 44.5707 205.89 44.176C205.517 43.7813 204.973 43.584 204.258 43.584C203.533 43.584 202.978 43.7813 202.594 44.176C202.221 44.5707 201.97 45.0933 201.842 45.744C201.725 46.384 201.666 47.168 201.666 48.096C201.666 49.056 201.725 49.8613 201.842 50.512C201.97 51.1627 202.221 51.6853 202.594 52.08C202.978 52.4747 203.533 52.672 204.258 52.672C204.973 52.672 205.517 52.4747 205.89 52.08C206.274 51.6853 206.525 51.1627 206.642 50.512C206.77 49.8613 206.834 49.056 206.834 48.096ZM210.097 52.832C211.452 51.744 212.513 50.8533 213.281 50.16C214.049 49.456 214.695 48.7253 215.217 47.968C215.751 47.2 216.017 46.448 216.017 45.712C216.017 45.0187 215.847 44.4747 215.505 44.08C215.175 43.6747 214.636 43.472 213.889 43.472C213.164 43.472 212.599 43.7013 212.193 44.16C211.799 44.608 211.585 45.2107 211.553 45.968H210.145C210.188 44.7733 210.551 43.8507 211.233 43.2C211.916 42.5493 212.796 42.224 213.873 42.224C214.972 42.224 215.841 42.528 216.481 43.136C217.132 43.744 217.457 44.5813 217.457 45.648C217.457 46.5333 217.191 47.3973 216.657 48.24C216.135 49.072 215.537 49.808 214.865 50.448C214.193 51.0773 213.335 51.8133 212.289 52.656H217.793V53.872H210.097V52.832ZM219.3 52.832C220.655 51.744 221.716 50.8533 222.484 50.16C223.252 49.456 223.898 48.7253 224.42 47.968C224.954 47.2 225.22 46.448 225.22 45.712C225.22 45.0187 225.05 44.4747 224.708 44.08C224.378 43.6747 223.839 43.472 223.092 43.472C222.367 43.472 221.802 43.7013 221.396 44.16C221.002 44.608 220.788 45.2107 220.756 45.968H219.348C219.391 44.7733 219.754 43.8507 220.436 43.2C221.119 42.5493 221.999 42.224 223.076 42.224C224.175 42.224 225.044 42.528 225.684 43.136C226.335 43.744 226.66 44.5813 226.66 45.648C226.66 46.5333 226.394 47.3973 225.86 48.24C225.338 49.072 224.74 49.808 224.068 50.448C223.396 51.0773 222.538 51.8133 221.492 52.656H226.996V53.872H219.3V52.832Z" fill="#363A42"/>
<path d="M970.296 470L966.6 463.472H965.016V470H961.656V453.248H967.944C969.24 453.248 970.344 453.48 971.256 453.944C972.168 454.392 972.848 455.008 973.296 455.792C973.76 456.56 973.992 457.424 973.992 458.384C973.992 459.488 973.672 460.488 973.032 461.384C972.392 462.264 971.44 462.872 970.176 463.208L974.184 470H970.296ZM965.016 460.952H967.824C968.736 460.952 969.416 460.736 969.864 460.304C970.312 459.856 970.536 459.24 970.536 458.456C970.536 457.688 970.312 457.096 969.864 456.68C969.416 456.248 968.736 456.032 967.824 456.032H965.016V460.952ZM989.391 463.064C989.391 463.544 989.359 463.976 989.295 464.36H979.575C979.655 465.32 979.991 466.072 980.583 466.616C981.175 467.16 981.903 467.432 982.767 467.432C984.015 467.432 984.903 466.896 985.431 465.824H989.055C988.671 467.104 987.935 468.16 986.847 468.992C985.759 469.808 984.423 470.216 982.839 470.216C981.559 470.216 980.407 469.936 979.383 469.376C978.375 468.8 977.583 467.992 977.007 466.952C976.447 465.912 976.167 464.712 976.167 463.352C976.167 461.976 976.447 460.768 977.007 459.728C977.567 458.688 978.351 457.888 979.359 457.328C980.367 456.768 981.527 456.488 982.839 456.488C984.103 456.488 985.231 456.76 986.223 457.304C987.231 457.848 988.007 458.624 988.551 459.632C989.111 460.624 989.391 461.768 989.391 463.064ZM985.911 462.104C985.895 461.24 985.583 460.552 984.975 460.04C984.367 459.512 983.623 459.248 982.743 459.248C981.911 459.248 981.207 459.504 980.631 460.016C980.071 460.512 979.727 461.208 979.599 462.104H985.911ZM996.932 470.216C995.844 470.216 994.868 470.024 994.004 469.64C993.14 469.24 992.452 468.704 991.94 468.032C991.444 467.36 991.172 466.616 991.124 465.8H994.508C994.572 466.312 994.82 466.736 995.252 467.072C995.7 467.408 996.252 467.576 996.908 467.576C997.548 467.576 998.044 467.448 998.396 467.192C998.764 466.936 998.948 466.608 998.948 466.208C998.948 465.776 998.724 465.456 998.276 465.248C997.844 465.024 997.148 464.784 996.188 464.528C995.196 464.288 994.38 464.04 993.74 463.784C993.116 463.528 992.572 463.136 992.108 462.608C991.66 462.08 991.436 461.368 991.436 460.472C991.436 459.736 991.644 459.064 992.06 458.456C992.492 457.848 993.1 457.368 993.884 457.016C994.684 456.664 995.62 456.488 996.692 456.488C998.276 456.488 999.54 456.888 1000.48 457.688C1001.43 458.472 1001.95 459.536 1002.04 460.88H998.828C998.78 460.352 998.556 459.936 998.156 459.632C997.772 459.312 997.252 459.152 996.596 459.152C995.988 459.152 995.516 459.264 995.18 459.488C994.86 459.712 994.7 460.024 994.7 460.424C994.7 460.872 994.924 461.216 995.372 461.456C995.82 461.68 996.516 461.912 997.46 462.152C998.42 462.392 999.212 462.64 999.836 462.896C1000.46 463.152 1001 463.552 1001.44 464.096C1001.91 464.624 1002.15 465.328 1002.16 466.208C1002.16 466.976 1001.95 467.664 1001.52 468.272C1001.1 468.88 1000.49 469.36 999.692 469.712C998.908 470.048 997.988 470.216 996.932 470.216ZM1017.47 456.704V470H1014.09V468.32C1013.66 468.896 1013.09 469.352 1012.39 469.688C1011.7 470.008 1010.95 470.168 1010.13 470.168C1009.09 470.168 1008.17 469.952 1007.37 469.52C1006.57 469.072 1005.94 468.424 1005.47 467.576C1005.03 466.712 1004.8 465.688 1004.8 464.504V456.704H1008.16V464.024C1008.16 465.08 1008.43 465.896 1008.95 466.472C1009.48 467.032 1010.2 467.312 1011.11 467.312C1012.04 467.312 1012.77 467.032 1013.3 466.472C1013.83 465.896 1014.09 465.08 1014.09 464.024V456.704H1017.47ZM1024.15 452.24V470H1020.79V452.24H1024.15ZM1031.38 459.464V465.896C1031.38 466.344 1031.48 466.672 1031.69 466.88C1031.92 467.072 1032.28 467.168 1032.8 467.168H1034.36V470H1032.24C1029.41 470 1028 468.624 1028 465.872V459.464H1026.41V456.704H1028V453.416H1031.38V456.704H1034.36V459.464H1031.38ZM1041.86 470.216C1040.77 470.216 1039.8 470.024 1038.93 469.64C1038.07 469.24 1037.38 468.704 1036.87 468.032C1036.37 467.36 1036.1 466.616 1036.05 465.8H1039.44C1039.5 466.312 1039.75 466.736 1040.18 467.072C1040.63 467.408 1041.18 467.576 1041.84 467.576C1042.48 467.576 1042.97 467.448 1043.33 467.192C1043.69 466.936 1043.88 466.608 1043.88 466.208C1043.88 465.776 1043.65 465.456 1043.21 465.248C1042.77 465.024 1042.08 464.784 1041.12 464.528C1040.13 464.288 1039.31 464.04 1038.67 463.784C1038.05 463.528 1037.5 463.136 1037.04 462.608C1036.59 462.08 1036.37 461.368 1036.37 460.472C1036.37 459.736 1036.57 459.064 1036.99 458.456C1037.42 457.848 1038.03 457.368 1038.81 457.016C1039.61 456.664 1040.55 456.488 1041.62 456.488C1043.21 456.488 1044.47 456.888 1045.41 457.688C1046.36 458.472 1046.88 459.536 1046.97 460.88H1043.76C1043.71 460.352 1043.49 459.936 1043.09 459.632C1042.7 459.312 1042.18 459.152 1041.53 459.152C1040.92 459.152 1040.45 459.264 1040.11 459.488C1039.79 459.712 1039.63 460.024 1039.63 460.424C1039.63 460.872 1039.85 461.216 1040.3 461.456C1040.75 461.68 1041.45 461.912 1042.39 462.152C1043.35 462.392 1044.14 462.64 1044.77 462.896C1045.39 463.152 1045.93 463.552 1046.37 464.096C1046.84 464.624 1047.08 465.328 1047.09 466.208C1047.09 466.976 1046.88 467.664 1046.45 468.272C1046.03 468.88 1045.42 469.36 1044.62 469.712C1043.84 470.048 1042.92 470.216 1041.86 470.216Z" fill="#1C5DCD"/>
<path d="M959.848 486.848V495.088C959.848 496.005 959.565 496.741 959 497.296C958.435 497.84 957.688 498.112 956.76 498.112C955.821 498.112 955.069 497.835 954.504 497.28C953.939 496.715 953.656 495.947 953.656 494.976H955.112C955.123 495.52 955.261 495.963 955.528 496.304C955.805 496.645 956.216 496.816 956.76 496.816C957.304 496.816 957.709 496.656 957.976 496.336C958.243 496.005 958.376 495.589 958.376 495.088V486.848H959.848ZM970.492 489.232V498H969.036V496.704C968.759 497.152 968.37 497.504 967.868 497.76C967.378 498.005 966.834 498.128 966.236 498.128C965.554 498.128 964.94 497.989 964.396 497.712C963.852 497.424 963.42 496.997 963.1 496.432C962.791 495.867 962.636 495.179 962.636 494.368V489.232H964.076V494.176C964.076 495.04 964.295 495.707 964.732 496.176C965.17 496.635 965.767 496.864 966.524 496.864C967.303 496.864 967.916 496.624 968.364 496.144C968.812 495.664 969.036 494.965 969.036 494.048V489.232H970.492ZM977.223 489.072C978.289 489.072 979.153 489.397 979.815 490.048C980.476 490.688 980.807 491.616 980.807 492.832V498H979.367V493.04C979.367 492.165 979.148 491.499 978.711 491.04C978.273 490.571 977.676 490.336 976.919 490.336C976.151 490.336 975.537 490.576 975.079 491.056C974.631 491.536 974.407 492.235 974.407 493.152V498H972.951V489.232H974.407V490.48C974.695 490.032 975.084 489.685 975.575 489.44C976.076 489.195 976.625 489.072 977.223 489.072ZM991.185 493.28C991.185 493.557 991.169 493.851 991.137 494.16H984.129C984.182 495.024 984.476 495.701 985.009 496.192C985.553 496.672 986.209 496.912 986.977 496.912C987.606 496.912 988.129 496.768 988.545 496.48C988.972 496.181 989.27 495.787 989.441 495.296H991.009C990.774 496.139 990.305 496.827 989.601 497.36C988.897 497.883 988.022 498.144 986.977 498.144C986.145 498.144 985.398 497.957 984.737 497.584C984.086 497.211 983.574 496.683 983.201 496C982.828 495.307 982.641 494.507 982.641 493.6C982.641 492.693 982.822 491.899 983.185 491.216C983.548 490.533 984.054 490.011 984.705 489.648C985.366 489.275 986.124 489.088 986.977 489.088C987.809 489.088 988.545 489.269 989.185 489.632C989.825 489.995 990.316 490.496 990.657 491.136C991.009 491.765 991.185 492.48 991.185 493.28ZM989.681 492.976C989.681 492.421 989.558 491.947 989.313 491.552C989.068 491.147 988.732 490.843 988.305 490.64C987.889 490.427 987.425 490.32 986.913 490.32C986.177 490.32 985.548 490.555 985.025 491.024C984.513 491.493 984.22 492.144 984.145 492.976H989.681ZM996.749 487.76V486.432H999.757V498H998.285V487.76H996.749ZM1002.23 489.344C1002.3 488.363 1002.68 487.595 1003.36 487.04C1004.04 486.485 1004.93 486.208 1006.02 486.208C1006.74 486.208 1007.37 486.341 1007.89 486.608C1008.42 486.864 1008.82 487.216 1009.09 487.664C1009.37 488.112 1009.51 488.619 1009.51 489.184C1009.51 489.845 1009.31 490.416 1008.93 490.896C1008.56 491.376 1008.07 491.685 1007.46 491.824V491.904C1008.15 492.075 1008.7 492.411 1009.11 492.912C1009.51 493.413 1009.71 494.069 1009.71 494.88C1009.71 495.488 1009.57 496.037 1009.3 496.528C1009.02 497.008 1008.6 497.387 1008.05 497.664C1007.49 497.941 1006.83 498.08 1006.05 498.08C1004.92 498.08 1003.99 497.787 1003.27 497.2C1002.54 496.603 1002.13 495.76 1002.05 494.672H1003.46C1003.53 495.312 1003.79 495.835 1004.24 496.24C1004.69 496.645 1005.29 496.848 1006.03 496.848C1006.78 496.848 1007.35 496.656 1007.73 496.272C1008.12 495.877 1008.32 495.371 1008.32 494.752C1008.32 493.952 1008.05 493.376 1007.52 493.024C1006.99 492.672 1006.18 492.496 1005.11 492.496H1004.74V491.28H1005.12C1006.1 491.269 1006.84 491.109 1007.35 490.8C1007.85 490.48 1008.1 489.989 1008.1 489.328C1008.1 488.763 1007.91 488.309 1007.54 487.968C1007.17 487.627 1006.65 487.456 1005.97 487.456C1005.31 487.456 1004.77 487.627 1004.37 487.968C1003.96 488.309 1003.72 488.768 1003.65 489.344H1002.23ZM1013.42 495.984L1011.63 500.288H1010.66L1011.82 495.984H1013.42ZM1018.94 496.832C1020.3 495.744 1021.36 494.853 1022.12 494.16C1022.89 493.456 1023.54 492.725 1024.06 491.968C1024.59 491.2 1024.86 490.448 1024.86 489.712C1024.86 489.019 1024.69 488.475 1024.35 488.08C1024.02 487.675 1023.48 487.472 1022.73 487.472C1022.01 487.472 1021.44 487.701 1021.04 488.16C1020.64 488.608 1020.43 489.211 1020.4 489.968H1018.99C1019.03 488.773 1019.39 487.851 1020.08 487.2C1020.76 486.549 1021.64 486.224 1022.72 486.224C1023.82 486.224 1024.69 486.528 1025.33 487.136C1025.98 487.744 1026.3 488.581 1026.3 489.648C1026.3 490.533 1026.03 491.397 1025.5 492.24C1024.98 493.072 1024.38 493.808 1023.71 494.448C1023.04 495.077 1022.18 495.813 1021.13 496.656H1026.64V497.872H1018.94V496.832ZM1028.32 492.096C1028.32 490.261 1028.62 488.832 1029.22 487.808C1029.81 486.773 1030.86 486.256 1032.35 486.256C1033.83 486.256 1034.87 486.773 1035.47 487.808C1036.07 488.832 1036.37 490.261 1036.37 492.096C1036.37 493.963 1036.07 495.413 1035.47 496.448C1034.87 497.483 1033.83 498 1032.35 498C1030.86 498 1029.81 497.483 1029.22 496.448C1028.62 495.413 1028.32 493.963 1028.32 492.096ZM1034.93 492.096C1034.93 491.168 1034.86 490.384 1034.74 489.744C1034.62 489.093 1034.37 488.571 1033.98 488.176C1033.61 487.781 1033.07 487.584 1032.35 487.584C1031.63 487.584 1031.07 487.781 1030.69 488.176C1030.31 488.571 1030.06 489.093 1029.94 489.744C1029.82 490.384 1029.76 491.168 1029.76 492.096C1029.76 493.056 1029.82 493.861 1029.94 494.512C1030.06 495.163 1030.31 495.685 1030.69 496.08C1031.07 496.475 1031.63 496.672 1032.35 496.672C1033.07 496.672 1033.61 496.475 1033.98 496.08C1034.37 495.685 1034.62 495.163 1034.74 494.512C1034.86 493.861 1034.93 493.056 1034.93 492.096ZM1038.19 496.832C1039.55 495.744 1040.61 494.853 1041.38 494.16C1042.14 493.456 1042.79 492.725 1043.31 491.968C1043.84 491.2 1044.11 490.448 1044.11 489.712C1044.11 489.019 1043.94 488.475 1043.6 488.08C1043.27 487.675 1042.73 487.472 1041.98 487.472C1041.26 487.472 1040.69 487.701 1040.29 488.16C1039.89 488.608 1039.68 489.211 1039.65 489.968H1038.24C1038.28 488.773 1038.64 487.851 1039.33 487.2C1040.01 486.549 1040.89 486.224 1041.97 486.224C1043.07 486.224 1043.94 486.528 1044.58 487.136C1045.23 487.744 1045.55 488.581 1045.55 489.648C1045.55 490.533 1045.28 491.397 1044.75 492.24C1044.23 493.072 1043.63 493.808 1042.96 494.448C1042.29 495.077 1041.43 495.813 1040.38 496.656H1045.89V497.872H1038.19V496.832ZM1047.39 496.832C1048.75 495.744 1049.81 494.853 1050.58 494.16C1051.35 493.456 1051.99 492.725 1052.51 491.968C1053.05 491.2 1053.31 490.448 1053.31 489.712C1053.31 489.019 1053.14 488.475 1052.8 488.08C1052.47 487.675 1051.93 487.472 1051.19 487.472C1050.46 487.472 1049.9 487.701 1049.49 488.16C1049.1 488.608 1048.88 489.211 1048.85 489.968H1047.44C1047.48 488.773 1047.85 487.851 1048.53 487.2C1049.21 486.549 1050.09 486.224 1051.17 486.224C1052.27 486.224 1053.14 486.528 1053.78 487.136C1054.43 487.744 1054.75 488.581 1054.75 489.648C1054.75 490.533 1054.49 491.397 1053.95 492.24C1053.43 493.072 1052.83 493.808 1052.16 494.448C1051.49 495.077 1050.63 495.813 1049.59 496.656H1055.09V497.872H1047.39V496.832Z" fill="#363A42"/>
<circle cx="609.475" cy="547.327" r="18.327" fill="#1C5DCD" fill-opacity="0.25"/>
<circle cx="609.475" cy="547.327" r="13.7452" fill="#1C5DCD"/>
<path d="M556.552 601.248V618H553.192V610.872H546.016V618H542.656V601.248H546.016V608.136H553.192V601.248H556.552ZM558.995 611.304C558.995 609.96 559.259 608.768 559.787 607.728C560.331 606.688 561.059 605.888 561.971 605.328C562.899 604.768 563.931 604.488 565.067 604.488C566.059 604.488 566.923 604.688 567.659 605.088C568.411 605.488 569.011 605.992 569.459 606.6V604.704H572.843V618H569.459V616.056C569.027 616.68 568.427 617.2 567.659 617.616C566.907 618.016 566.035 618.216 565.043 618.216C563.923 618.216 562.899 617.928 561.971 617.352C561.059 616.776 560.331 615.968 559.787 614.928C559.259 613.872 558.995 612.664 558.995 611.304ZM569.459 611.352C569.459 610.536 569.299 609.84 568.979 609.264C568.659 608.672 568.227 608.224 567.683 607.92C567.139 607.6 566.555 607.44 565.931 607.44C565.307 607.44 564.731 607.592 564.203 607.896C563.675 608.2 563.243 608.648 562.907 609.24C562.587 609.816 562.427 610.504 562.427 611.304C562.427 612.104 562.587 612.808 562.907 613.416C563.243 614.008 563.675 614.464 564.203 614.784C564.747 615.104 565.323 615.264 565.931 615.264C566.555 615.264 567.139 615.112 567.683 614.808C568.227 614.488 568.659 614.04 568.979 613.464C569.299 612.872 569.459 612.168 569.459 611.352ZM575.261 611.352C575.261 609.976 575.541 608.776 576.101 607.752C576.661 606.712 577.437 605.912 578.429 605.352C579.421 604.776 580.557 604.488 581.837 604.488C583.485 604.488 584.845 604.904 585.917 605.736C587.005 606.552 587.733 607.704 588.101 609.192H584.477C584.285 608.616 583.957 608.168 583.493 607.848C583.045 607.512 582.485 607.344 581.813 607.344C580.853 607.344 580.093 607.696 579.533 608.4C578.973 609.088 578.693 610.072 578.693 611.352C578.693 612.616 578.973 613.6 579.533 614.304C580.093 614.992 580.853 615.336 581.813 615.336C583.173 615.336 584.061 614.728 584.477 613.512H588.101C587.733 614.952 587.005 616.096 585.917 616.944C584.829 617.792 583.469 618.216 581.837 618.216C580.557 618.216 579.421 617.936 578.429 617.376C577.437 616.8 576.661 616 576.101 614.976C575.541 613.936 575.261 612.728 575.261 611.352ZM598.434 618L593.922 612.336V618H590.562V600.24H593.922V610.344L598.386 604.704H602.754L596.898 611.376L602.802 618H598.434ZM603.714 611.304C603.714 609.96 603.978 608.768 604.506 607.728C605.05 606.688 605.778 605.888 606.69 605.328C607.618 604.768 608.65 604.488 609.786 604.488C610.778 604.488 611.642 604.688 612.378 605.088C613.13 605.488 613.73 605.992 614.178 606.6V604.704H617.562V618H614.178V616.056C613.746 616.68 613.146 617.2 612.378 617.616C611.626 618.016 610.754 618.216 609.762 618.216C608.642 618.216 607.618 617.928 606.69 617.352C605.778 616.776 605.05 615.968 604.506 614.928C603.978 613.872 603.714 612.664 603.714 611.304ZM614.178 611.352C614.178 610.536 614.018 609.84 613.698 609.264C613.378 608.672 612.946 608.224 612.402 607.92C611.858 607.6 611.274 607.44 610.65 607.44C610.026 607.44 609.45 607.592 608.922 607.896C608.394 608.2 607.962 608.648 607.626 609.24C607.306 609.816 607.146 610.504 607.146 611.304C607.146 612.104 607.306 612.808 607.626 613.416C607.962 614.008 608.394 614.464 608.922 614.784C609.466 615.104 610.042 615.264 610.65 615.264C611.274 615.264 611.858 615.112 612.402 614.808C612.946 614.488 613.378 614.04 613.698 613.464C614.018 612.872 614.178 612.168 614.178 611.352ZM624.756 607.464V613.896C624.756 614.344 624.86 614.672 625.068 614.88C625.292 615.072 625.66 615.168 626.172 615.168H627.732V618H625.62C622.788 618 621.372 616.624 621.372 613.872V607.464H619.788V604.704H621.372V601.416H624.756V604.704H627.732V607.464H624.756ZM637.636 604.512C638.644 604.512 639.54 604.736 640.324 605.184C641.108 605.616 641.716 606.264 642.148 607.128C642.596 607.976 642.82 609 642.82 610.2V618H639.46V610.656C639.46 609.6 639.196 608.792 638.668 608.232C638.14 607.656 637.42 607.368 636.508 607.368C635.58 607.368 634.844 607.656 634.3 608.232C633.772 608.792 633.508 609.6 633.508 610.656V618H630.148V600.24H633.508V606.36C633.94 605.784 634.516 605.336 635.236 605.016C635.956 604.68 636.756 604.512 637.636 604.512ZM651.919 618.216C650.639 618.216 649.487 617.936 648.463 617.376C647.439 616.8 646.631 615.992 646.039 614.952C645.463 613.912 645.175 612.712 645.175 611.352C645.175 609.992 645.471 608.792 646.063 607.752C646.671 606.712 647.495 605.912 648.535 605.352C649.575 604.776 650.735 604.488 652.015 604.488C653.295 604.488 654.455 604.776 655.495 605.352C656.535 605.912 657.351 606.712 657.943 607.752C658.551 608.792 658.855 609.992 658.855 611.352C658.855 612.712 658.543 613.912 657.919 614.952C657.311 615.992 656.479 616.8 655.423 617.376C654.383 617.936 653.215 618.216 651.919 618.216ZM651.919 615.288C652.527 615.288 653.095 615.144 653.623 614.856C654.167 614.552 654.599 614.104 654.919 613.512C655.239 612.92 655.399 612.2 655.399 611.352C655.399 610.088 655.063 609.12 654.391 608.448C653.735 607.76 652.927 607.416 651.967 607.416C651.007 607.416 650.199 607.76 649.543 608.448C648.903 609.12 648.583 610.088 648.583 611.352C648.583 612.616 648.895 613.592 649.519 614.28C650.159 614.952 650.959 615.288 651.919 615.288ZM668.688 604.512C670.272 604.512 671.552 605.016 672.528 606.024C673.504 607.016 673.992 608.408 673.992 610.2V618H670.632V610.656C670.632 609.6 670.368 608.792 669.84 608.232C669.312 607.656 668.592 607.368 667.68 607.368C666.752 607.368 666.016 607.656 665.472 608.232C664.944 608.792 664.68 609.6 664.68 610.656V618H661.32V604.704H664.68V606.36C665.128 605.784 665.696 605.336 666.384 605.016C667.088 604.68 667.856 604.512 668.688 604.512Z" fill="#1C5DCD"/>
<path d="M549.848 634.848V643.088C549.848 644.005 549.565 644.741 549 645.296C548.435 645.84 547.688 646.112 546.76 646.112C545.821 646.112 545.069 645.835 544.504 645.28C543.939 644.715 543.656 643.947 543.656 642.976H545.112C545.123 643.52 545.261 643.963 545.528 644.304C545.805 644.645 546.216 644.816 546.76 644.816C547.304 644.816 547.709 644.656 547.976 644.336C548.243 644.005 548.376 643.589 548.376 643.088V634.848H549.848ZM560.492 637.232V646H559.036V644.704C558.759 645.152 558.37 645.504 557.868 645.76C557.378 646.005 556.834 646.128 556.236 646.128C555.554 646.128 554.94 645.989 554.396 645.712C553.852 645.424 553.42 644.997 553.1 644.432C552.791 643.867 552.636 643.179 552.636 642.368V637.232H554.076V642.176C554.076 643.04 554.295 643.707 554.732 644.176C555.17 644.635 555.767 644.864 556.524 644.864C557.303 644.864 557.916 644.624 558.364 644.144C558.812 643.664 559.036 642.965 559.036 642.048V637.232H560.492ZM567.223 637.072C568.289 637.072 569.153 637.397 569.815 638.048C570.476 638.688 570.807 639.616 570.807 640.832V646H569.367V641.04C569.367 640.165 569.148 639.499 568.711 639.04C568.273 638.571 567.676 638.336 566.919 638.336C566.151 638.336 565.537 638.576 565.079 639.056C564.631 639.536 564.407 640.235 564.407 641.152V646H562.951V637.232H564.407V638.48C564.695 638.032 565.084 637.685 565.575 637.44C566.076 637.195 566.625 637.072 567.223 637.072ZM581.185 641.28C581.185 641.557 581.169 641.851 581.137 642.16H574.129C574.182 643.024 574.476 643.701 575.009 644.192C575.553 644.672 576.209 644.912 576.977 644.912C577.606 644.912 578.129 644.768 578.545 644.48C578.972 644.181 579.27 643.787 579.441 643.296H581.009C580.774 644.139 580.305 644.827 579.601 645.36C578.897 645.883 578.022 646.144 576.977 646.144C576.145 646.144 575.398 645.957 574.737 645.584C574.086 645.211 573.574 644.683 573.201 644C572.828 643.307 572.641 642.507 572.641 641.6C572.641 640.693 572.822 639.899 573.185 639.216C573.548 638.533 574.054 638.011 574.705 637.648C575.366 637.275 576.124 637.088 576.977 637.088C577.809 637.088 578.545 637.269 579.185 637.632C579.825 637.995 580.316 638.496 580.657 639.136C581.009 639.765 581.185 640.48 581.185 641.28ZM579.681 640.976C579.681 640.421 579.558 639.947 579.313 639.552C579.068 639.147 578.732 638.843 578.305 638.64C577.889 638.427 577.425 638.32 576.913 638.32C576.177 638.32 575.548 638.555 575.025 639.024C574.513 639.493 574.22 640.144 574.145 640.976H579.681ZM586.749 635.76V634.432H589.757V646H588.285V635.76H586.749ZM591.874 635.76V634.432H594.882V646H593.41V635.76H591.874ZM607.968 639.52V640.752H601.584V639.52H607.968ZM614.342 635.76V634.432H617.35V646H615.878V635.76H614.342ZM619.675 644.832C621.03 643.744 622.091 642.853 622.859 642.16C623.627 641.456 624.273 640.725 624.795 639.968C625.329 639.2 625.595 638.448 625.595 637.712C625.595 637.019 625.425 636.475 625.083 636.08C624.753 635.675 624.214 635.472 623.467 635.472C622.742 635.472 622.177 635.701 621.771 636.16C621.377 636.608 621.163 637.211 621.131 637.968H619.723C619.766 636.773 620.129 635.851 620.811 635.2C621.494 634.549 622.374 634.224 623.451 634.224C624.55 634.224 625.419 634.528 626.059 635.136C626.71 635.744 627.035 636.581 627.035 637.648C627.035 638.533 626.769 639.397 626.235 640.24C625.713 641.072 625.115 641.808 624.443 642.448C623.771 643.077 622.913 643.813 621.867 644.656H627.371V645.872H619.675V644.832ZM630.799 643.984L629.007 648.288H628.03L629.199 643.984H630.799ZM636.316 644.832C637.671 643.744 638.732 642.853 639.5 642.16C640.268 641.456 640.913 640.725 641.436 639.968C641.969 639.2 642.236 638.448 642.236 637.712C642.236 637.019 642.065 636.475 641.724 636.08C641.393 635.675 640.855 635.472 640.108 635.472C639.383 635.472 638.817 635.701 638.412 636.16C638.017 636.608 637.804 637.211 637.772 637.968H636.364C636.407 636.773 636.769 635.851 637.452 635.2C638.135 634.549 639.015 634.224 640.092 634.224C641.191 634.224 642.06 634.528 642.7 635.136C643.351 635.744 643.676 636.581 643.676 637.648C643.676 638.533 643.409 639.397 642.876 640.24C642.353 641.072 641.756 641.808 641.084 642.448C640.412 643.077 639.553 643.813 638.508 644.656H644.012V645.872H636.316V644.832ZM645.695 640.096C645.695 638.261 645.994 636.832 646.591 635.808C647.188 634.773 648.234 634.256 649.727 634.256C651.21 634.256 652.25 634.773 652.847 635.808C653.444 636.832 653.743 638.261 653.743 640.096C653.743 641.963 653.444 643.413 652.847 644.448C652.25 645.483 651.21 646 649.727 646C648.234 646 647.188 645.483 646.591 644.448C645.994 643.413 645.695 641.963 645.695 640.096ZM652.303 640.096C652.303 639.168 652.239 638.384 652.111 637.744C651.994 637.093 651.743 636.571 651.359 636.176C650.986 635.781 650.442 635.584 649.727 635.584C649.002 635.584 648.447 635.781 648.063 636.176C647.69 636.571 647.439 637.093 647.311 637.744C647.194 638.384 647.135 639.168 647.135 640.096C647.135 641.056 647.194 641.861 647.311 642.512C647.439 643.163 647.69 643.685 648.063 644.08C648.447 644.475 649.002 644.672 649.727 644.672C650.442 644.672 650.986 644.475 651.359 644.08C651.743 643.685 651.994 643.163 652.111 642.512C652.239 641.861 652.303 641.056 652.303 640.096ZM655.566 644.832C656.921 643.744 657.982 642.853 658.75 642.16C659.518 641.456 660.163 640.725 660.686 639.968C661.219 639.2 661.486 638.448 661.486 637.712C661.486 637.019 661.315 636.475 660.974 636.08C660.643 635.675 660.105 635.472 659.358 635.472C658.633 635.472 658.067 635.701 657.662 636.16C657.267 636.608 657.054 637.211 657.022 637.968H655.614C655.657 636.773 656.019 635.851 656.702 635.2C657.385 634.549 658.265 634.224 659.342 634.224C660.441 634.224 661.31 634.528 661.95 635.136C662.601 635.744 662.926 636.581 662.926 637.648C662.926 638.533 662.659 639.397 662.126 640.24C661.603 641.072 661.006 641.808 660.334 642.448C659.662 643.077 658.803 643.813 657.758 644.656H663.262V645.872H655.566V644.832ZM664.769 644.832C666.124 643.744 667.185 642.853 667.953 642.16C668.721 641.456 669.366 640.725 669.889 639.968C670.422 639.2 670.689 638.448 670.689 637.712C670.689 637.019 670.518 636.475 670.177 636.08C669.846 635.675 669.308 635.472 668.561 635.472C667.836 635.472 667.27 635.701 666.865 636.16C666.47 636.608 666.257 637.211 666.225 637.968H664.817C664.86 636.773 665.222 635.851 665.905 635.2C666.588 634.549 667.468 634.224 668.545 634.224C669.644 634.224 670.513 634.528 671.153 635.136C671.804 635.744 672.129 636.581 672.129 637.648C672.129 638.533 671.862 639.397 671.329 640.24C670.806 641.072 670.209 641.808 669.537 642.448C668.865 643.077 668.006 643.813 666.961 644.656H672.465V645.872H664.769V644.832Z" fill="#363A42"/>
<circle cx="886.475" cy="204.327" r="18.327" fill="#1C5DCD" fill-opacity="0.25"/>
<circle cx="886.475" cy="204.327" r="13.7452" fill="#1C5DCD"/>
<path d="M932.016 183.248V200H928.656V183.248H932.016ZM934.472 193.304C934.472 191.96 934.736 190.768 935.264 189.728C935.808 188.688 936.544 187.888 937.472 187.328C938.4 186.768 939.432 186.488 940.568 186.488C941.432 186.488 942.256 186.68 943.04 187.064C943.824 187.432 944.448 187.928 944.912 188.552V182.24H948.32V200H944.912V198.032C944.496 198.688 943.912 199.216 943.16 199.616C942.408 200.016 941.536 200.216 940.544 200.216C939.424 200.216 938.4 199.928 937.472 199.352C936.544 198.776 935.808 197.968 935.264 196.928C934.736 195.872 934.472 194.664 934.472 193.304ZM944.936 193.352C944.936 192.536 944.776 191.84 944.456 191.264C944.136 190.672 943.704 190.224 943.16 189.92C942.616 189.6 942.032 189.44 941.408 189.44C940.784 189.44 940.208 189.592 939.68 189.896C939.152 190.2 938.72 190.648 938.384 191.24C938.064 191.816 937.904 192.504 937.904 193.304C937.904 194.104 938.064 194.808 938.384 195.416C938.72 196.008 939.152 196.464 939.68 196.784C940.224 197.104 940.8 197.264 941.408 197.264C942.032 197.264 942.616 197.112 943.16 196.808C943.704 196.488 944.136 196.04 944.456 195.464C944.776 194.872 944.936 194.168 944.936 193.352ZM963.961 193.064C963.961 193.544 963.929 193.976 963.865 194.36H954.145C954.225 195.32 954.561 196.072 955.153 196.616C955.745 197.16 956.473 197.432 957.337 197.432C958.585 197.432 959.473 196.896 960.001 195.824H963.625C963.241 197.104 962.505 198.16 961.417 198.992C960.329 199.808 958.993 200.216 957.409 200.216C956.129 200.216 954.977 199.936 953.953 199.376C952.945 198.8 952.153 197.992 951.577 196.952C951.017 195.912 950.737 194.712 950.737 193.352C950.737 191.976 951.017 190.768 951.577 189.728C952.137 188.688 952.921 187.888 953.929 187.328C954.937 186.768 956.097 186.488 957.409 186.488C958.673 186.488 959.801 186.76 960.793 187.304C961.801 187.848 962.577 188.624 963.121 189.632C963.681 190.624 963.961 191.768 963.961 193.064ZM960.481 192.104C960.465 191.24 960.153 190.552 959.545 190.04C958.937 189.512 958.193 189.248 957.313 189.248C956.481 189.248 955.777 189.504 955.201 190.016C954.641 190.512 954.297 191.208 954.169 192.104H960.481ZM965.55 193.304C965.55 191.96 965.814 190.768 966.342 189.728C966.886 188.688 967.614 187.888 968.526 187.328C969.454 186.768 970.486 186.488 971.622 186.488C972.614 186.488 973.478 186.688 974.214 187.088C974.966 187.488 975.566 187.992 976.014 188.6V186.704H979.398V200H976.014V198.056C975.582 198.68 974.982 199.2 974.214 199.616C973.462 200.016 972.59 200.216 971.598 200.216C970.478 200.216 969.454 199.928 968.526 199.352C967.614 198.776 966.886 197.968 966.342 196.928C965.814 195.872 965.55 194.664 965.55 193.304ZM976.014 193.352C976.014 192.536 975.854 191.84 975.534 191.264C975.214 190.672 974.782 190.224 974.238 189.92C973.694 189.6 973.11 189.44 972.486 189.44C971.862 189.44 971.286 189.592 970.758 189.896C970.23 190.2 969.798 190.648 969.462 191.24C969.142 191.816 968.982 192.504 968.982 193.304C968.982 194.104 969.142 194.808 969.462 195.416C969.798 196.008 970.23 196.464 970.758 196.784C971.302 197.104 971.878 197.264 972.486 197.264C973.11 197.264 973.694 197.112 974.238 196.808C974.782 196.488 975.214 196.04 975.534 195.464C975.854 194.872 976.014 194.168 976.014 193.352ZM986.591 189.464V195.896C986.591 196.344 986.695 196.672 986.903 196.88C987.127 197.072 987.495 197.168 988.007 197.168H989.567V200H987.455C984.623 200 983.207 198.624 983.207 195.872V189.464H981.623V186.704H983.207V183.416H986.591V186.704H989.567V189.464H986.591ZM993.688 185.12C993.096 185.12 992.6 184.936 992.2 184.568C991.816 184.184 991.624 183.712 991.624 183.152C991.624 182.592 991.816 182.128 992.2 181.76C992.6 181.376 993.096 181.184 993.688 181.184C994.28 181.184 994.768 181.376 995.152 181.76C995.552 182.128 995.752 182.592 995.752 183.152C995.752 183.712 995.552 184.184 995.152 184.568C994.768 184.936 994.28 185.12 993.688 185.12ZM995.344 186.704V200H991.984V186.704H995.344ZM1004.57 200.216C1003.29 200.216 1002.14 199.936 1001.11 199.376C1000.09 198.8 999.28 197.992 998.688 196.952C998.112 195.912 997.824 194.712 997.824 193.352C997.824 191.992 998.12 190.792 998.712 189.752C999.32 188.712 1000.14 187.912 1001.18 187.352C1002.22 186.776 1003.38 186.488 1004.66 186.488C1005.94 186.488 1007.1 186.776 1008.14 187.352C1009.18 187.912 1010 188.712 1010.59 189.752C1011.2 190.792 1011.5 191.992 1011.5 193.352C1011.5 194.712 1011.19 195.912 1010.57 196.952C1009.96 197.992 1009.13 198.8 1008.07 199.376C1007.03 199.936 1005.86 200.216 1004.57 200.216ZM1004.57 197.288C1005.18 197.288 1005.74 197.144 1006.27 196.856C1006.82 196.552 1007.25 196.104 1007.57 195.512C1007.89 194.92 1008.05 194.2 1008.05 193.352C1008.05 192.088 1007.71 191.12 1007.04 190.448C1006.38 189.76 1005.58 189.416 1004.62 189.416C1003.66 189.416 1002.85 189.76 1002.19 190.448C1001.55 191.12 1001.23 192.088 1001.23 193.352C1001.23 194.616 1001.54 195.592 1002.17 196.28C1002.81 196.952 1003.61 197.288 1004.57 197.288ZM1021.34 186.512C1022.92 186.512 1024.2 187.016 1025.18 188.024C1026.15 189.016 1026.64 190.408 1026.64 192.2V200H1023.28V192.656C1023.28 191.6 1023.02 190.792 1022.49 190.232C1021.96 189.656 1021.24 189.368 1020.33 189.368C1019.4 189.368 1018.66 189.656 1018.12 190.232C1017.59 190.792 1017.33 191.6 1017.33 192.656V200H1013.97V186.704H1017.33V188.36C1017.78 187.784 1018.34 187.336 1019.03 187.016C1019.74 186.68 1020.5 186.512 1021.34 186.512ZM1038.91 185.96V190.16H1044.55V192.824H1038.91V197.264H1045.27V200H1035.55V183.224H1045.27V185.96H1038.91ZM1053.87 196.904L1057.23 186.704H1060.81L1055.89 200H1051.81L1046.91 186.704H1050.51L1053.87 196.904ZM1075.06 193.064C1075.06 193.544 1075.02 193.976 1074.96 194.36H1065.24C1065.32 195.32 1065.66 196.072 1066.25 196.616C1066.84 197.16 1067.57 197.432 1068.43 197.432C1069.68 197.432 1070.57 196.896 1071.1 195.824H1074.72C1074.34 197.104 1073.6 198.16 1072.51 198.992C1071.42 199.808 1070.09 200.216 1068.5 200.216C1067.22 200.216 1066.07 199.936 1065.05 199.376C1064.04 198.8 1063.25 197.992 1062.67 196.952C1062.11 195.912 1061.83 194.712 1061.83 193.352C1061.83 191.976 1062.11 190.768 1062.67 189.728C1063.23 188.688 1064.02 187.888 1065.02 187.328C1066.03 186.768 1067.19 186.488 1068.5 186.488C1069.77 186.488 1070.9 186.76 1071.89 187.304C1072.9 187.848 1073.67 188.624 1074.22 189.632C1074.78 190.624 1075.06 191.768 1075.06 193.064ZM1071.58 192.104C1071.56 191.24 1071.25 190.552 1070.64 190.04C1070.03 189.512 1069.29 189.248 1068.41 189.248C1067.58 189.248 1066.87 189.504 1066.3 190.016C1065.74 190.512 1065.39 191.208 1065.26 192.104H1071.58ZM1084.88 186.512C1086.46 186.512 1087.74 187.016 1088.72 188.024C1089.69 189.016 1090.18 190.408 1090.18 192.2V200H1086.82V192.656C1086.82 191.6 1086.56 190.792 1086.03 190.232C1085.5 189.656 1084.78 189.368 1083.87 189.368C1082.94 189.368 1082.2 189.656 1081.66 190.232C1081.13 190.792 1080.87 191.6 1080.87 192.656V200H1077.51V186.704H1080.87V188.36C1081.32 187.784 1081.88 187.336 1082.57 187.016C1083.28 186.68 1084.04 186.512 1084.88 186.512ZM1097.29 189.464V195.896C1097.29 196.344 1097.39 196.672 1097.6 196.88C1097.82 197.072 1098.19 197.168 1098.7 197.168H1100.26V200H1098.15C1095.32 200 1093.9 198.624 1093.9 195.872V189.464H1092.32V186.704H1093.9V183.416H1097.29V186.704H1100.26V189.464H1097.29Z" fill="#1C5DCD"/>
<path d="M975.544 217.928V229H974.088V220.744L970.408 229H969.384L965.688 220.728V229H964.232V217.928H965.8L969.896 227.08L973.992 217.928H975.544ZM977.469 224.584C977.469 223.688 977.651 222.904 978.013 222.232C978.376 221.549 978.872 221.021 979.501 220.648C980.141 220.275 980.851 220.088 981.629 220.088C982.397 220.088 983.064 220.253 983.629 220.584C984.195 220.915 984.616 221.331 984.893 221.832V220.232H986.365V229H984.893V227.368C984.605 227.88 984.173 228.307 983.597 228.648C983.032 228.979 982.371 229.144 981.613 229.144C980.835 229.144 980.131 228.952 979.501 228.568C978.872 228.184 978.376 227.645 978.013 226.952C977.651 226.259 977.469 225.469 977.469 224.584ZM984.893 224.6C984.893 223.939 984.76 223.363 984.493 222.872C984.227 222.381 983.864 222.008 983.405 221.752C982.957 221.485 982.461 221.352 981.917 221.352C981.373 221.352 980.877 221.48 980.429 221.736C979.981 221.992 979.624 222.365 979.357 222.856C979.091 223.347 978.957 223.923 978.957 224.584C978.957 225.256 979.091 225.843 979.357 226.344C979.624 226.835 979.981 227.213 980.429 227.48C980.877 227.736 981.373 227.864 981.917 227.864C982.461 227.864 982.957 227.736 983.405 227.48C983.864 227.213 984.227 226.835 984.493 226.344C984.76 225.843 984.893 225.261 984.893 224.6ZM996.378 220.232L991.098 233.128H989.594L991.322 228.904L987.786 220.232H989.402L992.154 227.336L994.874 220.232H996.378ZM1001.69 227.832C1003.05 226.744 1004.11 225.853 1004.88 225.16C1005.64 224.456 1006.29 223.725 1006.81 222.968C1007.34 222.2 1007.61 221.448 1007.61 220.712C1007.61 220.019 1007.44 219.475 1007.1 219.08C1006.77 218.675 1006.23 218.472 1005.48 218.472C1004.76 218.472 1004.19 218.701 1003.79 219.16C1003.39 219.608 1003.18 220.211 1003.15 220.968H1001.74C1001.78 219.773 1002.14 218.851 1002.83 218.2C1003.51 217.549 1004.39 217.224 1005.47 217.224C1006.57 217.224 1007.44 217.528 1008.08 218.136C1008.73 218.744 1009.05 219.581 1009.05 220.648C1009.05 221.533 1008.78 222.397 1008.25 223.24C1007.73 224.072 1007.13 224.808 1006.46 225.448C1005.79 226.077 1004.93 226.813 1003.88 227.656H1009.39V228.872H1001.69V227.832ZM1012.94 225.896C1013.05 226.504 1013.29 226.973 1013.68 227.304C1014.07 227.635 1014.6 227.8 1015.26 227.8C1016.15 227.8 1016.8 227.453 1017.21 226.76C1017.64 226.067 1017.84 224.899 1017.82 223.256C1017.6 223.736 1017.22 224.115 1016.7 224.392C1016.18 224.659 1015.6 224.792 1014.96 224.792C1014.24 224.792 1013.6 224.648 1013.04 224.36C1012.48 224.061 1012.05 223.629 1011.73 223.064C1011.41 222.499 1011.25 221.816 1011.25 221.016C1011.25 219.875 1011.58 218.957 1012.24 218.264C1012.9 217.56 1013.84 217.208 1015.05 217.208C1016.55 217.208 1017.59 217.693 1018.19 218.664C1018.8 219.635 1019.1 221.08 1019.1 223C1019.1 224.344 1018.98 225.453 1018.73 226.328C1018.5 227.203 1018.09 227.869 1017.52 228.328C1016.95 228.787 1016.17 229.016 1015.18 229.016C1014.09 229.016 1013.25 228.723 1012.64 228.136C1012.03 227.549 1011.68 226.803 1011.6 225.896H1012.94ZM1015.2 223.56C1015.91 223.56 1016.5 223.341 1016.96 222.904C1017.42 222.456 1017.65 221.853 1017.65 221.096C1017.65 220.296 1017.42 219.651 1016.97 219.16C1016.53 218.669 1015.9 218.424 1015.09 218.424C1014.34 218.424 1013.74 218.659 1013.29 219.128C1012.86 219.597 1012.64 220.216 1012.64 220.984C1012.64 221.763 1012.86 222.387 1013.29 222.856C1013.73 223.325 1014.37 223.56 1015.2 223.56ZM1022.89 226.984L1021.1 231.288H1020.12L1021.29 226.984H1022.89ZM1028.41 227.832C1029.76 226.744 1030.83 225.853 1031.59 225.16C1032.36 224.456 1033.01 223.725 1033.53 222.968C1034.06 222.2 1034.33 221.448 1034.33 220.712C1034.33 220.019 1034.16 219.475 1033.82 219.08C1033.49 218.675 1032.95 218.472 1032.2 218.472C1031.48 218.472 1030.91 218.701 1030.51 219.16C1030.11 219.608 1029.9 220.211 1029.87 220.968H1028.46C1028.5 219.773 1028.86 218.851 1029.55 218.2C1030.23 217.549 1031.11 217.224 1032.19 217.224C1033.28 217.224 1034.15 217.528 1034.79 218.136C1035.44 218.744 1035.77 219.581 1035.77 220.648C1035.77 221.533 1035.5 222.397 1034.97 223.24C1034.45 224.072 1033.85 224.808 1033.18 225.448C1032.51 226.077 1031.65 226.813 1030.6 227.656H1036.11V228.872H1028.41V227.832ZM1037.79 223.096C1037.79 221.261 1038.09 219.832 1038.68 218.808C1039.28 217.773 1040.33 217.256 1041.82 217.256C1043.3 217.256 1044.34 217.773 1044.94 218.808C1045.54 219.832 1045.84 221.261 1045.84 223.096C1045.84 224.963 1045.54 226.413 1044.94 227.448C1044.34 228.483 1043.3 229 1041.82 229C1040.33 229 1039.28 228.483 1038.68 227.448C1038.09 226.413 1037.79 224.963 1037.79 223.096ZM1044.4 223.096C1044.4 222.168 1044.33 221.384 1044.2 220.744C1044.09 220.093 1043.84 219.571 1043.45 219.176C1043.08 218.781 1042.54 218.584 1041.82 218.584C1041.1 218.584 1040.54 218.781 1040.16 219.176C1039.78 219.571 1039.53 220.093 1039.4 220.744C1039.29 221.384 1039.23 222.168 1039.23 223.096C1039.23 224.056 1039.29 224.861 1039.4 225.512C1039.53 226.163 1039.78 226.685 1040.16 227.08C1040.54 227.475 1041.1 227.672 1041.82 227.672C1042.54 227.672 1043.08 227.475 1043.45 227.08C1043.84 226.685 1044.09 226.163 1044.2 225.512C1044.33 224.861 1044.4 224.056 1044.4 223.096ZM1047.66 227.832C1049.01 226.744 1050.08 225.853 1050.84 225.16C1051.61 224.456 1052.26 223.725 1052.78 222.968C1053.31 222.2 1053.58 221.448 1053.58 220.712C1053.58 220.019 1053.41 219.475 1053.07 219.08C1052.74 218.675 1052.2 218.472 1051.45 218.472C1050.73 218.472 1050.16 218.701 1049.76 219.16C1049.36 219.608 1049.15 220.211 1049.12 220.968H1047.71C1047.75 219.773 1048.11 218.851 1048.8 218.2C1049.48 217.549 1050.36 217.224 1051.44 217.224C1052.53 217.224 1053.4 217.528 1054.04 218.136C1054.69 218.744 1055.02 219.581 1055.02 220.648C1055.02 221.533 1054.75 222.397 1054.22 223.24C1053.7 224.072 1053.1 224.808 1052.43 225.448C1051.76 226.077 1050.9 226.813 1049.85 227.656H1055.36V228.872H1047.66V227.832ZM1056.86 227.832C1058.22 226.744 1059.28 225.853 1060.05 225.16C1060.81 224.456 1061.46 223.725 1061.98 222.968C1062.52 222.2 1062.78 221.448 1062.78 220.712C1062.78 220.019 1062.61 219.475 1062.27 219.08C1061.94 218.675 1061.4 218.472 1060.65 218.472C1059.93 218.472 1059.36 218.701 1058.96 219.16C1058.56 219.608 1058.35 220.211 1058.32 220.968H1056.91C1056.95 219.773 1057.32 218.851 1058 218.2C1058.68 217.549 1059.56 217.224 1060.64 217.224C1061.74 217.224 1062.61 217.528 1063.25 218.136C1063.9 218.744 1064.22 219.581 1064.22 220.648C1064.22 221.533 1063.96 222.397 1063.42 223.24C1062.9 224.072 1062.3 224.808 1061.63 225.448C1060.96 226.077 1060.1 226.813 1059.05 227.656H1064.56V228.872H1056.86V227.832Z" fill="#363A42"/>
<circle cx="217.327" cy="432.327" r="18.327" fill="#1C5DCD" fill-opacity="0.25"/>
<circle cx="217.327" cy="432.327" r="13.7452" fill="#1C5DCD"/>
<path d="M13.872 424.432C13.872 425.328 13.656 426.168 13.224 426.952C12.808 427.736 12.144 428.368 11.232 428.848C10.336 429.328 9.2 429.568 7.824 429.568H5.016V436H1.656V419.248H7.824C9.12 419.248 10.224 419.472 11.136 419.92C12.048 420.368 12.728 420.984 13.176 421.768C13.64 422.552 13.872 423.44 13.872 424.432ZM7.68 426.856C8.608 426.856 9.296 426.648 9.744 426.232C10.192 425.8 10.416 425.2 10.416 424.432C10.416 422.8 9.504 421.984 7.68 421.984H5.016V426.856H7.68ZM17.9616 421.12C17.3696 421.12 16.8736 420.936 16.4736 420.568C16.0896 420.184 15.8976 419.712 15.8976 419.152C15.8976 418.592 16.0896 418.128 16.4736 417.76C16.8736 417.376 17.3696 417.184 17.9616 417.184C18.5536 417.184 19.0416 417.376 19.4256 417.76C19.8256 418.128 20.0256 418.592 20.0256 419.152C20.0256 419.712 19.8256 420.184 19.4256 420.568C19.0416 420.936 18.5536 421.12 17.9616 421.12ZM19.6176 422.704V436H16.2576V422.704H19.6176ZM26.8493 425.464V431.896C26.8493 432.344 26.9533 432.672 27.1613 432.88C27.3853 433.072 27.7533 433.168 28.2653 433.168H29.8253V436H27.7133C24.8813 436 23.4653 434.624 23.4653 431.872V425.464H21.8813V422.704H23.4653V419.416H26.8493V422.704H29.8253V425.464H26.8493ZM31.3779 429.352C31.3779 427.976 31.6579 426.776 32.2179 425.752C32.7779 424.712 33.5539 423.912 34.5459 423.352C35.5379 422.776 36.6739 422.488 37.9539 422.488C39.6019 422.488 40.9619 422.904 42.0339 423.736C43.1219 424.552 43.8499 425.704 44.2179 427.192H40.5939C40.4019 426.616 40.0739 426.168 39.6099 425.848C39.1619 425.512 38.6019 425.344 37.9299 425.344C36.9699 425.344 36.2099 425.696 35.6499 426.4C35.0899 427.088 34.8099 428.072 34.8099 429.352C34.8099 430.616 35.0899 431.6 35.6499 432.304C36.2099 432.992 36.9699 433.336 37.9299 433.336C39.2899 433.336 40.1779 432.728 40.5939 431.512H44.2179C43.8499 432.952 43.1219 434.096 42.0339 434.944C40.9459 435.792 39.5859 436.216 37.9539 436.216C36.6739 436.216 35.5379 435.936 34.5459 435.376C33.5539 434.8 32.7779 434 32.2179 432.976C31.6579 431.936 31.3779 430.728 31.3779 429.352ZM54.1674 422.512C55.1754 422.512 56.0714 422.736 56.8554 423.184C57.6394 423.616 58.2474 424.264 58.6794 425.128C59.1274 425.976 59.3514 427 59.3514 428.2V436H55.9914V428.656C55.9914 427.6 55.7274 426.792 55.1994 426.232C54.6714 425.656 53.9514 425.368 53.0394 425.368C52.1114 425.368 51.3754 425.656 50.8314 426.232C50.3034 426.792 50.0394 427.6 50.0394 428.656V436H46.6794V418.24H50.0394V424.36C50.4714 423.784 51.0474 423.336 51.7674 423.016C52.4874 422.68 53.2874 422.512 54.1674 422.512ZM61.6826 429.304C61.6826 427.96 61.9466 426.768 62.4746 425.728C63.0186 424.688 63.7466 423.888 64.6586 423.328C65.5866 422.768 66.6186 422.488 67.7546 422.488C68.7466 422.488 69.6106 422.688 70.3466 423.088C71.0986 423.488 71.6986 423.992 72.1466 424.6V422.704H75.5306V436H72.1466V434.056C71.7146 434.68 71.1146 435.2 70.3466 435.616C69.5946 436.016 68.7226 436.216 67.7306 436.216C66.6106 436.216 65.5866 435.928 64.6586 435.352C63.7466 434.776 63.0186 433.968 62.4746 432.928C61.9466 431.872 61.6826 430.664 61.6826 429.304ZM72.1466 429.352C72.1466 428.536 71.9866 427.84 71.6666 427.264C71.3466 426.672 70.9146 426.224 70.3706 425.92C69.8266 425.6 69.2426 425.44 68.6186 425.44C67.9946 425.44 67.4186 425.592 66.8906 425.896C66.3626 426.2 65.9306 426.648 65.5946 427.24C65.2746 427.816 65.1146 428.504 65.1146 429.304C65.1146 430.104 65.2746 430.808 65.5946 431.416C65.9306 432.008 66.3626 432.464 66.8906 432.784C67.4346 433.104 68.0106 433.264 68.6186 433.264C69.2426 433.264 69.8266 433.112 70.3706 432.808C70.9146 432.488 71.3466 432.04 71.6666 431.464C71.9866 430.872 72.1466 430.168 72.1466 429.352ZM82.7243 425.464V431.896C82.7243 432.344 82.8283 432.672 83.0363 432.88C83.2603 433.072 83.6283 433.168 84.1403 433.168H85.7003V436H83.5883C80.7563 436 79.3403 434.624 79.3403 431.872V425.464H77.7563V422.704H79.3403V419.416H82.7243V422.704H85.7003V425.464H82.7243ZM95.6049 422.512C96.6129 422.512 97.5089 422.736 98.2929 423.184C99.0769 423.616 99.6849 424.264 100.117 425.128C100.565 425.976 100.789 427 100.789 428.2V436H97.4289V428.656C97.4289 427.6 97.1649 426.792 96.6369 426.232C96.1089 425.656 95.3889 425.368 94.4769 425.368C93.5489 425.368 92.8129 425.656 92.2689 426.232C91.7409 426.792 91.4769 427.6 91.4769 428.656V436H88.1169V418.24H91.4769V424.36C91.9089 423.784 92.4849 423.336 93.2049 423.016C93.9249 422.68 94.7249 422.512 95.6049 422.512ZM109.888 436.216C108.608 436.216 107.456 435.936 106.432 435.376C105.408 434.8 104.6 433.992 104.008 432.952C103.432 431.912 103.144 430.712 103.144 429.352C103.144 427.992 103.44 426.792 104.032 425.752C104.64 424.712 105.464 423.912 106.504 423.352C107.544 422.776 108.704 422.488 109.984 422.488C111.264 422.488 112.424 422.776 113.464 423.352C114.504 423.912 115.32 424.712 115.912 425.752C116.52 426.792 116.824 427.992 116.824 429.352C116.824 430.712 116.512 431.912 115.888 432.952C115.28 433.992 114.448 434.8 113.392 435.376C112.352 435.936 111.184 436.216 109.888 436.216ZM109.888 433.288C110.496 433.288 111.064 433.144 111.592 432.856C112.136 432.552 112.568 432.104 112.888 431.512C113.208 430.92 113.368 430.2 113.368 429.352C113.368 428.088 113.032 427.12 112.36 426.448C111.704 425.76 110.896 425.416 109.936 425.416C108.976 425.416 108.168 425.76 107.512 426.448C106.872 427.12 106.552 428.088 106.552 429.352C106.552 430.616 106.864 431.592 107.488 432.28C108.128 432.952 108.928 433.288 109.888 433.288ZM126.657 422.512C128.241 422.512 129.521 423.016 130.497 424.024C131.473 425.016 131.961 426.408 131.961 428.2V436H128.601V428.656C128.601 427.6 128.337 426.792 127.809 426.232C127.281 425.656 126.561 425.368 125.649 425.368C124.721 425.368 123.985 425.656 123.441 426.232C122.913 426.792 122.649 427.6 122.649 428.656V436H119.289V422.704H122.649V424.36C123.097 423.784 123.665 423.336 124.353 423.016C125.057 422.68 125.825 422.512 126.657 422.512Z" fill="#1C5DCD"/>
<path d="M23.848 452.848V461.088C23.848 462.005 23.5653 462.741 23 463.296C22.4347 463.84 21.688 464.112 20.76 464.112C19.8213 464.112 19.0693 463.835 18.504 463.28C17.9387 462.715 17.656 461.947 17.656 460.976H19.112C19.1227 461.52 19.2613 461.963 19.528 462.304C19.8053 462.645 20.216 462.816 20.76 462.816C21.304 462.816 21.7093 462.656 21.976 462.336C22.2427 462.005 22.376 461.589 22.376 461.088V452.848H23.848ZM34.4924 455.232V464H33.0364V462.704C32.759 463.152 32.3697 463.504 31.8684 463.76C31.3777 464.005 30.8337 464.128 30.2364 464.128C29.5537 464.128 28.9404 463.989 28.3964 463.712C27.8524 463.424 27.4204 462.997 27.1004 462.432C26.791 461.867 26.6364 461.179 26.6364 460.368V455.232H28.0764V460.176C28.0764 461.04 28.295 461.707 28.7324 462.176C29.1697 462.635 29.767 462.864 30.5244 462.864C31.303 462.864 31.9164 462.624 32.3644 462.144C32.8124 461.664 33.0364 460.965 33.0364 460.048V455.232H34.4924ZM41.2228 455.072C42.2894 455.072 43.1534 455.397 43.8148 456.048C44.4761 456.688 44.8068 457.616 44.8068 458.832V464H43.3668V459.04C43.3668 458.165 43.1481 457.499 42.7108 457.04C42.2734 456.571 41.6761 456.336 40.9188 456.336C40.1508 456.336 39.5374 456.576 39.0788 457.056C38.6308 457.536 38.4068 458.235 38.4068 459.152V464H36.9508V455.232H38.4068V456.48C38.6948 456.032 39.0841 455.685 39.5748 455.44C40.0761 455.195 40.6254 455.072 41.2228 455.072ZM55.1851 459.28C55.1851 459.557 55.1691 459.851 55.1371 460.16H48.1291C48.1825 461.024 48.4758 461.701 49.0091 462.192C49.5531 462.672 50.2091 462.912 50.9771 462.912C51.6065 462.912 52.1291 462.768 52.5451 462.48C52.9718 462.181 53.2705 461.787 53.4411 461.296H55.0091C54.7745 462.139 54.3051 462.827 53.6011 463.36C52.8971 463.883 52.0225 464.144 50.9771 464.144C50.1451 464.144 49.3985 463.957 48.7371 463.584C48.0865 463.211 47.5745 462.683 47.2011 462C46.8278 461.307 46.6411 460.507 46.6411 459.6C46.6411 458.693 46.8225 457.899 47.1851 457.216C47.5478 456.533 48.0545 456.011 48.7051 455.648C49.3665 455.275 50.1238 455.088 50.9771 455.088C51.8091 455.088 52.5451 455.269 53.1851 455.632C53.8251 455.995 54.3158 456.496 54.6571 457.136C55.0091 457.765 55.1851 458.48 55.1851 459.28ZM53.6811 458.976C53.6811 458.421 53.5585 457.947 53.3131 457.552C53.0678 457.147 52.7318 456.843 52.3051 456.64C51.8891 456.427 51.4251 456.32 50.9131 456.32C50.1771 456.32 49.5478 456.555 49.0251 457.024C48.5131 457.493 48.2198 458.144 48.1451 458.976H53.6811ZM68.5086 453.696H62.8926V457.344C63.138 457.003 63.5006 456.725 63.9806 456.512C64.4606 456.288 64.978 456.176 65.5326 456.176C66.418 456.176 67.138 456.363 67.6926 456.736C68.2473 457.099 68.642 457.573 68.8766 458.16C69.122 458.736 69.2446 459.349 69.2446 460C69.2446 460.768 69.1006 461.456 68.8126 462.064C68.5246 462.672 68.082 463.152 67.4846 463.504C66.898 463.856 66.1673 464.032 65.2926 464.032C64.1726 464.032 63.266 463.744 62.5726 463.168C61.8793 462.592 61.458 461.824 61.3086 460.864H62.7326C62.8713 461.472 63.1646 461.947 63.6126 462.288C64.0606 462.629 64.626 462.8 65.3086 462.8C66.1513 462.8 66.786 462.549 67.2126 462.048C67.6393 461.536 67.8526 460.864 67.8526 460.032C67.8526 459.2 67.6393 458.56 67.2126 458.112C66.786 457.653 66.1566 457.424 65.3246 457.424C64.7593 457.424 64.2633 457.563 63.8366 457.84C63.4206 458.107 63.1166 458.475 62.9246 458.944H61.5486V452.416H68.5086V453.696ZM72.9235 461.984L71.1315 466.288H70.1555L71.3235 461.984H72.9235ZM78.441 462.832C79.7957 461.744 80.857 460.853 81.625 460.16C82.393 459.456 83.0383 458.725 83.561 457.968C84.0943 457.2 84.361 456.448 84.361 455.712C84.361 455.019 84.1903 454.475 83.849 454.08C83.5183 453.675 82.9797 453.472 82.233 453.472C81.5077 453.472 80.9423 453.701 80.537 454.16C80.1423 454.608 79.929 455.211 79.897 455.968H78.489C78.5317 454.773 78.8943 453.851 79.577 453.2C80.2597 452.549 81.1397 452.224 82.217 452.224C83.3157 452.224 84.185 452.528 84.825 453.136C85.4757 453.744 85.801 454.581 85.801 455.648C85.801 456.533 85.5343 457.397 85.001 458.24C84.4783 459.072 83.881 459.808 83.209 460.448C82.537 461.077 81.6783 461.813 80.633 462.656H86.137V463.872H78.441V462.832ZM87.8201 458.096C87.8201 456.261 88.1188 454.832 88.7161 453.808C89.3135 452.773 90.3588 452.256 91.8521 452.256C93.3348 452.256 94.3748 452.773 94.9721 453.808C95.5695 454.832 95.8681 456.261 95.8681 458.096C95.8681 459.963 95.5695 461.413 94.9721 462.448C94.3748 463.483 93.3348 464 91.8521 464C90.3588 464 89.3135 463.483 88.7161 462.448C88.1188 461.413 87.8201 459.963 87.8201 458.096ZM94.4281 458.096C94.4281 457.168 94.3641 456.384 94.2361 455.744C94.1188 455.093 93.8681 454.571 93.4841 454.176C93.1108 453.781 92.5668 453.584 91.8521 453.584C91.1268 453.584 90.5721 453.781 90.1881 454.176C89.8148 454.571 89.5641 455.093 89.4361 455.744C89.3188 456.384 89.2601 457.168 89.2601 458.096C89.2601 459.056 89.3188 459.861 89.4361 460.512C89.5641 461.163 89.8148 461.685 90.1881 462.08C90.5721 462.475 91.1268 462.672 91.8521 462.672C92.5668 462.672 93.1108 462.475 93.4841 462.08C93.8681 461.685 94.1188 461.163 94.2361 460.512C94.3641 459.861 94.4281 459.056 94.4281 458.096ZM97.691 462.832C99.0457 461.744 100.107 460.853 100.875 460.16C101.643 459.456 102.288 458.725 102.811 457.968C103.344 457.2 103.611 456.448 103.611 455.712C103.611 455.019 103.44 454.475 103.099 454.08C102.768 453.675 102.23 453.472 101.483 453.472C100.758 453.472 100.192 453.701 99.787 454.16C99.3923 454.608 99.179 455.211 99.147 455.968H97.739C97.7817 454.773 98.1443 453.851 98.827 453.2C99.5097 452.549 100.39 452.224 101.467 452.224C102.566 452.224 103.435 452.528 104.075 453.136C104.726 453.744 105.051 454.581 105.051 455.648C105.051 456.533 104.784 457.397 104.251 458.24C103.728 459.072 103.131 459.808 102.459 460.448C101.787 461.077 100.928 461.813 99.883 462.656H105.387V463.872H97.691V462.832ZM106.894 462.832C108.249 461.744 109.31 460.853 110.078 460.16C110.846 459.456 111.491 458.725 112.014 457.968C112.547 457.2 112.814 456.448 112.814 455.712C112.814 455.019 112.643 454.475 112.302 454.08C111.971 453.675 111.433 453.472 110.686 453.472C109.961 453.472 109.395 453.701 108.99 454.16C108.595 454.608 108.382 455.211 108.35 455.968H106.942C106.985 454.773 107.347 453.851 108.03 453.2C108.713 452.549 109.593 452.224 110.67 452.224C111.769 452.224 112.638 452.528 113.278 453.136C113.929 453.744 114.254 454.581 114.254 455.648C114.254 456.533 113.987 457.397 113.454 458.24C112.931 459.072 112.334 459.808 111.662 460.448C110.99 461.077 110.131 461.813 109.086 462.656H114.59V463.872H106.894V462.832Z" fill="#363A42"/>
<circle cx="498.475" cy="103.327" r="18.327" fill="#1C5DCD" fill-opacity="0.25"/>
<circle cx="498.475" cy="103.327" r="13.7452" fill="#1C5DCD"/>
<path d="M420.16 165.408C421.104 165.584 421.88 166.056 422.488 166.824C423.096 167.592 423.4 168.472 423.4 169.464C423.4 170.36 423.176 171.152 422.728 171.84C422.296 172.512 421.664 173.04 420.832 173.424C420 173.808 419.016 174 417.88 174H410.656V157.248H417.568C418.704 157.248 419.68 157.432 420.496 157.8C421.328 158.168 421.952 158.68 422.368 159.336C422.8 159.992 423.016 160.736 423.016 161.568C423.016 162.544 422.752 163.36 422.224 164.016C421.712 164.672 421.024 165.136 420.16 165.408ZM414.016 164.16H417.088C417.888 164.16 418.504 163.984 418.936 163.632C419.368 163.264 419.584 162.744 419.584 162.072C419.584 161.4 419.368 160.88 418.936 160.512C418.504 160.144 417.888 159.96 417.088 159.96H414.016V164.16ZM417.4 171.264C418.216 171.264 418.848 171.072 419.296 170.688C419.76 170.304 419.992 169.76 419.992 169.056C419.992 168.336 419.752 167.776 419.272 167.376C418.792 166.96 418.144 166.752 417.328 166.752H414.016V171.264H417.4ZM438.63 160.704V174H435.246V172.32C434.814 172.896 434.246 173.352 433.542 173.688C432.854 174.008 432.102 174.168 431.286 174.168C430.246 174.168 429.326 173.952 428.526 173.52C427.726 173.072 427.094 172.424 426.63 171.576C426.182 170.712 425.958 169.688 425.958 168.504V160.704H429.318V168.024C429.318 169.08 429.582 169.896 430.11 170.472C430.638 171.032 431.358 171.312 432.27 171.312C433.198 171.312 433.926 171.032 434.454 170.472C434.982 169.896 435.246 169.08 435.246 168.024V160.704H438.63ZM447.033 174.216C445.945 174.216 444.969 174.024 444.105 173.64C443.241 173.24 442.553 172.704 442.041 172.032C441.545 171.36 441.273 170.616 441.225 169.8H444.609C444.673 170.312 444.921 170.736 445.353 171.072C445.801 171.408 446.353 171.576 447.009 171.576C447.649 171.576 448.145 171.448 448.497 171.192C448.865 170.936 449.049 170.608 449.049 170.208C449.049 169.776 448.825 169.456 448.377 169.248C447.945 169.024 447.249 168.784 446.289 168.528C445.297 168.288 444.481 168.04 443.841 167.784C443.217 167.528 442.673 167.136 442.209 166.608C441.761 166.08 441.537 165.368 441.537 164.472C441.537 163.736 441.745 163.064 442.161 162.456C442.593 161.848 443.201 161.368 443.985 161.016C444.785 160.664 445.721 160.488 446.793 160.488C448.377 160.488 449.641 160.888 450.585 161.688C451.529 162.472 452.049 163.536 452.145 164.88H448.929C448.881 164.352 448.657 163.936 448.257 163.632C447.873 163.312 447.353 163.152 446.697 163.152C446.089 163.152 445.617 163.264 445.281 163.488C444.961 163.712 444.801 164.024 444.801 164.424C444.801 164.872 445.025 165.216 445.473 165.456C445.921 165.68 446.617 165.912 447.561 166.152C448.521 166.392 449.313 166.64 449.937 166.896C450.561 167.152 451.097 167.552 451.545 168.096C452.009 168.624 452.249 169.328 452.265 170.208C452.265 170.976 452.049 171.664 451.617 172.272C451.201 172.88 450.593 173.36 449.793 173.712C449.009 174.048 448.089 174.216 447.033 174.216ZM456.727 159.12C456.135 159.12 455.639 158.936 455.239 158.568C454.855 158.184 454.663 157.712 454.663 157.152C454.663 156.592 454.855 156.128 455.239 155.76C455.639 155.376 456.135 155.184 456.727 155.184C457.319 155.184 457.807 155.376 458.191 155.76C458.591 156.128 458.791 156.592 458.791 157.152C458.791 157.712 458.591 158.184 458.191 158.568C457.807 158.936 457.319 159.12 456.727 159.12ZM458.383 160.704V174H455.023V160.704H458.383ZM469.071 160.512C470.655 160.512 471.935 161.016 472.911 162.024C473.887 163.016 474.375 164.408 474.375 166.2V174H471.015V166.656C471.015 165.6 470.751 164.792 470.223 164.232C469.695 163.656 468.975 163.368 468.063 163.368C467.135 163.368 466.399 163.656 465.855 164.232C465.327 164.792 465.063 165.6 465.063 166.656V174H461.703V160.704H465.063V162.36C465.511 161.784 466.079 161.336 466.767 161.016C467.471 160.68 468.239 160.512 469.071 160.512ZM489.93 167.064C489.93 167.544 489.898 167.976 489.834 168.36H480.114C480.194 169.32 480.53 170.072 481.122 170.616C481.714 171.16 482.442 171.432 483.306 171.432C484.554 171.432 485.442 170.896 485.97 169.824H489.594C489.21 171.104 488.474 172.16 487.386 172.992C486.298 173.808 484.962 174.216 483.378 174.216C482.098 174.216 480.946 173.936 479.922 173.376C478.914 172.8 478.122 171.992 477.546 170.952C476.986 169.912 476.706 168.712 476.706 167.352C476.706 165.976 476.986 164.768 477.546 163.728C478.106 162.688 478.89 161.888 479.898 161.328C480.906 160.768 482.066 160.488 483.378 160.488C484.642 160.488 485.77 160.76 486.762 161.304C487.77 161.848 488.546 162.624 489.09 163.632C489.65 164.624 489.93 165.768 489.93 167.064ZM486.45 166.104C486.434 165.24 486.122 164.552 485.514 164.04C484.906 163.512 484.162 163.248 483.282 163.248C482.45 163.248 481.746 163.504 481.17 164.016C480.61 164.512 480.266 165.208 480.138 166.104H486.45ZM497.471 174.216C496.383 174.216 495.407 174.024 494.543 173.64C493.679 173.24 492.991 172.704 492.479 172.032C491.983 171.36 491.711 170.616 491.663 169.8H495.047C495.111 170.312 495.359 170.736 495.791 171.072C496.239 171.408 496.791 171.576 497.447 171.576C498.087 171.576 498.583 171.448 498.935 171.192C499.303 170.936 499.487 170.608 499.487 170.208C499.487 169.776 499.263 169.456 498.815 169.248C498.383 169.024 497.687 168.784 496.727 168.528C495.735 168.288 494.919 168.04 494.279 167.784C493.655 167.528 493.111 167.136 492.647 166.608C492.199 166.08 491.975 165.368 491.975 164.472C491.975 163.736 492.183 163.064 492.599 162.456C493.031 161.848 493.639 161.368 494.423 161.016C495.223 160.664 496.159 160.488 497.231 160.488C498.815 160.488 500.079 160.888 501.023 161.688C501.967 162.472 502.487 163.536 502.583 164.88H499.367C499.319 164.352 499.095 163.936 498.695 163.632C498.311 163.312 497.791 163.152 497.135 163.152C496.527 163.152 496.055 163.264 495.719 163.488C495.399 163.712 495.239 164.024 495.239 164.424C495.239 164.872 495.463 165.216 495.911 165.456C496.359 165.68 497.055 165.912 497.999 166.152C498.959 166.392 499.751 166.64 500.375 166.896C500.999 167.152 501.535 167.552 501.983 168.096C502.447 168.624 502.687 169.328 502.703 170.208C502.703 170.976 502.487 171.664 502.055 172.272C501.639 172.88 501.031 173.36 500.231 173.712C499.447 174.048 498.527 174.216 497.471 174.216ZM510.549 174.216C509.461 174.216 508.485 174.024 507.621 173.64C506.757 173.24 506.069 172.704 505.557 172.032C505.061 171.36 504.789 170.616 504.741 169.8H508.125C508.189 170.312 508.437 170.736 508.869 171.072C509.317 171.408 509.869 171.576 510.525 171.576C511.165 171.576 511.661 171.448 512.013 171.192C512.381 170.936 512.565 170.608 512.565 170.208C512.565 169.776 512.341 169.456 511.893 169.248C511.461 169.024 510.765 168.784 509.805 168.528C508.813 168.288 507.997 168.04 507.357 167.784C506.733 167.528 506.189 167.136 505.725 166.608C505.277 166.08 505.053 165.368 505.053 164.472C505.053 163.736 505.261 163.064 505.677 162.456C506.109 161.848 506.717 161.368 507.501 161.016C508.301 160.664 509.237 160.488 510.309 160.488C511.893 160.488 513.157 160.888 514.101 161.688C515.045 162.472 515.565 163.536 515.661 164.88H512.445C512.397 164.352 512.173 163.936 511.773 163.632C511.389 163.312 510.869 163.152 510.213 163.152C509.605 163.152 509.133 163.264 508.797 163.488C508.477 163.712 508.317 164.024 508.317 164.424C508.317 164.872 508.541 165.216 508.989 165.456C509.437 165.68 510.133 165.912 511.077 166.152C512.037 166.392 512.829 166.64 513.453 166.896C514.077 167.152 514.613 167.552 515.061 168.096C515.525 168.624 515.765 169.328 515.781 170.208C515.781 170.976 515.565 171.664 515.133 172.272C514.717 172.88 514.109 173.36 513.309 173.712C512.525 174.048 511.605 174.216 510.549 174.216ZM535.658 157.248V159.96H531.194V174H527.834V159.96H523.37V157.248H535.658ZM537.245 167.304C537.245 165.96 537.509 164.768 538.037 163.728C538.581 162.688 539.309 161.888 540.221 161.328C541.149 160.768 542.181 160.488 543.317 160.488C544.309 160.488 545.173 160.688 545.909 161.088C546.661 161.488 547.261 161.992 547.709 162.6V160.704H551.093V174H547.709V172.056C547.277 172.68 546.677 173.2 545.909 173.616C545.157 174.016 544.285 174.216 543.293 174.216C542.173 174.216 541.149 173.928 540.221 173.352C539.309 172.776 538.581 171.968 538.037 170.928C537.509 169.872 537.245 168.664 537.245 167.304ZM547.709 167.352C547.709 166.536 547.549 165.84 547.229 165.264C546.909 164.672 546.477 164.224 545.933 163.92C545.389 163.6 544.805 163.44 544.181 163.44C543.557 163.44 542.981 163.592 542.453 163.896C541.925 164.2 541.493 164.648 541.157 165.24C540.837 165.816 540.677 166.504 540.677 167.304C540.677 168.104 540.837 168.808 541.157 169.416C541.493 170.008 541.925 170.464 542.453 170.784C542.997 171.104 543.573 171.264 544.181 171.264C544.805 171.264 545.389 171.112 545.933 170.808C546.477 170.488 546.909 170.04 547.229 169.464C547.549 168.872 547.709 168.168 547.709 167.352ZM557.735 156.24V174H554.375V156.24H557.735ZM568.926 174L564.414 168.336V174H561.054V156.24H564.414V166.344L568.878 160.704H573.246L567.39 167.376L573.294 174H568.926ZM580.158 174.216C579.07 174.216 578.094 174.024 577.23 173.64C576.366 173.24 575.678 172.704 575.166 172.032C574.67 171.36 574.398 170.616 574.35 169.8H577.734C577.798 170.312 578.046 170.736 578.478 171.072C578.926 171.408 579.478 171.576 580.134 171.576C580.774 171.576 581.27 171.448 581.622 171.192C581.99 170.936 582.174 170.608 582.174 170.208C582.174 169.776 581.95 169.456 581.502 169.248C581.07 169.024 580.374 168.784 579.414 168.528C578.422 168.288 577.606 168.04 576.966 167.784C576.342 167.528 575.798 167.136 575.334 166.608C574.886 166.08 574.662 165.368 574.662 164.472C574.662 163.736 574.87 163.064 575.286 162.456C575.718 161.848 576.326 161.368 577.11 161.016C577.91 160.664 578.846 160.488 579.918 160.488C581.502 160.488 582.766 160.888 583.71 161.688C584.654 162.472 585.174 163.536 585.27 164.88H582.054C582.006 164.352 581.782 163.936 581.382 163.632C580.998 163.312 580.478 163.152 579.822 163.152C579.214 163.152 578.742 163.264 578.406 163.488C578.086 163.712 577.926 164.024 577.926 164.424C577.926 164.872 578.15 165.216 578.598 165.456C579.046 165.68 579.742 165.912 580.686 166.152C581.646 166.392 582.438 166.64 583.062 166.896C583.686 167.152 584.222 167.552 584.67 168.096C585.134 168.624 585.374 169.328 585.39 170.208C585.39 170.976 585.174 171.664 584.742 172.272C584.326 172.88 583.718 173.36 582.918 173.712C582.134 174.048 581.214 174.216 580.158 174.216Z" fill="#1C5DCD"/>
<path d="M458.544 190.928V202H457.088V193.744L453.408 202H452.384L448.688 193.728V202H447.232V190.928H448.8L452.896 200.08L456.992 190.928H458.544ZM460.469 197.584C460.469 196.688 460.651 195.904 461.013 195.232C461.376 194.549 461.872 194.021 462.501 193.648C463.141 193.275 463.851 193.088 464.629 193.088C465.397 193.088 466.064 193.253 466.629 193.584C467.195 193.915 467.616 194.331 467.893 194.832V193.232H469.365V202H467.893V200.368C467.605 200.88 467.173 201.307 466.597 201.648C466.032 201.979 465.371 202.144 464.613 202.144C463.835 202.144 463.131 201.952 462.501 201.568C461.872 201.184 461.376 200.645 461.013 199.952C460.651 199.259 460.469 198.469 460.469 197.584ZM467.893 197.6C467.893 196.939 467.76 196.363 467.493 195.872C467.227 195.381 466.864 195.008 466.405 194.752C465.957 194.485 465.461 194.352 464.917 194.352C464.373 194.352 463.877 194.48 463.429 194.736C462.981 194.992 462.624 195.365 462.357 195.856C462.091 196.347 461.957 196.923 461.957 197.584C461.957 198.256 462.091 198.843 462.357 199.344C462.624 199.835 462.981 200.213 463.429 200.48C463.877 200.736 464.373 200.864 464.917 200.864C465.461 200.864 465.957 200.736 466.405 200.48C466.864 200.213 467.227 199.835 467.493 199.344C467.76 198.843 467.893 198.261 467.893 197.6ZM479.378 193.232L474.098 206.128H472.594L474.322 201.904L470.786 193.232H472.402L475.154 200.336L477.874 193.232H479.378ZM484.691 200.832C486.046 199.744 487.107 198.853 487.875 198.16C488.643 197.456 489.288 196.725 489.811 195.968C490.344 195.2 490.611 194.448 490.611 193.712C490.611 193.019 490.44 192.475 490.099 192.08C489.768 191.675 489.23 191.472 488.483 191.472C487.758 191.472 487.192 191.701 486.787 192.16C486.392 192.608 486.179 193.211 486.147 193.968H484.739C484.782 192.773 485.144 191.851 485.827 191.2C486.51 190.549 487.39 190.224 488.467 190.224C489.566 190.224 490.435 190.528 491.075 191.136C491.726 191.744 492.051 192.581 492.051 193.648C492.051 194.533 491.784 195.397 491.251 196.24C490.728 197.072 490.131 197.808 489.459 198.448C488.787 199.077 487.928 199.813 486.883 200.656H492.387V201.872H484.691V200.832ZM496.182 195.984C495.585 195.749 495.126 195.408 494.806 194.96C494.486 194.512 494.326 193.968 494.326 193.328C494.326 192.752 494.47 192.235 494.758 191.776C495.046 191.307 495.473 190.939 496.038 190.672C496.614 190.395 497.307 190.256 498.118 190.256C498.929 190.256 499.617 190.395 500.182 190.672C500.758 190.939 501.19 191.307 501.478 191.776C501.777 192.235 501.926 192.752 501.926 193.328C501.926 193.947 501.761 194.491 501.43 194.96C501.099 195.419 500.646 195.76 500.07 195.984C500.731 196.187 501.254 196.544 501.638 197.056C502.033 197.557 502.23 198.165 502.23 198.88C502.23 199.573 502.059 200.181 501.718 200.704C501.377 201.216 500.891 201.616 500.262 201.904C499.643 202.181 498.929 202.32 498.118 202.32C497.307 202.32 496.593 202.181 495.974 201.904C495.366 201.616 494.891 201.216 494.55 200.704C494.209 200.181 494.038 199.573 494.038 198.88C494.038 198.165 494.23 197.552 494.614 197.04C494.998 196.528 495.521 196.176 496.182 195.984ZM500.518 193.504C500.518 192.853 500.305 192.352 499.878 192C499.451 191.648 498.865 191.472 498.118 191.472C497.382 191.472 496.801 191.648 496.374 192C495.947 192.352 495.734 192.859 495.734 193.52C495.734 194.117 495.953 194.597 496.39 194.96C496.838 195.323 497.414 195.504 498.118 195.504C498.833 195.504 499.409 195.323 499.846 194.96C500.294 194.587 500.518 194.101 500.518 193.504ZM498.118 196.624C497.329 196.624 496.683 196.811 496.182 197.184C495.681 197.547 495.43 198.096 495.43 198.832C495.43 199.515 495.67 200.064 496.15 200.48C496.641 200.896 497.297 201.104 498.118 201.104C498.939 201.104 499.59 200.896 500.07 200.48C500.55 200.064 500.79 199.515 500.79 198.832C500.79 198.117 500.545 197.573 500.054 197.2C499.563 196.816 498.918 196.624 498.118 196.624ZM505.908 199.984L504.116 204.288H503.14L504.308 199.984H505.908ZM511.425 200.832C512.78 199.744 513.841 198.853 514.609 198.16C515.377 197.456 516.023 196.725 516.545 195.968C517.079 195.2 517.345 194.448 517.345 193.712C517.345 193.019 517.175 192.475 516.833 192.08C516.503 191.675 515.964 191.472 515.217 191.472C514.492 191.472 513.927 191.701 513.521 192.16C513.127 192.608 512.913 193.211 512.881 193.968H511.473C511.516 192.773 511.879 191.851 512.561 191.2C513.244 190.549 514.124 190.224 515.201 190.224C516.3 190.224 517.169 190.528 517.809 191.136C518.46 191.744 518.785 192.581 518.785 193.648C518.785 194.533 518.519 195.397 517.985 196.24C517.463 197.072 516.865 197.808 516.193 198.448C515.521 199.077 514.663 199.813 513.617 200.656H519.121V201.872H511.425V200.832ZM520.805 196.096C520.805 194.261 521.103 192.832 521.701 191.808C522.298 190.773 523.343 190.256 524.837 190.256C526.319 190.256 527.359 190.773 527.957 191.808C528.554 192.832 528.852 194.261 528.852 196.096C528.852 197.963 528.554 199.413 527.957 200.448C527.359 201.483 526.319 202 524.837 202C523.343 202 522.298 201.483 521.701 200.448C521.103 199.413 520.805 197.963 520.805 196.096ZM527.413 196.096C527.413 195.168 527.349 194.384 527.221 193.744C527.103 193.093 526.853 192.571 526.469 192.176C526.095 191.781 525.551 191.584 524.837 191.584C524.111 191.584 523.557 191.781 523.173 192.176C522.799 192.571 522.549 193.093 522.421 193.744C522.303 194.384 522.245 195.168 522.245 196.096C522.245 197.056 522.303 197.861 522.421 198.512C522.549 199.163 522.799 199.685 523.173 200.08C523.557 200.475 524.111 200.672 524.837 200.672C525.551 200.672 526.095 200.475 526.469 200.08C526.853 199.685 527.103 199.163 527.221 198.512C527.349 197.861 527.413 197.056 527.413 196.096ZM530.675 200.832C532.03 199.744 533.091 198.853 533.859 198.16C534.627 197.456 535.273 196.725 535.795 195.968C536.329 195.2 536.595 194.448 536.595 193.712C536.595 193.019 536.425 192.475 536.083 192.08C535.753 191.675 535.214 191.472 534.467 191.472C533.742 191.472 533.177 191.701 532.771 192.16C532.377 192.608 532.163 193.211 532.131 193.968H530.723C530.766 192.773 531.129 191.851 531.811 191.2C532.494 190.549 533.374 190.224 534.451 190.224C535.55 190.224 536.419 190.528 537.059 191.136C537.71 191.744 538.035 192.581 538.035 193.648C538.035 194.533 537.769 195.397 537.235 196.24C536.713 197.072 536.115 197.808 535.443 198.448C534.771 199.077 533.913 199.813 532.867 200.656H538.371V201.872H530.675V200.832ZM539.879 200.832C541.233 199.744 542.295 198.853 543.062 198.16C543.831 197.456 544.476 196.725 544.999 195.968C545.532 195.2 545.799 194.448 545.799 193.712C545.799 193.019 545.628 192.475 545.287 192.08C544.956 191.675 544.417 191.472 543.671 191.472C542.945 191.472 542.38 191.701 541.975 192.16C541.58 192.608 541.367 193.211 541.335 193.968H539.927C539.969 192.773 540.332 191.851 541.015 191.2C541.697 190.549 542.577 190.224 543.655 190.224C544.753 190.224 545.623 190.528 546.263 191.136C546.913 191.744 547.239 192.581 547.239 193.648C547.239 194.533 546.972 195.397 546.439 196.24C545.916 197.072 545.319 197.808 544.647 198.448C543.975 199.077 543.116 199.813 542.071 200.656H547.575V201.872H539.879V200.832Z" fill="#363A42"/>
</svg>
