<svg width="151" height="71" viewBox="0 0 151 71" fill="none" xmlns="http://www.w3.org/2000/svg">
<path d="M0.456 13.4V1.016H23.592V71H9.768V13.4H0.456ZM83.9093 12.632H52.8053V29.048C54.1493 27.384 56.0693 26.04 58.5653 25.016C61.0613 23.928 63.7173 23.384 66.5333 23.384C71.6533 23.384 75.8453 24.504 79.1093 26.744C82.3733 28.984 84.7413 31.864 86.2133 35.384C87.6853 38.84 88.4213 42.552 88.4213 46.52C88.4213 53.88 86.3093 59.8 82.0853 64.28C77.9253 68.76 71.9733 71 64.2293 71C56.9333 71 51.1093 69.176 46.7573 65.528C42.4053 61.88 39.9413 57.112 39.3653 51.224H52.4213C52.9973 53.784 54.2773 55.832 56.2613 57.368C58.3093 58.904 60.9013 59.672 64.0373 59.672C67.8133 59.672 70.6613 58.488 72.5813 56.12C74.5013 53.752 75.4613 50.616 75.4613 46.712C75.4613 42.744 74.4693 39.736 72.4853 37.688C70.5653 35.576 67.7173 34.52 63.9413 34.52C61.2533 34.52 59.0133 35.192 57.2213 36.536C55.4293 37.88 54.1493 39.672 53.3813 41.912H40.5173V0.823999H83.9093V12.632ZM150.395 42.68H132.251V61.304H119.579V42.68H101.435V30.968H119.579V12.344H132.251V30.968H150.395V42.68Z" fill="#1C5DCD"/>
</svg>
